<?xml version="1.0" encoding="UTF-8" standalone="no"?>
<!-- Created with Inkscape (http://www.inkscape.org/) -->

<svg
   width="48"
   height="48"
   viewBox="0 0 48 48"
   version="1.1"
   id="svg5"
   xml:space="preserve"
   inkscape:version="1.2.2 (732a01da63, 2022-12-09)"
   sodipodi:docname="logoLibelium.svg"
   xmlns:inkscape="http://www.inkscape.org/namespaces/inkscape"
   xmlns:sodipodi="http://sodipodi.sourceforge.net/DTD/sodipodi-0.dtd"
   xmlns="http://www.w3.org/2000/svg"
   xmlns:svg="http://www.w3.org/2000/svg"><sodipodi:namedview
     id="namedview7"
     pagecolor="#ffffff"
     bordercolor="#000000"
     borderopacity="0.25"
     inkscape:showpageshadow="2"
     inkscape:pageopacity="0.0"
     inkscape:pagecheckerboard="0"
     inkscape:deskcolor="#d1d1d1"
     inkscape:document-units="mm"
     showgrid="false"
     inkscape:zoom="8.1033961"
     inkscape:cx="4.3191767"
     inkscape:cy="4.2574742"
     inkscape:window-width="1920"
     inkscape:window-height="991"
     inkscape:window-x="-9"
     inkscape:window-y="-9"
     inkscape:window-maximized="1"
     inkscape:current-layer="layer1" /><defs
     id="defs2"><inkscape:path-effect
       effect="bspline"
       id="path-effect358"
       is_visible="true"
       lpeversion="1"
       weight="33.333333"
       steps="2"
       helper_size="0"
       apply_no_weight="true"
       apply_with_weight="true"
       only_selected="false" /></defs><g
     inkscape:label="Layer 1"
     inkscape:groupmode="layer"
     id="layer1"><g
       id="g1809"><path
         style="fill:#e49ea5;stroke-width:0.109292"
         d="m 23.615319,39.840338 c -0.166208,-0.310565 -0.621794,-2.677658 -0.928129,-4.82229 -1.051979,-7.364832 -1.050214,-13.410342 0.0051,-17.472011 0.150108,-0.577729 0.370988,-1.272295 0.490848,-1.543478 0.119859,-0.271183 0.175126,-0.443879 0.122815,-0.383769 -0.05231,0.06011 -0.425574,0.512121 -0.829476,1.004469 -3.287005,4.006783 -8.682662,6.894633 -14.2567489,7.630458 C 4.4815587,24.747185 1.5451659,23.964104 1.2508462,22.395245 1.0973852,21.577227 2.0259234,20.458183 3.8592396,19.251695 4.6617738,18.723555 4.7026672,18.678493 4.4643974,18.584858 4.3238513,18.529627 3.7038117,18.24408 3.0865312,17.950309 2.2195464,17.537701 1.8057718,17.260838 1.2678395,16.733392 0.49468779,15.975312 0.27796237,15.484954 0.44641766,14.874859 0.59437948,14.338986 1.0203355,13.997803 2.2962566,13.393172 c 1.7035959,-0.807296 3.3082092,-1.307979 5.3552879,-1.670995 1.2467354,-0.221088 5.1017385,-0.191241 6.6667875,0.05162 2.553298,0.396211 5.535697,1.182816 8.332844,2.19778 l 1.316812,0.477814 0.716229,-0.269589 c 6.532432,-2.4588 12.188908,-3.208089 16.76287,-2.220504 2.136093,0.461213 4.977853,1.62111 5.635603,2.300238 0.416344,0.429873 0.51232,0.719746 0.413216,1.248025 -0.170587,0.909188 -1.675551,2.148067 -3.40965,2.806772 l -0.906092,0.344181 0.97517,0.665969 c 1.093982,0.747107 1.982309,1.545113 2.300016,2.066165 0.125822,0.206348 0.212631,0.546105 0.212903,0.833052 3.27e-4,0.436083 -0.05219,0.535293 -0.525287,0.991287 -0.427835,0.412378 -0.707589,0.566315 -1.502761,0.826918 -0.923637,0.302704 -1.075669,0.319988 -2.780372,0.316106 -3.189235,-0.0073 -6.163031,-0.743766 -9.453743,-2.341355 -2.995942,-1.454482 -5.333709,-3.34305 -7.58139,-6.124635 -0.200837,-0.248542 -0.195985,-0.2043 0.05369,0.489664 0.317198,0.881638 0.72365,2.714463 0.933593,4.209874 0.222692,1.586223 0.190945,7.737991 -0.05245,10.164119 -0.388762,3.875071 -1.19334,8.761569 -1.50432,9.136277 -0.18013,0.217022 -0.510365,0.190405 -0.639891,-0.0516 z M 23.123283,13.265141 c -0.701303,-0.121042 -1.065537,-0.401144 -1.245523,-0.957825 -0.199825,-0.618045 0.02662,-1.368517 0.714528,-2.3680399 0.584085,-0.8486695 1.145754,-1.298469 1.498735,-1.2002253 0.356919,0.099341 1.288655,1.1429641 1.634495,1.8307722 0.582465,1.158409 0.46353,2.220701 -0.282832,2.526177 -0.483454,0.197869 -1.657075,0.283458 -2.319403,0.169141 z"
         id="path1831" /><path
         style="fill:#c37a85;stroke-width:0.109292"
         d="m 23.739096,39.951888 c -0.335719,-0.212946 -1.086477,-4.703326 -1.574081,-9.414795 -0.08771,-0.847454 -0.141433,-2.859978 -0.141507,-5.300643 -9.8e-5,-3.247579 0.03417,-4.15393 0.196272,-5.191351 0.26556,-1.699518 0.55548,-2.896345 0.943966,-3.896821 0.178532,-0.459777 0.285434,-0.791593 0.237558,-0.737369 -0.04787,0.05423 -0.375601,0.467449 -0.72828,0.918276 -3.673651,4.695993 -10.4821,7.980979 -16.6062076,8.012272 -1.6884103,0.0086 -2.6267071,-0.159333 -3.5256299,-0.63111 -0.9247163,-0.485312 -1.2285542,-0.866654 -1.2285542,-1.541934 0,-0.807506 0.7301503,-1.627876 2.5604649,-2.876843 L 4.8086984,18.653136 4.1262581,18.406121 C 1.9975275,17.635609 0.43829959,16.293218 0.43829959,15.231035 c 0,-0.669633 0.37339052,-1.081197 1.49138491,-1.643857 2.8887424,-1.453835 6.3524244,-2.179512 9.6563575,-2.023106 3.267366,0.154674 6.361637,0.818002 10.549099,2.26144 l 1.876365,0.646792 1.158565,-0.429794 c 1.520142,-0.563928 3.318458,-1.11937 4.940896,-1.526084 6.09756,-1.528542 10.90164,-1.254784 15.463844,0.8812 1.26652,0.592974 1.683202,0.923839 1.867778,1.483101 0.36344,1.101283 -1.457017,2.811997 -3.8028,3.573524 l -0.569791,0.184976 1.006959,0.670164 c 2.586408,1.721339 3.196436,3.06045 1.858907,4.080616 -2.264655,1.72731 -8.340132,1.106205 -13.420482,-1.371994 -3.092762,-1.508653 -5.739188,-3.618285 -7.480696,-5.963332 -0.631023,-0.849711 -0.72105,-0.9432 -0.524998,-0.545182 0.489071,0.992885 1.023143,3.190979 1.301176,5.355288 0.209227,1.628695 0.177111,7.172398 -0.05572,9.61766 -0.34919,3.667327 -1.214226,9.065251 -1.509816,9.421412 -0.134523,0.162077 -0.301438,0.177931 -0.506233,0.04803 z M 22.658691,13.148529 c -0.847944,-0.245331 -1.05063,-1.260803 -0.488585,-2.447861 0.335739,-0.7090913 1.305694,-1.8525073 1.647242,-1.9418241 0.778254,-0.2035179 2.41793,2.2129881 2.268856,3.3437751 -0.111854,0.84847 -0.703059,1.17109 -2.119379,1.156545 -0.527897,-0.0054 -1.116557,-0.05521 -1.308134,-0.110635 z"
         id="path1829" /><path
         style="fill:#d75c62;stroke-width:0.109292"
         d="m 23.672414,39.799556 c -0.179893,-0.277652 -0.606251,-2.442298 -0.931022,-4.726862 -1.195454,-8.409291 -1.015395,-15.240115 0.504032,-19.121297 0.140175,-0.358058 0.213674,-0.603964 0.163329,-0.546457 -0.05034,0.05751 -0.388308,0.473418 -0.751029,0.924245 -3.589514,4.461419 -9.202508,7.37213 -15.3887001,7.980064 C 4.6881627,24.562876 2.5660703,24.088079 1.6579915,23.053835 1.267294,22.608854 1.1955006,22.009418 1.4694544,21.47965 1.6930622,21.04724 2.8916814,19.955774 3.8380375,19.322813 4.2824314,19.025585 4.6619109,18.736267 4.681326,18.679884 4.7007414,18.623501 4.4661713,18.492238 4.1600592,18.388187 1.5441521,17.499013 -0.14140127,15.681428 0.6261984,14.577515 0.91669362,14.159743 1.1834773,13.972353 2.186965,13.481227 3.5525559,12.81288 5.7611578,12.114702 7.3783157,11.840149 c 1.6548502,-0.280952 4.4673673,-0.332578 6.1749753,-0.113345 2.62265,0.33671 5.843055,1.133 8.719629,2.15605 l 1.671826,0.594583 2.208777,-0.754432 c 8.063265,-2.754096 14.026356,-2.852882 19.422904,-0.321764 1.233106,0.578358 1.705006,0.951616 1.845249,1.459532 0.165729,0.600188 -0.03925,1.100135 -0.736143,1.795644 -0.687445,0.686072 -1.671378,1.278834 -2.837224,1.709264 l -0.773213,0.28547 0.790913,0.516316 c 1.943477,1.268716 2.910184,2.401262 2.755129,3.227778 -0.261053,1.39152 -2.870052,2.221775 -6.01818,1.915148 -5.057562,-0.492604 -9.936402,-2.646486 -13.465072,-5.944482 -0.767011,-0.71687 -2.12647,-2.261032 -2.564528,-2.912956 -0.100277,-0.149234 -0.01597,0.176377 0.187378,0.723573 1.449697,3.901298 1.600752,10.631277 0.422893,18.841239 -0.326963,2.27902 -0.748582,4.489254 -0.916046,4.802167 -0.157671,0.294621 -0.396382,0.286422 -0.595171,-0.02021 z M 22.567622,13.070822 c -0.791292,-0.370635 -0.92738,-1.223843 -0.378606,-2.373693 0.42644,-0.8935265 1.370506,-1.9090635 1.774706,-1.9090635 0.559501,0 1.797305,1.5746075 2.043039,2.5989435 0.157305,0.655715 -0.02013,1.266869 -0.46326,1.595751 -0.445718,0.330795 -2.338098,0.386793 -2.975879,0.08806 z"
         id="path1827" /><path
         style="fill:#955763;stroke-width:0.109292"
         d="m 23.672414,39.799556 c -0.423474,-0.6536 -1.325354,-6.9047 -1.604402,-11.12042 -0.140971,-2.129721 -0.07301,-6.853015 0.118724,-8.251516 0.275747,-2.011265 0.787542,-3.992426 1.32697,-5.136705 0.113349,-0.240442 0.144074,-0.345926 0.06828,-0.234403 -3.029374,4.457267 -8.000517,7.629012 -13.9324838,8.889363 -1.2408006,0.263629 -1.6349436,0.297237 -3.5280391,0.300839 -1.9484088,0.0037 -2.1905065,-0.01729 -2.8228608,-0.244879 -1.2974382,-0.466957 -1.9846088,-1.090799 -1.9855625,-1.80258 -0.00103,-0.769051 0.8621229,-1.721673 2.6459241,-2.920183 L 4.9112778,18.639226 4.3414855,18.454009 C 2.8256651,17.961276 1.3450944,17.004971 0.78208567,16.154983 0.25800417,15.363765 0.34045532,14.703589 1.0360419,14.121589 c 0.8558487,-0.716092 4.1930874,-1.916562 6.3422738,-2.28144 1.6548502,-0.280952 4.4673673,-0.332578 6.1749753,-0.113345 2.62265,0.33671 5.843055,1.133 8.719629,2.15605 l 1.671826,0.594583 2.208777,-0.754432 c 8.063265,-2.754096 14.026356,-2.852882 19.422904,-0.321764 1.233106,0.578358 1.705006,0.951616 1.845249,1.459532 0.165729,0.600188 -0.03925,1.100135 -0.736143,1.795644 -0.681271,0.67991 -1.640493,1.260789 -2.806488,1.699536 -0.419309,0.15778 -0.77542,0.299845 -0.791359,0.315703 -0.01593,0.01585 0.265245,0.210443 0.624888,0.432419 0.88221,0.544532 2.069257,1.521393 2.437313,2.00575 0.923473,1.215275 0.356755,2.266731 -1.557785,2.890163 -1.009112,0.328599 -3.46001,0.399325 -5.094799,0.147023 -3.108143,-0.47969 -6.056691,-1.524734 -8.765333,-3.106665 -2.012398,-1.175303 -4.320297,-3.214651 -5.643628,-4.986922 -0.851998,-1.141037 -0.877702,-1.166637 -0.655852,-0.653217 1.52292,3.524446 1.926837,8.978254 1.191932,16.09377 -0.335764,3.250937 -1.077865,7.804691 -1.356837,8.325957 -0.157671,0.294621 -0.396382,0.286422 -0.595171,-0.02021 z M 22.567622,13.070822 c -0.791292,-0.370635 -0.92738,-1.223843 -0.378606,-2.373693 0.42644,-0.8935265 1.370506,-1.9090635 1.774706,-1.9090635 0.559501,0 1.797305,1.5746075 2.043039,2.5989435 0.157305,0.655715 -0.02013,1.266869 -0.46326,1.595751 -0.445718,0.330795 -2.338098,0.386793 -2.975879,0.08806 z"
         id="path1825" /><path
         style="fill:#e82229;stroke-width:0.109292"
         d="m 23.603366,39.650446 c -0.151031,-0.397241 -0.710418,-3.59151 -0.97392,-5.561376 -1.066115,-7.969964 -0.816125,-14.438254 0.707228,-18.299063 0.203181,-0.514942 0.310487,-0.845016 0.238462,-0.733497 -0.422619,0.654346 -1.32103,1.761837 -2.037958,2.512237 -3.007933,3.148368 -7.150464,5.370623 -11.8876764,6.377126 -1.2408005,0.26363 -1.6349436,0.297238 -3.5280391,0.30084 C 4.1730537,24.25042 3.930956,24.229419 3.2986017,24.001833 2.0011651,23.534878 1.3139945,22.911036 1.3130408,22.199255 1.312008,21.428446 2.1750149,20.477652 3.9707634,19.27118 4.5010242,18.914924 4.8698835,18.604542 4.7904503,18.581442 2.2886415,17.853889 0.28727058,16.209294 0.47745762,15.037309 0.5115181,14.827419 0.67648033,14.508974 0.84404033,14.329653 1.4760831,13.653247 4.5243538,12.445997 6.8865033,11.936569 7.906936,11.7165 8.3367538,11.689159 10.766355,11.689785 c 2.36546,6.12e-4 2.920706,0.03435 4.135692,0.251252 2.210242,0.394593 4.311248,0.945612 6.789408,1.780621 1.978646,0.666698 2.336329,0.756894 2.622998,0.661429 0.182563,-0.0608 0.97129,-0.3321 1.752725,-0.602903 3.07626,-1.066056 5.502188,-1.659751 8.142224,-1.992637 1.995656,-0.251637 5.344082,-0.170863 6.940017,0.167412 1.980789,0.41985 4.724272,1.466696 5.740869,2.190577 0.655143,0.466502 0.70487,1.427806 0.112533,2.175672 -0.593063,0.748804 -2.128434,1.706927 -3.339714,2.084093 -0.240453,0.07487 -0.475809,0.171286 -0.523045,0.214263 -0.04721,0.04298 0.209368,0.260384 0.570242,0.483121 0.884223,0.545773 2.071154,1.522315 2.439567,2.007141 0.923473,1.215275 0.356756,2.26673 -1.557784,2.890162 -1.009113,0.3286 -3.46001,0.399326 -5.0948,0.147024 -3.114149,-0.480621 -6.056048,-1.524367 -8.779105,-3.114719 -1.982656,-1.157933 -4.320766,-3.225691 -5.62984,-4.978869 -0.851832,-1.140815 -0.877875,-1.16678 -0.655205,-0.653217 0.358446,0.82671 0.901148,2.733868 1.072952,3.77056 0.302922,1.827873 0.397162,3.239108 0.396707,5.940648 -6.56e-4,4.201296 -0.402493,8.453328 -1.209773,12.802862 -0.353542,1.904848 -0.394604,2.021893 -0.709302,2.021893 -0.192445,0 -0.30342,-0.08335 -0.380355,-0.285724 z M 22.856527,13.166419 c -0.20299,-0.05173 -0.498077,-0.223167 -0.65575,-0.380977 -0.649525,-0.650088 -0.19148,-2.258293 0.988132,-3.4693558 0.315065,-0.3234661 0.609924,-0.5280207 0.761125,-0.5280207 0.355423,0 1.297586,1.0178956 1.714605,1.8524245 0.54375,1.08814 0.458427,2.015558 -0.217593,2.365141 -0.408165,0.21107 -2.004403,0.310146 -2.590519,0.160788 z"
         id="path1823" /><path
         style="fill:#ea1b23;stroke-width:0.109292"
         d="m 23.603366,39.650446 c -0.151031,-0.397241 -0.710418,-3.59151 -0.97392,-5.561376 -1.066958,-7.976277 -0.814958,-14.466747 0.710485,-18.299063 0.204972,-0.514942 0.312279,-0.851897 0.238462,-0.748789 -0.07382,0.10311 -0.273114,0.386545 -0.442883,0.62986 -0.169767,0.243313 -0.353807,0.414492 -0.408978,0.380396 -0.05517,-0.03408 -0.186764,-0.0078 -0.292434,0.05843 -0.163352,0.102391 -0.153361,0.109743 0.06671,0.04909 0.191069,-0.05266 0.24472,-0.03256 0.204922,0.07675 -0.02965,0.08145 -0.12154,0.13169 -0.204191,0.111655 -0.08265,-0.02005 -0.115518,-0.0017 -0.07303,0.04081 0.136559,0.136559 -0.458236,0.807895 -0.659034,0.743847 -0.126883,-0.04047 -0.141937,-0.02852 -0.04894,0.03886 0.334642,0.242439 -3.987097,3.866171 -4.415031,3.701957 -0.07622,-0.02926 -0.172351,0.0015 -0.213619,0.06822 -0.04544,0.07352 -0.02526,0.09064 0.05115,0.04342 0.0694,-0.04289 0.12618,-0.05175 0.12618,-0.0197 0,0.103638 -0.597097,0.363221 -0.727702,0.316366 -0.06963,-0.02499 -0.163297,0.01395 -0.208147,0.08653 -0.0518,0.08381 -0.03552,0.103498 0.04463,0.05397 0.0694,-0.04289 0.126176,-0.05104 0.126176,-0.01811 0,0.06836 -1.699535,0.937526 -1.828208,0.934975 -0.04641,-8.74e-4 -0.01061,-0.04935 0.07954,-0.107617 0.09017,-0.05827 0.113392,-0.106697 0.05161,-0.107618 -0.06178,-8.74e-4 -0.19056,0.0897 -0.286178,0.201374 -0.09562,0.111674 -0.610656,0.361384 -1.144527,0.554909 -0.816784,0.296079 -1.005329,0.330414 -1.189258,0.216564 -0.197103,-0.122007 -0.203845,-0.117468 -0.06859,0.04619 0.0825,0.09982 0.107089,0.182167 0.05465,0.182986 -0.05244,8.75e-4 -0.206006,0.03117 -0.341255,0.0674 -0.152938,0.04098 -0.245906,0.01733 -0.245906,-0.06259 0,-0.07106 0.06105,-0.09402 0.136613,-0.05136 0.104707,0.05911 0.106934,0.04498 0.0095,-0.06053 -0.165959,-0.179757 -0.374778,-0.04778 -0.28687,0.181308 0.05375,0.140072 0.01776,0.164789 -0.168861,0.115984 -0.130443,-0.03412 -0.209609,-0.01741 -0.175922,0.03707 0.03369,0.05451 -0.01834,0.0991 -0.115588,0.0991 -0.09726,0 -0.14644,-0.04918 -0.109292,-0.109292 0.08549,-0.138319 -0.0592,-0.138319 -0.27323,0 -0.145722,0.09417 -0.145722,0.107341 0,0.118513 0.207195,0.01589 -0.307569,0.184413 -0.601104,0.196793 -0.1842299,0.0078 -0.1928175,-0.0093 -0.054646,-0.10871 0.136341,-0.09808 0.130241,-0.106991 -0.036255,-0.05297 -0.1101082,0.03571 -0.2576522,0.06571 -0.3278765,0.06663 -0.082344,0.0011 -0.075256,0.03489 0.019973,0.09523 0.099795,0.06324 -0.017525,0.118323 -0.3620211,0.169985 -0.3249077,0.04872 -0.5630819,0.0321 -0.6570399,-0.04589 -0.091515,-0.07595 -0.172044,-0.08242 -0.2124408,-0.01706 -0.035788,0.05789 -0.00327,0.133477 0.072237,0.167956 0.075513,0.03447 -0.071305,0.04971 -0.32626,0.03384 -0.2549555,-0.01585 -0.4793762,0.01861 -0.4987116,0.07663 -0.022499,0.06752 -0.4320242,0.06853 -1.1382445,0.0028 -0.6579053,-0.06123 -1.0782262,-0.06256 -1.0414828,-0.0033 0.076115,0.122783 -1.1661667,0.0157 -1.8680367,-0.161052 -0.2991697,-0.07533 -0.4777551,-0.17401 -0.4363038,-0.241079 0.03873,-0.06267 0.017743,-0.08114 -0.046832,-0.04123 -0.064354,0.03977 -0.2547157,0.01997 -0.4230268,-0.04403 -0.2494791,-0.09485 -0.2764148,-0.136707 -0.1457857,-0.226523 0.1241185,-0.08534 0.1086794,-0.09581 -0.068499,-0.04646 -0.4421725,0.12318 -1.1374116,-0.675261 -1.1374116,-1.306251 0,-0.500896 0.5729303,-1.43023 0.7965341,-1.292035 0.06171,0.03812 0.078549,0.0155 0.037681,-0.05061 -0.1062663,-0.171943 2.3671371,-2.104581 2.5102715,-1.961446 0.027706,0.0277 -0.086409,0.13983 -0.2535876,0.249161 -0.3461009,0.226345 -0.6263153,0.486572 -0.5239437,0.486572 0.1510568,0 0.920086,-0.693272 0.8660367,-0.780726 -0.031825,-0.05148 0.00243,-0.09361 0.076104,-0.09361 0.2499117,0 0.0021,-0.133326 -0.7108661,-0.382456 C 2.5678769,17.811984 1.0958444,16.752455 0.63515238,15.849424 0.35652317,15.303266 0.42934378,14.773457 0.84404033,14.329653 1.4760831,13.653247 4.5243538,12.445997 6.8865033,11.936569 7.906936,11.7165 8.3367538,11.689159 10.766355,11.689785 c 2.36546,6.12e-4 2.920706,0.03435 4.135692,0.251252 2.210242,0.394593 4.311248,0.945612 6.789408,1.780621 1.978646,0.666698 2.336329,0.756894 2.622998,0.661429 0.182563,-0.0608 0.97129,-0.3321 1.752725,-0.602903 3.07626,-1.066056 5.502188,-1.659751 8.142224,-1.992637 1.995656,-0.251637 5.344082,-0.170863 6.940017,0.167412 1.980789,0.41985 4.724272,1.466696 5.740869,2.190577 0.655143,0.466502 0.70487,1.427806 0.112533,2.175672 -0.593063,0.748804 -2.128434,1.706927 -3.339714,2.084093 -0.622156,0.193727 -0.673526,0.285237 -0.27562,0.490997 0.192814,0.09971 0.3226,0.20927 0.288444,0.243458 -0.0342,0.03419 -0.14941,-0.0063 -0.256075,-0.09003 -0.177387,-0.139228 -0.180768,-0.135478 -0.03979,0.04405 0.08479,0.107928 0.222152,0.170124 0.305308,0.138218 0.197593,-0.07582 1.033329,0.478064 0.942673,0.624751 -0.03847,0.06206 -0.02176,0.08321 0.03692,0.04699 0.15652,-0.09674 1.227071,0.819907 1.59182,1.363008 0.173152,0.257803 0.292718,0.553264 0.265673,0.656579 -0.0272,0.103315 -7.4e-5,0.204195 0.05988,0.224176 0.0659,0.02195 0.04057,0.200076 -0.06396,0.450272 -0.09513,0.227666 -0.219781,0.385006 -0.27698,0.349645 -0.0572,-0.03536 -0.135421,-0.01352 -0.173774,0.04856 -0.03847,0.06207 -0.109929,0.08802 -0.159085,0.05766 -0.04912,-0.03035 -0.116341,0.04824 -0.149409,0.174667 -0.05867,0.224347 -0.0537,0.223861 0.206142,-0.02028 0.146456,-0.137581 0.266256,-0.203383 0.266256,-0.146223 0,0.185353 -0.910814,0.7012 -1.639375,0.928473 -0.829954,0.258899 -2.34063,0.411362 -2.076539,0.209569 0.137402,-0.104999 0.128581,-0.116539 -0.05463,-0.07132 -0.926951,0.228746 -3.084536,0.176652 -2.931614,-0.07078 0.04535,-0.07336 5e-5,-0.08795 -0.12454,-0.04014 -0.249081,0.09558 -1.322301,-0.04176 -1.151446,-0.14735 0.08882,-0.05489 0.07228,-0.09999 -0.05453,-0.148659 -0.286948,-0.110112 -0.457287,-0.08037 -0.273456,0.04774 0.120584,0.08403 0.06278,0.09453 -0.218585,0.03968 -0.210385,-0.04101 -0.397174,-0.112549 -0.415084,-0.158969 -0.01791,-0.04642 -0.14086,-0.06076 -0.27323,-0.03186 -0.200438,0.04375 -0.213261,0.0312 -0.07673,-0.07509 0.134107,-0.104392 0.113784,-0.116819 -0.111686,-0.0683 -0.298099,0.06413 -1.378539,-0.24333 -2.811931,-0.800169 -0.79326,-0.308163 -0.944243,-0.417203 -0.922405,-0.666161 0.0028,-0.03221 -0.0861,-0.05855 -0.197616,-0.05855 -0.111515,0 -0.178083,0.03992 -0.147929,0.08871 0.03015,0.04879 -0.216731,-0.04448 -0.548634,-0.207257 -0.331902,-0.16278 -0.578945,-0.335629 -0.548983,-0.384104 0.02996,-0.04847 -0.01096,-0.06303 -0.09096,-0.03233 -0.07999,0.0307 -0.242378,-0.02269 -0.360875,-0.118649 -0.118498,-0.09595 -0.141677,-0.138331 -0.05151,-0.09418 0.09017,0.04415 0.126047,0.03859 0.07974,-0.01232 -0.04631,-0.05093 -0.176112,-0.09938 -0.288455,-0.107657 -0.315791,-0.02327 -1.357554,-0.728492 -1.21044,-0.819414 0.08691,-0.05371 0.07053,-0.09914 -0.0528,-0.146464 -0.115785,-0.04443 -0.152164,-0.02553 -0.103242,0.05362 0.04589,0.07425 0.01593,0.100565 -0.07629,0.06705 -0.08351,-0.03035 -0.138315,-0.114146 -0.121796,-0.186239 0.01651,-0.07209 -0.01523,-0.103095 -0.07059,-0.06889 -0.05534,0.0342 -0.192845,-0.02363 -0.305572,-0.128492 -0.112727,-0.10487 -0.157192,-0.153788 -0.09882,-0.108705 0.05838,0.04508 0.154885,0.08197 0.214462,0.08197 0.05958,0 0.01341,-0.06941 -0.102621,-0.154247 -0.116018,-0.08483 -0.250459,-0.129825 -0.298752,-0.09998 -0.135836,0.08395 -1.291806,-0.950961 -1.210016,-1.0833 0.0445,-0.072 0.02036,-0.08492 -0.06273,-0.03357 -0.207743,0.12839 -0.786769,-0.477797 -0.720081,-0.753862 0.02988,-0.12365 0.02607,-0.16334 -0.0084,-0.0882 -0.03451,0.07514 -0.100141,0.136613 -0.14585,0.136613 -0.04571,0 -0.410864,-0.388394 -0.811459,-0.863098 -0.522275,-0.618908 -0.709729,-0.92041 -0.662521,-1.065609 0.05027,-0.154617 0.04029,-0.166624 -0.04222,-0.05078 -0.08496,0.119282 -0.172036,0.05504 -0.407354,-0.300552 -0.371525,-0.561412 -0.436695,-0.575125 -0.201596,-0.04242 0.34455,0.780713 0.892994,2.709672 1.06428,3.743237 0.302922,1.827873 0.397162,3.239108 0.396707,5.940648 -6.56e-4,4.201296 -0.402493,8.453328 -1.209773,12.802862 -0.353542,1.904848 -0.394604,2.021893 -0.709303,2.021893 -0.192444,0 -0.303415,-0.08335 -0.380353,-0.285724 z M 6.9684721,24.122842 c -0.1051927,-0.02747 -0.2773261,-0.02747 -0.3825226,0 -0.1051926,0.02747 -0.019118,0.04998 0.1912593,0.04998 0.2103853,0 0.296452,-0.0225 0.1912633,-0.04998 z m 34.4450689,0.03637 c -0.121082,-0.103549 -0.760584,-0.166286 -0.700273,-0.0687 0.03653,0.0592 0.219354,0.107645 0.406168,0.107645 0.186791,0 0.319141,-0.01753 0.294117,-0.03895 z M 4.3727969,24.046648 c 0,-0.02324 -0.1449444,-0.06351 -0.3221021,-0.08952 -0.1771578,-0.026 -0.2972058,-0.007 -0.26678,0.04224 0.054157,0.08762 0.5888818,0.130551 0.5888821,0.04727 z M 44.11036,23.894896 c 0.01554,-0.07664 0.0031,-0.08863 -0.02759,-0.02666 -0.0307,0.06199 -0.09738,0.08701 -0.148204,0.0556 -0.05083,-0.0314 -0.126211,-0.0024 -0.167556,0.06447 -0.04678,0.07568 -0.0015,0.107299 0.119994,0.08375 0.107326,-0.02079 0.207812,-0.100534 0.223317,-0.177177 z m -35.0676245,0.01865 c -0.036332,-0.03633 -0.1305825,-0.0402 -0.209476,-0.0086 -0.087186,0.03489 -0.061287,0.06079 0.066031,0.06603 0.1152102,0.0047 0.1797612,-0.0211 0.1434445,-0.0574 z M 39.517851,23.765351 c 0.473225,-0.236117 0.455855,-0.29564 -0.02798,-0.096 -0.169227,0.06982 -0.344554,0.118999 -0.389633,0.109292 -0.04508,-0.0097 -0.08195,0.03151 -0.08195,0.09164 0,0.14386 0.0017,0.143503 0.499621,-0.104936 z M 8.3366971,23.689306 c -0.073994,-0.02992 -0.2215375,-0.03175 -0.3278765,-0.004 -0.1063389,0.02771 -0.045798,0.05221 0.1345344,0.05443 0.1803324,0.0022 0.2673356,-0.02044 0.1933382,-0.05038 z M 36.613817,23.384923 c 0,-0.0265 -0.04918,-0.07859 -0.109293,-0.115743 -0.06011,-0.03715 -0.109292,-0.01547 -0.109292,0.0482 0,0.06366 0.04918,0.115743 0.109292,0.115743 0.06011,0 0.109293,-0.02168 0.109293,-0.0482 z M 2.4055482,23.214556 c 0,-0.06011 -0.052084,-0.109292 -0.1157418,-0.109292 -0.063658,0 -0.085346,0.04918 -0.048196,0.109292 0.037152,0.06011 0.089234,0.109292 0.1157414,0.109292 0.026509,0 0.048196,-0.04918 0.048196,-0.109292 z M 1.7275391,22.78236 c -0.073372,-0.117487 -0.1545687,-0.192448 -0.1804377,-0.166581 -0.046842,0.04684 0.1913401,0.380192 0.2716512,0.380192 0.023206,0 -0.017844,-0.09612 -0.091214,-0.213611 z m 33.3015489,0.104322 c -0.03715,-0.06011 -0.126121,-0.108538 -0.197709,-0.107617 -0.07821,9.84e-4 -0.06473,0.04396 0.03377,0.107617 0.209962,0.135689 0.247798,0.135689 0.163942,0 z M 3.1159435,22.777389 c 0.037152,-0.06011 0.018364,-0.109292 -0.041746,-0.109292 -0.06011,0 -0.1396874,0.04918 -0.1768376,0.109292 -0.037152,0.06011 -0.018364,0.109292 0.041746,0.109292 0.06011,0 0.1396873,-0.04918 0.1768376,-0.109292 z m 41.8586815,0 c 0.0373,-0.06011 -0.03381,-0.109292 -0.157492,-0.109292 -0.123763,0 -0.225027,0.04918 -0.225027,0.109292 0,0.06011 0.07088,0.109292 0.157492,0.109292 0.08662,0 0.187879,-0.04918 0.225027,-0.109292 z m -31.367462,-0.10804 c 0.03828,-0.06195 -0.0056,-0.08027 -0.102842,-0.04295 -0.18934,0.07266 -0.223982,0.150995 -0.06677,0.150995 0.05656,0 0.132891,-0.04862 0.169616,-0.108041 z m 20.930113,-0.0013 c -0.09017,-0.05827 -0.213117,-0.105943 -0.27323,-0.105943 -0.06011,0 -0.03552,0.04768 0.05465,0.105943 0.09017,0.05827 0.213121,0.105943 0.27323,0.105943 0.06011,0 0.03552,-0.04767 -0.05465,-0.105943 z M 14.318332,22.291964 c 0,-0.0223 -0.09836,-0.01484 -0.218585,0.01659 -0.120219,0.03144 -0.218584,0.102336 -0.218584,0.15755 0,0.05546 0.09782,0.04804 0.218584,-0.01659 0.120219,-0.06434 0.218585,-0.135237 0.218585,-0.15755 z m 19.781778,0.15755 c 0,-0.06011 -0.07668,-0.109292 -0.170389,-0.109292 -0.09371,0 -0.13999,-0.04918 -0.102842,-0.109292 0.07451,-0.120561 -0.08552,-0.151274 -0.198669,-0.03812 -0.03914,0.03914 0.01414,0.135937 0.1184,0.215107 0.229107,0.173975 0.3535,0.188617 0.3535,0.04161 z M 15.138019,22.012348 c 0.03715,-0.06011 0.01547,-0.109292 -0.0482,-0.109292 -0.06366,0 -0.115742,0.04918 -0.115742,0.109292 0,0.06011 0.02168,0.109292 0.04819,0.109292 0.0265,0 0.07859,-0.04918 0.115743,-0.109292 z m 0.540024,-0.276704 c 0.116683,-0.08825 0.162967,-0.160461 0.102857,-0.160461 -0.06011,0 -0.204759,0.07221 -0.321442,0.160461 -0.116682,0.08825 -0.162966,0.16046 -0.102857,0.16046 0.06011,0 0.204759,-0.07221 0.321442,-0.16046 z m 16.618755,-0.05117 c -0.03715,-0.06011 -0.126121,-0.108539 -0.197709,-0.107618 -0.07821,9.84e-4 -0.06473,0.04396 0.03377,0.107618 0.209962,0.135688 0.247798,0.135688 0.163942,0 z m 14.08844,-0.02732 c -0.13064,-0.229616 -0.40166,-0.519135 -0.485986,-0.519135 -0.04387,0 0.04982,0.145629 0.208202,0.323618 0.310204,0.348627 0.401407,0.412808 0.277796,0.195518 z M 1.9472746,21.080478 c -0.033651,-0.03365 -0.094761,0.02701 -0.1358035,0.134791 -0.059311,0.155762 -0.046757,0.168317 0.061181,0.06118 0.074692,-0.07414 0.1082721,-0.162326 0.074623,-0.195973 z M 45.441178,20.536912 c -0.282304,-0.270499 -0.575165,-0.491813 -0.650837,-0.491813 -0.07566,0 -0.01593,0.08205 0.132661,0.182346 0.148632,0.100288 0.289531,0.197461 0.313118,0.215942 0.0237,0.0185 -0.02565,0.118 -0.109307,0.221156 -0.08397,0.103507 -0.09435,0.152868 -0.02332,0.110151 0.07099,-0.04257 0.158618,-0.02957 0.194756,0.02891 0.03614,0.05847 0.132934,0.08051 0.21508,0.04898 0.08214,-0.03151 0.181855,-0.0048 0.221529,0.05942 0.03967,0.06421 0.105267,0.116741 0.145757,0.116741 0.04049,0 -0.157336,-0.221316 -0.43964,-0.491812 z m -14.838399,0.218584 c -0.07483,-0.09017 -0.188617,-0.163938 -0.252853,-0.163938 -0.06424,0 -0.02133,0.07221 0.09535,0.16046 0.274155,0.207359 0.327693,0.20854 0.157503,0.0035 z M 2.6241314,20.743722 c 0,-0.09045 -0.2122147,-0.141603 -0.2608696,-0.06288 -0.031564,0.05107 0.014218,0.09286 0.1017397,0.09286 0.087521,0 0.1591299,-0.01348 0.1591299,-0.03 z M 17.487788,20.56185 c 0,-0.05086 0.05678,-0.05739 0.12618,-0.01449 0.07641,0.04722 0.09658,0.03008 0.05114,-0.04342 -0.04127,-0.06677 -0.155297,-0.09061 -0.253398,-0.05296 -0.128806,0.04943 -0.153508,0.02821 -0.08891,-0.0763 0.05997,-0.09703 0.04728,-0.118681 -0.03851,-0.06567 -0.07038,0.0435 -0.102263,0.120666 -0.07085,0.171489 0.0314,0.05082 -0.0047,0.116181 -0.08019,0.145247 -0.07551,0.02907 -0.02666,0.04739 0.108613,0.04072 0.135249,-0.0067 0.245905,-0.05374 0.245905,-0.104602 z M 3.8263389,20.306635 c 0,-0.227156 -0.1848322,-0.183825 -0.2481126,0.05816 -0.038586,0.147602 -0.00979,0.193047 0.096547,0.152246 0.083362,-0.03198 0.1515659,-0.126669 0.1515659,-0.210409 z M 3.498464,19.751457 c 0,-0.07592 -0.6393216,0.397226 -0.7257953,0.537143 -0.042161,0.06822 0.1038956,-0.01368 0.3245697,-0.181999 0.2206741,-0.168318 0.4012256,-0.328133 0.4012256,-0.355144 z m 15.08224,0.222583 c 0,-0.02526 -0.0919,0.0033 -0.204215,0.06337 -0.112315,0.06011 -0.23527,0.07824 -0.27323,0.04028 -0.03796,-0.03796 -0.06902,0.0141 -0.06902,0.115657 0,0.171861 0.01896,0.172254 0.273231,0.0056 0.150275,-0.09847 0.27323,-0.199691 0.27323,-0.224945 z m -9.1804939,0.02285 c 0,-0.0265 -0.049183,-0.07859 -0.1092921,-0.115742 -0.06011,-0.03715 -0.1092922,-0.01547 -0.1092922,0.04819 0,0.06366 0.049183,0.115743 0.1092922,0.115743 0.06011,0 0.1092921,-0.02168 0.1092921,-0.0482 z m 9.4977759,-0.21227 c 0.09565,-0.115257 0.09116,-0.164334 -0.01892,-0.206573 -0.08585,-0.03295 -0.15068,0.02833 -0.159936,0.151173 -0.01857,0.246329 0.01243,0.255927 0.178845,0.0554 z m 25.467457,-0.131783 c -0.07037,-0.08482 -0.208046,-0.151088 -0.305851,-0.14728 -0.11708,0.0045 -0.09143,0.04159 0.07503,0.108368 0.152129,0.06102 0.221607,0.152082 0.174356,0.228539 -0.05001,0.08091 -0.0307,0.09757 0.05292,0.04584 0.100682,-0.06222 0.101498,-0.11739 0.0035,-0.235468 z M 4.3867377,19.525964 c 0.1359448,-0.173342 0.1320785,-0.177208 -0.041263,-0.04126 -0.1051926,0.0825 -0.1912593,0.168566 -0.1912593,0.191259 0,0.08995 0.08975,0.03206 0.2325227,-0.149996 z m 5.7238673,-0.08407 c 0.06011,-0.02211 -0.2367813,-0.03629 -0.6597597,-0.03159 -0.4229785,0.0047 -0.8779045,-0.02596 -1.010947,-0.0682 -0.1396909,-0.04434 -0.2418953,-0.03054 -0.2418953,0.03264 0,0.06017 0.1352493,0.12522 0.3005515,0.14456 0.3325239,0.0389 1.4403448,-0.0143 1.6120505,-0.07739 z m 3.03614,-0.02312 c -0.253654,-0.02293 -0.696286,-0.0232 -0.983625,-6.01e-4 -0.287336,0.02258 -0.0798,0.04134 0.461192,0.04168 0.540993,3.28e-4 0.776088,-0.01815 0.522433,-0.04107 z m 21.66376,-0.02942 c -0.300823,-0.129269 -0.407767,-0.129269 -0.327876,0 0.03715,0.06011 0.1753,0.105834 0.307002,0.10161 0.230863,-0.0074 0.231613,-0.01104 0.02087,-0.10161 z m 1.176387,0.03237 c -0.134421,-0.02596 -0.380327,-0.02662 -0.546457,-0.0015 -0.16613,0.0251 -0.05615,0.04635 0.244401,0.04717 0.300552,8.19e-4 0.436477,-0.01974 0.302056,-0.04567 z m 3.167955,-0.0031 c -0.255453,-0.023 -0.673511,-0.023 -0.92898,0 -0.255468,0.023 -0.04645,0.04183 0.46449,0.04183 0.510937,0 0.719958,-0.01881 0.46449,-0.04183 z M 39.9501,19.301171 c -0.03381,-0.03365 -0.12182,-6.9e-5 -0.195961,0.07462 -0.107132,0.10794 -0.09458,0.120491 0.0612,0.06118 0.107793,-0.04104 0.16845,-0.102154 0.134799,-0.135805 z M 28.379002,19.18922 c -0.09961,-0.110073 -0.154464,-0.226779 -0.121897,-0.25935 0.03256,-0.03256 -0.04749,-0.08712 -0.177904,-0.121225 -0.216296,-0.05656 -0.210082,-0.03377 0.07076,0.25935 0.332948,0.347519 0.526584,0.45001 0.229041,0.121229 z M 7.3145621,19.24062 C 7.2894991,19.21894 7.0477083,19.16905 6.777212,19.129777 c -0.3436762,-0.0499 -0.4424339,-0.03851 -0.3278765,0.03777 0.1474119,0.09816 0.9748961,0.168058 0.865225,0.07308 z m 7.5229049,-0.0359 c -0.105193,-0.02747 -0.277326,-0.02747 -0.382523,0 -0.105192,0.02747 -0.01912,0.04998 0.19126,0.04998 0.210385,0 0.296452,-0.0225 0.191263,-0.04998 z m 18.716185,0.03264 c 0,-0.02347 -0.172133,-0.06278 -0.382519,-0.08735 -0.210385,-0.02456 -0.382522,-0.0054 -0.382522,0.04269 0,0.04804 0.172133,0.08735 0.382522,0.08735 0.210386,0 0.382519,-0.0192 0.382519,-0.04269 z m 8.032932,-0.07041 c 0.142764,-0.06382 0.0101,-0.07498 -0.382519,-0.03217 -0.330604,0.03606 -0.621597,0.0835 -0.646645,0.105414 -0.0968,0.08467 0.822276,0.01923 1.029164,-0.07325 z M 5.8937714,19.022528 c -0.025063,-0.02141 -0.2176711,-0.07053 -0.4280587,-0.109137 -0.2691231,-0.04938 -0.3339228,-0.03835 -0.2185843,0.03727 0.1481579,0.09712 0.7550329,0.164568 0.6466419,0.07186 z m 10.0933366,-0.03276 c -0.07399,-0.02992 -0.221537,-0.03175 -0.327876,-0.004 -0.106339,0.02771 -0.0458,0.05221 0.134534,0.05443 0.180333,0.0022 0.267336,-0.02044 0.193342,-0.05038 z m 3.854943,-0.139625 c -0.03962,-0.06411 -0.120258,-0.116563 -0.17919,-0.116563 -0.05893,0 -0.04374,0.06881 0.03377,0.152915 0.156905,0.170256 0.257559,0.145096 0.145418,-0.03633 z m 11.373217,-0.08696 c -0.111095,-0.111096 -0.202765,0.05617 -0.111612,0.203651 0.06886,0.111414 0.0946,0.111499 0.13162,4.37e-4 0.0253,-0.07593 0.01632,-0.167778 -0.02001,-0.204094 z m 0.535073,0.188982 c 0.03715,-0.06011 -0.0091,-0.109292 -0.102842,-0.109292 -0.09371,0 -0.170389,0.04918 -0.170389,0.109292 0,0.06011 0.04628,0.109292 0.102842,0.109292 0.05656,0 0.133237,-0.04918 0.170389,-0.109292 z m 0.462212,0.04326 c -0.03633,-0.03633 -0.130582,-0.0402 -0.209476,-0.0086 -0.08718,0.03489 -0.06129,0.06079 0.06603,0.06603 0.11521,0.0047 0.179761,-0.0211 0.143444,-0.0574 z m 10.412302,-0.04825 c 0.119722,-0.08102 0.0755,-0.09116 -0.163942,-0.03761 -0.401858,0.08989 -0.489091,0.152444 -0.209484,0.15021 0.115214,-9.2e-4 0.283237,-0.0516 0.373426,-0.112611 z m -26.150291,-0.06102 c -0.03633,-0.03633 -0.130582,-0.0402 -0.209476,-0.0086 -0.08719,0.03489 -0.06129,0.06079 0.06603,0.06603 0.11521,0.0047 0.179761,-0.0211 0.143444,-0.0574 z m 0.773567,-0.167412 c 0.282086,-0.06828 0.556765,-0.163802 0.610396,-0.212266 0.05363,-0.04846 -0.192277,-0.01267 -0.546458,0.07955 -0.354183,0.09221 -0.66446,0.187735 -0.689507,0.212266 -0.07353,0.07202 0.08017,0.05247 0.625569,-0.07955 z m 10.601251,-0.261262 c -0.03365,-0.03365 -0.09476,0.02701 -0.135805,0.134791 -0.05931,0.155762 -0.04676,0.168317 0.06118,0.06118 0.07469,-0.07414 0.10827,-0.162326 0.07462,-0.195973 z m 0.421843,0.11699 c 0,-0.08752 -0.04179,-0.133303 -0.09286,-0.101738 -0.05107,0.03155 -0.06456,0.103172 -0.03,0.159131 0.08837,0.142994 0.122838,0.126895 0.122838,-0.05739 z m 2.57746,0.08675 c -0.07514,-0.03031 -0.19809,-0.03031 -0.27323,0 -0.07514,0.03031 -0.01368,0.05512 0.136613,0.05512 0.150276,0 0.211753,-0.02479 0.136617,-0.05512 z m -12.18453,-0.356809 c 0.104377,-0.05572 0.282883,-0.130652 0.396681,-0.16651 0.113796,-0.03587 0.183624,-0.08847 0.155176,-0.116924 -0.02844,-0.02844 -0.318283,0.04289 -0.64407,0.158525 -0.361434,0.12829 -0.495905,0.213366 -0.344954,0.218238 0.136065,0.0044 0.332788,-0.03761 0.437167,-0.09333 z m 10.955,-0.02604 c -0.527143,-0.218973 -0.874333,-0.29557 -0.874333,-0.192891 0,0.05591 0.120052,0.10166 0.26678,0.10166 0.146728,0 0.297175,0.04918 0.334327,0.109292 0.03715,0.06011 0.1753,0.106176 0.307002,0.102364 0.226733,-0.0066 0.224937,-0.01294 -0.03377,-0.120425 z m -8.470099,-0.446707 c 0.240442,-0.253595 0.32961,-0.370904 0.198145,-0.260683 -0.134382,0.112673 -0.297272,0.164401 -0.372085,0.118163 -0.07773,-0.04804 -0.104889,-0.03664 -0.06531,0.0274 0.03727,0.0603 -0.03081,0.215437 -0.151309,0.344761 -0.120483,0.129323 -0.180259,0.234306 -0.132836,0.233296 0.04743,-0.001 0.282953,-0.209329 0.523393,-0.462925 z m -0.655749,0.246181 c 0.03715,-0.06011 0.01838,-0.109292 -0.04175,-0.109292 -0.06011,0 -0.139687,0.04918 -0.176835,0.109292 -0.03715,0.06011 -0.01838,0.109293 0.04175,0.109293 0.06011,0 0.139687,-0.04918 0.176836,-0.109293 z M 19.99833,17.75424 c 0.260181,-0.164544 0.08271,-0.199303 -0.215418,-0.04219 -0.150598,0.07936 -0.199649,0.143965 -0.109292,0.14393 0.09017,-3.4e-5 0.236284,-0.04582 0.32471,-0.101738 z m 7.107118,-0.0043 c 0,-0.06011 -0.05209,-0.109292 -0.115743,-0.109292 -0.06366,0 -0.08535,0.04918 -0.04819,0.109292 0.03715,0.06011 0.08923,0.109292 0.115742,0.109292 0.0265,0 0.0482,-0.04918 0.0482,-0.109292 z m 0.813253,-0.160456 c -0.116682,-0.08825 -0.263997,-0.162026 -0.327367,-0.163938 -0.06337,-0.0019 -0.346161,-0.149936 -0.628426,-0.328943 -0.282266,-0.179008 -0.51321,-0.304323 -0.51321,-0.27848 0,0.101143 0.978277,0.713239 1.139931,0.713239 0.09436,0 0.17157,0.04918 0.17157,0.109292 0,0.06011 0.08317,0.109292 0.184825,0.109292 0.161167,0 0.15767,-0.02056 -0.02732,-0.160461 z m -1.509344,-0.2609 c -0.111128,-0.122794 -0.154189,-0.279192 -0.109172,-0.396505 0.07318,-0.190697 -0.305639,-0.595781 -0.560882,-0.599774 -0.06011,-9.4e-4 0.02635,0.08773 0.192142,0.197057 0.165788,0.109323 0.270809,0.22939 0.233377,0.266818 -0.03742,0.03742 -0.196719,-0.01547 -0.353973,-0.117518 -0.189394,-0.122923 -0.121509,-0.0103 0.201075,0.333561 0.456907,0.487062 0.796686,0.757527 0.397433,0.316361 z M 21.531577,17.046 c 0,-0.0265 -0.04918,-0.07859 -0.109293,-0.115743 -0.06011,-0.03715 -0.109292,-0.01546 -0.109292,0.0482 0,0.06366 0.04918,0.115742 0.109292,0.115742 0.06011,0 0.109293,-0.02168 0.109293,-0.04819 z m 0.562862,-0.363125 c 0.07401,0.01585 0.153373,-0.05727 0.176377,-0.162462 0.05095,-0.232989 -0.252142,-0.261075 -0.378613,-0.03509 -0.04807,0.0859 -0.135351,0.15598 -0.19396,0.155739 -0.05861,-2.41e-4 -0.125776,0.05721 -0.149262,0.127668 -0.03206,0.09619 0.0138,0.09786 0.184102,0.0067 0.124742,-0.06676 0.287347,-0.108421 0.361352,-0.09258 z m -0.07105,-0.13514 c -0.03715,-0.06011 -0.01547,-0.109293 0.0482,-0.109293 0.06366,0 0.115743,0.04918 0.115743,0.109293 0,0.06011 -0.02168,0.109292 -0.0482,0.109292 -0.0265,0 -0.07859,-0.04918 -0.115743,-0.109292 z m 3.473907,-0.329579 c -0.05417,-0.207148 -0.249803,-0.419219 -0.249803,-0.27079 0,0.09293 0.216342,0.491078 0.266842,0.491078 0.02231,0 0.01465,-0.09913 -0.01702,-0.220287 z m -2.640769,-3.051737 c -0.20299,-0.05173 -0.498077,-0.223167 -0.65575,-0.380977 -0.649525,-0.650088 -0.19148,-2.258293 0.988132,-3.4693558 0.315065,-0.3234661 0.609924,-0.5280207 0.761125,-0.5280207 0.355423,0 1.297586,1.0178956 1.714605,1.8524245 0.54375,1.08814 0.458427,2.015558 -0.217593,2.365141 -0.408165,0.21107 -2.004403,0.310146 -2.590519,0.160788 z"
         id="path1821" /><path
         style="fill:#d12630;stroke-width:0.109292"
         d="m 23.603366,39.650446 c -0.151031,-0.397241 -0.710418,-3.59151 -0.97392,-5.561376 -1.066958,-7.976277 -0.814958,-14.466747 0.710485,-18.299063 0.204972,-0.514942 0.312279,-0.851897 0.238462,-0.748789 -0.07382,0.10311 -0.273114,0.386545 -0.442883,0.62986 -0.169767,0.243313 -0.355964,0.41316 -0.413768,0.377435 -0.05781,-0.03571 -0.353002,0.09413 -0.655995,0.288556 -0.429098,0.275352 -0.538319,0.401613 -0.494003,0.571077 0.0414,0.158323 0.02413,0.184809 -0.06341,0.09726 -0.08755,-0.08755 -0.345902,-0.0015 -0.948818,0.316196 -1.728875,0.910867 -4.11902,1.614718 -6.678348,1.966645 -1.061758,0.146 -4.7285596,0.196412 -5.4645792,0.07513 -0.7953245,-0.131056 -2.8619064,-0.439555 -3.3070826,-0.49368 -0.3086533,-0.03754 -0.4014662,-0.01309 -0.3731111,0.09824 0.02075,0.0815 0.017253,0.111697 -0.00781,0.0671 -0.025063,-0.0446 -0.1413229,-0.02984 -0.2583789,0.0328 -0.117056,0.06265 -0.1860562,0.157216 -0.1533378,0.21016 0.032718,0.05294 0.00191,0.131845 -0.068472,0.175339 -0.079916,0.04939 -0.09868,0.03171 -0.049979,-0.04709 0.1014856,-0.164206 -0.072614,-0.163351 -0.2371312,0.0012 -0.096935,0.09694 -0.082581,0.163628 0.06011,0.279257 0.1658073,0.134368 0.1580279,0.137597 -0.067372,0.02798 -0.2147723,-0.104458 -0.3216359,-0.07973 -0.6798623,0.157333 -0.270946,0.179302 -0.4030726,0.338508 -0.364454,0.439147 0.033321,0.08683 0.00878,0.246928 -0.054532,0.355773 -0.063313,0.108845 -0.1166095,0.136423 -0.118437,0.06128 -0.00587,-0.241336 -0.3292035,-0.146192 -0.6627566,0.195029 -0.3620909,0.370414 -0.4233565,0.600609 -0.132931,0.499469 0.1716772,-0.05979 0.1733966,-0.05259 0.01679,0.07028 -0.095958,0.07529 -0.1617859,0.222948 -0.146285,0.328144 0.016398,0.111278 -0.041925,0.19126 -0.1394662,0.19126 -0.1319281,0 -0.1403802,-0.03287 -0.039668,-0.154209 0.076562,-0.09225 0.086539,-0.179819 0.024834,-0.217954 -0.1239276,-0.07659 -0.2353422,0.18144 -0.2353422,0.545039 0,0.178207 0.062297,0.264837 0.1912601,0.265964 0.1614591,0.0014 0.1660156,0.01764 0.029241,0.10412 -0.1351763,0.08547 -0.1080172,0.159412 0.1639375,0.446284 0.4714816,0.497348 1.2210663,0.831748 1.8063388,0.805833 0.296825,-0.01313 0.4043759,0.0089 0.2755347,0.05645 -0.3162346,0.116741 -0.09118,0.198122 0.7872777,0.284682 0.5810728,0.05726 0.790196,0.0435 0.790196,-0.052 0,-0.07142 -0.038003,-0.106378 -0.084439,-0.07768 -0.046439,0.02872 -0.353822,0.01313 -0.6830724,-0.03455 -0.5882022,-0.08524 -0.5523925,-0.09828 0.4111143,-0.149751 0.3533362,-0.01889 0.5365768,0.160488 0.3961236,0.387745 C 5.4027964,24.3884 4.048075,24.238383 3.2633894,23.974042 2.0250104,23.556862 1.3139929,22.909846 1.3130408,22.199255 1.312008,21.428446 2.1750149,20.477652 3.9707634,19.27118 4.5010242,18.914924 4.8698835,18.604542 4.7904503,18.581442 2.2886415,17.853889 0.28727058,16.209294 0.47745762,15.037309 0.5115181,14.827419 0.67648033,14.508974 0.84404033,14.329653 1.4760831,13.653247 4.5243538,12.445997 6.8865033,11.936569 7.906936,11.7165 8.3367538,11.689159 10.766355,11.689785 c 2.36546,6.12e-4 2.920706,0.03435 4.135692,0.251252 2.210242,0.394593 4.311248,0.945612 6.789408,1.780621 1.978646,0.666698 2.336329,0.756894 2.622998,0.661429 0.182563,-0.0608 0.97129,-0.3321 1.752725,-0.602903 3.07626,-1.066056 5.502188,-1.659751 8.142224,-1.992637 1.995656,-0.251637 5.344082,-0.170863 6.940017,0.167412 1.980789,0.41985 4.724272,1.466696 5.740869,2.190577 0.655143,0.466502 0.70487,1.427806 0.112533,2.175672 -0.593063,0.748804 -2.128434,1.706927 -3.339714,2.084093 -0.240453,0.07487 -0.475809,0.171286 -0.523045,0.214263 -0.04721,0.04298 0.208085,0.259595 0.567406,0.481371 0.975679,0.602225 2.19105,1.632495 2.541705,2.154609 0.369423,0.550047 0.370434,0.55909 0.09159,0.811451 -0.123957,0.112179 -0.218576,0.143169 -0.218576,0.07158 0,-0.06943 0.03917,-0.12623 0.08704,-0.12623 0.187879,0 0.0633,-0.576828 -0.16437,-0.761156 -0.1327,-0.107435 -0.216517,-0.220084 -0.186246,-0.250339 0.03031,-0.03027 -0.227048,-0.306407 -0.571808,-0.613678 -0.606341,-0.540423 -0.635372,-0.553062 -0.888824,-0.386995 -0.297108,0.194667 -0.29571,0.195246 -0.407827,-0.168566 -0.07803,-0.253129 -0.07216,-0.25766 0.104528,-0.08096 0.15858,0.158568 0.388115,0.169293 0.388115,0.01815 0,-0.02468 -0.274999,-0.22076 -0.611133,-0.435775 -0.520227,-0.332788 -0.638092,-0.369862 -0.792366,-0.249262 -0.164991,0.128989 -0.166701,0.123211 -0.01865,-0.06456 0.153762,-0.195235 0.142104,-0.2032 -0.218576,-0.149429 -0.209562,0.03124 -1.09413,0.164518 -1.965732,0.296173 -1.644426,0.248388 -5.493851,0.380762 -6.174975,0.212339 -0.180478,-0.04461 -0.770653,-0.136806 -1.311646,-0.204902 -0.540994,-0.0681 -1.101618,-0.152895 -1.245832,-0.188443 -0.201184,-0.04959 -0.243811,-0.02914 -0.183157,0.08792 0.05463,0.105414 0.03435,0.101291 -0.06567,-0.01333 -0.0796,-0.09126 -0.538168,-0.269201 -1.019051,-0.395432 -1.033907,-0.271401 -2.399965,-0.775202 -3.186416,-1.175149 -0.527007,-0.268008 -0.912019,-0.288569 -0.912019,-0.04871 0,0.05723 0.04918,0.07365 0.109292,0.03649 0.06011,-0.03715 0.109293,-0.01135 0.109293,0.0573 0,0.06867 -0.06148,0.104221 -0.136614,0.07901 -0.07514,-0.02522 -0.136679,-0.139967 -0.136761,-0.255014 -1.09e-4,-0.235476 -0.192588,-0.243333 -0.226942,-0.0092 -0.02957,0.201417 0.573359,0.766846 0.663013,0.621784 0.03785,-0.06121 0.04049,-0.15708 0.0059,-0.213035 -0.03458,-0.05596 -0.0053,-0.137328 0.06508,-0.180822 0.08379,-0.05179 0.09855,-0.03148 0.04274,0.0588 -0.06392,0.10342 -0.02032,0.11767 0.174375,0.05701 0.251225,-0.07827 0.253421,-0.07396 0.06809,0.133777 -0.105325,0.118058 -0.156003,0.250149 -0.112622,0.29353 0.04338,0.04338 -0.0057,0.04642 -0.109055,0.0068 -0.28073,-0.107726 -0.228886,0.01104 0.167268,0.383094 0.195359,0.183488 0.416084,0.310701 0.490501,0.2827 0.07442,-0.02802 0.123599,0.0088 0.109292,0.08177 -0.0143,0.07297 0.03548,0.120386 0.110601,0.10536 0.07514,-0.01504 0.124319,0.03416 0.109293,0.109292 -0.01504,0.07514 0.03268,0.124808 0.106028,0.11038 0.07334,-0.01442 0.186468,0.07301 0.251388,0.194321 0.06492,0.121307 0.154803,0.197834 0.199742,0.170063 0.04493,-0.02778 0.153128,-0.0053 0.240422,0.04991 0.137927,0.08725 0.137496,0.100627 -0.0033,0.10208 -0.08909,8.74e-4 0.01896,0.124625 0.240108,0.274901 0.43824,0.297793 0.578999,0.342996 0.457899,0.147051 -0.05068,-0.082 -0.02969,-0.09634 0.0599,-0.04096 0.101424,0.06268 0.118393,0.02378 0.06417,-0.14705 -0.05292,-0.166756 -0.0272,-0.23227 0.09114,-0.23227 0.09067,0 0.192503,0.04474 0.226302,0.09943 0.08413,0.136135 -0.04983,0.459137 -0.161743,0.389972 -0.218324,-0.13493 -0.193494,0.168796 0.02638,0.32281 0.294322,0.206153 0.456896,0.222365 0.348956,0.03482 -0.04568,-0.07937 -0.03692,-0.09845 0.02087,-0.04554 0.05472,0.05009 0.101727,0.148453 0.104458,0.218584 0.0027,0.07013 0.06421,0.11521 0.136614,0.100184 0.0724,-0.01504 0.131647,0.02188 0.131647,0.08197 0,0.06011 0.04918,0.109292 0.109292,0.109292 0.06011,0 0.109292,-0.07667 0.109292,-0.170389 0,-0.09371 0.05157,-0.138517 0.1146,-0.09956 0.07908,0.04887 0.07696,0.116182 -0.0068,0.217155 -0.09641,0.116166 0.03202,0.222408 0.62312,0.515414 0.436686,0.216471 0.874354,0.357588 1.058449,0.341275 0.288288,-0.02553 0.297428,-0.01578 0.112051,0.11978 -0.175502,0.128333 -0.287755,0.104482 -0.860345,-0.18278 -1.839029,-0.922661 -3.654001,-2.203679 -5.097738,-3.598047 -0.986187,-0.952465 -2.014664,-2.146375 -1.925647,-2.235392 0.03474,-0.03474 0.14651,0.06407 0.248392,0.219559 0.101882,0.155491 0.265649,0.286594 0.363929,0.291339 0.127361,0.0061 0.136711,0.02537 0.03256,0.06693 -0.103902,0.04145 -0.04279,0.164944 0.211427,0.427225 0.327476,0.337867 0.373364,0.354634 0.54514,0.199179 0.124517,-0.112684 0.211749,-0.130614 0.259513,-0.05333 0.03957,0.06403 0.130521,0.115319 0.202113,0.113983 0.07159,-0.0013 0.0094,-0.09525 -0.138242,-0.208703 -0.240628,-0.184926 -0.281316,-0.188617 -0.39316,-0.03567 -0.09971,0.136365 -0.142465,0.14196 -0.212969,0.02786 -0.05831,-0.09434 -0.04544,-0.116294 0.03796,-0.06475 0.07363,0.04551 0.12618,0.01072 0.12618,-0.08349 0,-0.08881 -0.184428,-0.275115 -0.409843,-0.414011 -0.225396,-0.138983 -0.515706,-0.366342 -0.645119,-0.505325 -0.162076,-0.174064 -0.249787,-0.209227 -0.28186,-0.112999 -0.02642,0.07932 -0.179019,-0.06044 -0.35301,-0.323365 -0.378365,-0.571748 -0.445093,-0.588762 -0.208746,-0.05322 0.344551,0.780713 0.892995,2.709672 1.064281,3.743237 0.302922,1.827874 0.397162,3.239108 0.396706,5.940649 -6.55e-4,4.201295 -0.402492,8.453328 -1.209772,12.80286 -0.353542,1.904849 -0.394604,2.021894 -0.709302,2.021894 -0.192445,0 -0.30342,-0.08335 -0.380355,-0.285724 z M 2.8427146,20.43105 c 0,-0.101548 -0.063585,-0.136105 -0.173101,-0.09408 -0.139371,0.05348 -0.1446953,0.08443 -0.027321,0.158833 0.194115,0.123048 0.200424,0.121012 0.200424,-0.06475 z m 3.989143,3.751634 c 0.240442,-0.05481 0.4986429,-0.10653 0.5737808,-0.114938 0.1862039,-0.02083 0.1716282,-0.09176 -0.054646,-0.265859 -0.1643618,-0.126468 -0.1413073,-0.130501 0.1639382,-0.02868 0.1953589,0.06517 0.3551976,0.159738 0.3551976,0.210156 0,0.05042 0.1598387,0.111511 0.3551976,0.135755 l 0.3551975,0.04408 -0.4007361,0.01749 c -0.2329618,0.01018 -0.4238143,-0.03971 -0.4558609,-0.119123 -0.032913,-0.08161 -0.058598,-0.05961 -0.063754,0.05465 -0.00723,0.160519 -0.1096341,0.189239 -0.6370548,0.178693 l -0.6284268,-0.01255 z m 33.0060594,0.0155 c -0.411701,-0.07371 -0.416889,-0.07918 -0.08906,-0.09378 0.191454,-0.0085 0.477049,-0.06454 0.634673,-0.12447 0.17999,-0.06844 0.262292,-0.06963 0.221219,-0.0032 -0.06248,0.101101 0.10888,0.163483 0.708619,0.257943 0.150264,0.02366 -0.02176,0.04276 -0.382519,0.04241 -0.360641,-3.28e-4 -0.852475,-0.03587 -1.092917,-0.0789 z m 2.52324,0.01543 c -0.04181,-0.06764 -0.03109,-0.203461 0.02409,-0.301822 0.07542,-0.134772 0.120732,-0.145438 0.183837,-0.04329 0.04752,0.07688 0.01865,0.18013 -0.06684,0.238565 -0.09889,0.06764 0.03692,0.08236 0.39584,0.04286 0.300567,-0.03307 0.669411,-0.07266 0.819687,-0.08795 0.150264,-0.01527 0.377428,-0.08753 0.504766,-0.16053 0.127338,-0.07301 0.258872,-0.105387 0.292329,-0.07196 0.03342,0.03342 0.169343,0.02631 0.302044,-0.01578 0.193163,-0.06131 0.211154,-0.09803 0.09019,-0.184226 -0.117934,-0.08404 -0.109696,-0.09438 0.03769,-0.04715 0.23548,0.07554 0.85077,-0.17443 1.084809,-0.4407 0.09683,-0.110155 0.278068,-0.397007 0.402794,-0.637449 0.289454,-0.558061 0.307057,-0.378885 0.02098,0.212344 -0.262214,0.541679 -0.888661,0.970448 -1.860979,1.27376 -0.875168,0.273005 -2.12304,0.397929 -2.230945,0.223337 z M 8.8537521,23.979612 c 0.1502757,-0.04813 0.4207728,-0.08659 0.6011037,-0.08547 l 0.3278765,0.002 -0.3278765,0.08343 c -0.1803324,0.04589 -0.4508276,0.08435 -0.6011037,0.08547 l -0.2732304,0.002 z m 29.6180209,0 -0.382519,-0.08052 0.437165,-0.0067 c 0.240453,-0.0037 0.53553,0.03556 0.655749,0.08722 0.198059,0.08512 0.19293,0.0933 -0.05463,0.08722 -0.150264,-0.0037 -0.445363,-0.04294 -0.655749,-0.08722 z m 4.262374,0 c 0,-0.06011 0.05207,-0.109293 0.115759,-0.109293 0.06365,0 0.08533,0.04918 0.04818,0.109293 -0.0373,0.06011 -0.08922,0.109292 -0.115759,0.109292 -0.02642,0 -0.04818,-0.04918 -0.04818,-0.109292 z M 8.1546145,23.888521 c -0.03097,-0.05009 0.013173,-0.09108 0.098035,-0.09108 0.084878,0 0.1289932,0.04098 0.098035,0.09108 -0.03097,0.05009 -0.075074,0.09108 -0.098035,0.09108 -0.022965,0 -0.067077,-0.04098 -0.098035,-0.09108 z m 34.9744125,-0.0382 c 0.03148,-0.05107 0.103168,-0.06456 0.159124,-0.03 0.142997,0.08838 0.12691,0.122838 -0.05739,0.122838 -0.08751,0 -0.133283,-0.04179 -0.10173,-0.09286 z M 6.2102617,23.795647 c 0.078893,-0.03155 0.1731593,-0.02771 0.209476,0.0086 0.036332,0.03633 -0.02825,0.06214 -0.1434445,0.0574 -0.1273184,-0.0052 -0.1532173,-0.03113 -0.066031,-0.06603 z m 0.3483663,0.02386 c 0,-0.02794 0.1106561,-0.109762 0.2459054,-0.181832 0.2229792,-0.118813 0.2319204,-0.114076 0.095909,0.0508 C 6.760787,23.857769 6.558628,23.935264 6.558628,23.819502 Z m 2.3440001,-0.04916 c 0.033962,-0.05498 -6.2e-6,-0.123735 -0.075521,-0.152797 -0.075513,-0.02907 -0.029144,-0.04758 0.1030399,-0.04114 0.183445,0.0089 0.2126157,0.0451 0.1232305,0.152798 -0.1339087,0.16135 -0.2435351,0.191267 -0.1507537,0.04114 z m 1.0986849,-0.0093 c 0.120219,-0.05166 0.341535,-0.09248 0.491812,-0.09071 l 0.27323,0.0032 -0.27323,0.0875 c -0.150276,0.04813 -0.371592,0.08895 -0.491812,0.09071 l -0.2185842,0.0032 z m 27.487937,0.01177 c -0.14967,-0.04166 -0.223442,-0.105772 -0.163938,-0.142473 0.0595,-0.03672 0.255732,-0.0017 0.436065,0.07776 0.347395,0.153093 0.184544,0.191819 -0.272127,0.06471 z m 3.605523,-0.06641 c -0.150264,-0.0859 -0.221141,-0.157935 -0.157492,-0.160064 0.06365,-0.0021 0.211194,0.06834 0.327884,0.15659 0.269831,0.204094 0.183644,0.205855 -0.170353,0.0035 z M 10.859458,23.371553 c -0.01496,-0.258573 -0.0017,-0.266935 0.172542,-0.109214 0.103801,0.09394 0.258631,0.174255 0.344064,0.178483 0.09242,0.0046 0.06681,0.04572 -0.06325,0.10161 -0.35737,0.153567 -0.436318,0.123809 -0.453353,-0.170879 z m 26.061741,0.205509 c 0.07889,-0.03155 0.173159,-0.02771 0.209476,0.0086 0.03633,0.03633 -0.02825,0.06215 -0.143445,0.0574 -0.127318,-0.0052 -0.153217,-0.03113 -0.06603,-0.06603 z M 35.79413,23.311281 c -1.063141,-0.339367 -2.677645,-0.981765 -2.677645,-1.065414 0,-0.04256 0.09602,-0.07739 0.213378,-0.07739 0.117359,0 0.190268,0.02312 0.162022,0.05136 -0.09053,0.09053 1.069716,0.571605 1.23014,0.510044 0.08496,-0.0326 0.127617,-0.01581 0.09478,0.0373 -0.08839,0.143025 0.242039,0.237765 0.576161,0.165201 0.236992,-0.05147 0.261045,-0.03939 0.127929,0.06423 -0.136089,0.105931 -0.122135,0.118451 0.08212,0.07368 0.135331,-0.02965 0.218495,-0.0093 0.184809,0.04517 -0.03369,0.05451 0.01251,0.0991 0.10269,0.0991 0.245202,0 0.315752,-0.191143 0.112525,-0.304873 -0.246753,-0.138089 0.03793,-0.243391 0.33754,-0.124851 0.193875,0.07671 0.196237,0.08735 0.02087,0.09417 -0.10874,0.0042 -0.169413,0.05346 -0.134833,0.10942 0.03458,0.05596 0.0033,0.138553 -0.06948,0.183543 -0.08519,0.05265 0.0018,0.130275 0.244122,0.217818 0.594416,0.214757 0.118964,0.15328 -0.607142,-0.0785 z m -27.0701615,0.0472 c 0.078893,-0.03155 0.1731592,-0.02771 0.209476,0.0086 0.036332,0.03633 -0.02825,0.06215 -0.1434445,0.0574 -0.1273184,-0.0052 -0.1532173,-0.03113 -0.066031,-0.06603 z m 2.8620735,0.02973 c 0,-0.02471 0.410568,-0.172899 0.912374,-0.329291 0.952946,-0.296996 1.876919,-0.706836 1.61044,-0.714331 -0.08516,-0.0024 -0.129184,-0.03 -0.09784,-0.06135 0.03136,-0.03136 0.170117,-0.01515 0.308382,0.03598 0.234077,0.08659 0.218234,0.106479 -0.23004,0.288746 -0.614585,0.249893 -2.297902,0.825164 -2.414533,0.825164 -0.04883,0 -0.08879,-0.02021 -0.08879,-0.04494 z m 26.940377,-0.0851 c -0.240442,-0.0577 -0.644139,-0.130602 -0.897107,-0.162015 -0.252966,-0.0314 -0.508386,-0.115486 -0.567599,-0.186833 -0.183872,-0.221553 1.584696,0.05908 1.812617,0.287623 0.104917,0.105193 0.167906,0.185606 0.140006,0.178693 -0.02798,-0.0069 -0.247448,-0.05977 -0.487909,-0.117468 z M 5.3017752,23.214556 c 0.037148,-0.06011 0.089234,-0.109292 0.1157426,-0.109292 0.026501,0 0.048196,0.04918 0.048196,0.109292 0,0.06011 -0.052085,0.109292 -0.1157426,0.109292 -0.063657,0 -0.085348,-0.04918 -0.048196,-0.109292 z m 37.1044958,0.0034 c 0,-0.05823 0.07375,-0.07755 0.163942,-0.04295 0.09015,0.03458 0.163942,0.08224 0.163942,0.105861 0,0.02363 -0.07379,0.04295 -0.163942,0.04295 -0.09015,0 -0.163942,-0.04764 -0.163942,-0.105861 z M 2.7353972,23.052998 c -0.088181,-0.106254 -0.05004,-0.138995 0.1619122,-0.138995 0.3442921,0 0.4545796,0.146934 0.1667776,0.222198 -0.1173346,0.0307 -0.2652451,-0.0068 -0.3286898,-0.08321 z m 6.3911069,0.05149 c -0.098054,-0.158658 0.2249532,-0.253744 0.5688022,-0.167444 0.2310539,0.05799 0.2604694,0.09554 0.1363685,0.174053 -0.2117686,0.133975 -0.6206556,0.130144 -0.7051722,-0.0066 z m 2.0223719,0.02036 c 0,-0.04632 0.182574,-0.09652 0.405722,-0.111546 0.477772,-0.03217 0.452297,0.03245 -0.05052,0.128154 -0.195358,0.03719 -0.355197,0.02973 -0.355197,-0.01659 z m 33.661811,-0.128896 c 0.211893,-0.136932 0.327884,-0.136932 0.327884,0 0,0.06011 -0.110668,0.108538 -0.245894,0.107617 -0.198836,-0.0014 -0.214535,-0.02195 -0.08195,-0.107617 z M 1.8590902,22.841143 c 0,-0.09518 0.07787,-0.173047 0.173045,-0.173047 0.193001,0 0.1593899,0.235278 -0.043261,0.302829 -0.071381,0.02378 -0.129784,-0.03462 -0.129784,-0.129782 z m 10.2195378,0.04679 c -0.03828,-0.06195 0.0056,-0.08027 0.102842,-0.04295 0.189339,0.07266 0.223981,0.150991 0.06677,0.150991 -0.05656,0 -0.13289,-0.04862 -0.169615,-0.108037 z m 33.600999,-0.0624 c -0.104956,-0.126444 -0.09446,-0.157441 0.05312,-0.157441 0.101069,0 0.159512,-0.03924 0.129863,-0.08719 -0.02953,-0.04796 -0.01438,-0.151298 0.03419,-0.229655 0.05945,-0.09619 0.104023,-0.03373 0.137169,0.192285 0.0551,0.375462 -0.144746,0.534525 -0.354346,0.281997 z m -34.201498,-0.05131 c 0.199827,-0.126344 0.326497,-0.134138 0.326497,-0.02009 0,0.04732 -0.110039,0.09432 -0.24453,0.104454 -0.192177,0.01449 -0.209729,-0.0036 -0.08197,-0.08436 z m 1.037993,0.0014 c 0.03777,-0.06109 0.114429,-0.08278 0.170389,-0.0482 0.151593,0.09369 0.123324,0.159271 -0.06865,0.159271 -0.09371,0 -0.139496,-0.04998 -0.101742,-0.111075 z m 2.076212,-0.543424 c -0.03966,-0.06417 0.0094,-0.07882 0.120771,-0.03606 0.137313,0.05269 0.163581,0.03318 0.09808,-0.07278 -0.05577,-0.09024 -0.04694,-0.11847 0.02343,-0.07497 0.06209,0.03839 0.263963,-0.0056 0.448596,-0.09769 0.234866,-0.117168 0.31782,-0.223325 0.276196,-0.353445 -0.05082,-0.158848 -0.04205,-0.162061 0.0601,-0.02203 0.106312,0.145721 0.131558,0.145721 0.227219,0 0.05919,-0.09017 0.108371,-0.128271 0.109292,-0.08467 8.74e-4,0.04359 0.124626,0.03252 0.274901,-0.02464 0.550167,-0.209173 0.25072,0.0089 -0.598666,0.435943 -0.970387,0.4879 -0.947118,0.480509 -1.039923,0.330346 z m 18.722242,-0.840951 c 0.07889,-0.03155 0.17316,-0.02771 0.209476,0.0086 0.03633,0.03633 -0.02825,0.06215 -0.143444,0.0574 -0.127319,-0.0052 -0.153217,-0.03113 -0.06603,-0.06603 z M 14.86479,21.313668 c 0,-0.02363 0.07377,-0.07126 0.163938,-0.105861 0.09017,-0.03458 0.163938,-0.01527 0.163938,0.04295 0,0.05823 -0.07377,0.105861 -0.163938,0.105861 -0.09017,0 -0.163938,-0.01931 -0.163938,-0.04295 z m 1.226822,-0.08554 c 0.0192,-0.09259 -0.06085,-0.134954 -0.222226,-0.117581 -0.145523,0.01566 -0.223717,-0.019 -0.184808,-0.08197 0.09679,-0.156617 0.334641,-0.134445 0.483635,0.04508 0.08976,0.108154 0.09295,0.17586 0.01069,0.226706 -0.06452,0.03988 -0.103794,0.0074 -0.08728,-0.07224 z m 0.679347,-0.02549 c 0.116682,-0.09565 0.257951,-0.173901 0.313934,-0.173901 0.05598,0 0.03427,-0.08607 -0.04821,-0.19126 -0.130544,-0.16646 -0.128737,-0.174772 0.01395,-0.06412 0.128402,0.09958 0.216233,0.08475 0.405196,-0.0684 0.132693,-0.107548 0.206465,-0.23412 0.163938,-0.281274 -0.04253,-0.04715 -0.01267,-0.0484 0.06633,-0.0028 0.08789,0.05076 0.374258,-0.07015 0.737718,-0.311467 0.560548,-0.372181 0.771697,-0.593042 0.448333,-0.468956 -0.08015,0.03074 -0.145721,-0.01049 -0.145721,-0.0917 0,-0.106012 0.05324,-0.119123 0.188893,-0.04652 0.186903,0.100029 0.503482,-0.112704 0.368541,-0.247646 -0.06764,-0.06764 0.495679,-0.494897 0.660258,-0.500792 0.05861,-0.0021 0.126463,-0.06353 0.150792,-0.13652 0.02802,-0.08404 -0.0072,-0.100895 -0.09612,-0.04596 -0.09272,0.0573 -0.113516,0.04331 -0.06127,-0.04122 0.0435,-0.07038 0.137161,-0.09892 0.208147,-0.06343 0.07099,0.03548 0.03505,-0.01181 -0.07987,-0.105154 -0.12571,-0.102099 -0.310725,-0.14414 -0.464489,-0.10555 -0.162889,0.04088 -0.255558,0.01597 -0.255558,-0.06869 0,-0.07306 0.07318,-0.10475 0.162625,-0.07043 0.08945,0.03431 0.157394,0.02728 0.150994,-0.01562 -0.04021,-0.269745 0.112949,-0.202563 0.610294,0.267708 0.103203,0.09759 0.208112,0.06845 0.451072,-0.125282 l 0.316592,-0.252441 -0.27201,-0.236401 -0.27201,-0.236401 0.310619,0.189593 0.31062,0.189592 0.588463,-0.647594 c 0.323653,-0.356177 0.589619,-0.711973 0.591035,-0.790659 0.0014,-0.07868 0.05175,-0.112669 0.111864,-0.07552 0.06011,0.03715 0.109292,-0.0091 0.109292,-0.102842 0,-0.09371 0.04918,-0.170389 0.109292,-0.170389 0.229655,0 0.0788,0.211602 -0.876638,1.229608 -1.03665,1.104531 -2.198534,2.114488 -3.385731,2.943004 -0.741941,0.517782 -1.959413,1.221255 -1.591162,0.919397 z m 3.121244,-2.253209 c 0,-0.05741 -0.09836,-0.02017 -0.218585,0.08278 -0.120219,0.102935 -0.218584,0.202548 -0.218584,0.221359 0,0.01881 0.09836,-0.01846 0.218584,-0.08278 0.120223,-0.06434 0.218585,-0.16395 0.218585,-0.221359 z M 31.55908,21.20448 c -0.217418,-0.165045 -0.262991,-0.342584 -0.05465,-0.21288 0.07514,0.04678 0.242575,0.07136 0.372082,0.05464 0.129506,-0.01671 0.263267,0.01457 0.297244,0.06955 0.03396,0.05498 -0.07198,0.07862 -0.235468,0.05254 -0.232783,-0.03715 -0.261693,-0.02223 -0.133306,0.06876 0.09017,0.0639 0.114755,0.115362 0.05465,0.114371 -0.06011,-9.83e-4 -0.195359,-0.06714 -0.300552,-0.146989 z m 13.530324,-0.621783 c 0.02759,-0.04496 -0.01127,-0.103801 -0.08677,-0.130761 -0.0755,-0.02697 -0.108298,-0.08064 -0.07286,-0.119298 0.03536,-0.03866 0.146301,0.02021 0.24636,0.130761 0.150264,0.166056 0.154189,0.20104 0.02254,0.20104 -0.08778,0 -0.136858,-0.0368 -0.109075,-0.08174 z M 16.987847,20.297105 c 0.01593,-0.10855 0.06526,-0.189161 0.109622,-0.179143 0.165975,0.0375 0.172312,0.118478 0.0192,0.24554 -0.128333,0.106506 -0.152394,0.09411 -0.128838,-0.0664 z m -6.084877,0.0035 c 0.07514,-0.03031 0.19809,-0.03031 0.27323,0 0.07514,0.03031 0.01368,0.05512 -0.136613,0.05512 -0.150276,0 -0.211753,-0.02479 -0.136614,-0.05512 z m 19.536645,-0.03567 c -0.03828,-0.06195 0.0056,-0.08028 0.102842,-0.04295 0.18934,0.07266 0.223982,0.150995 0.06677,0.150995 -0.05656,0 -0.132891,-0.04862 -0.169616,-0.108041 z m 6.476028,0.03074 c 0.135948,-0.02615 0.332675,-0.02514 0.437166,0.0022 0.104493,0.02736 -0.0068,0.04874 -0.24718,0.04753 -0.240442,-0.0012 -0.325934,-0.02359 -0.189985,-0.04974 z M 3.5410609,19.846372 c 0.085255,-0.08525 0.2089126,-0.121699 0.2747886,-0.08098 0.2043778,0.126312 0.1323311,0.235997 -0.1550125,0.235997 -0.2372245,0 -0.2535993,-0.02118 -0.11978,-0.155013 z m 40.1220621,0.08944 c -0.0373,-0.06011 -0.01554,-0.109292 0.04818,-0.109292 0.06365,0 0.115758,0.04918 0.115758,0.109292 0,0.06011 -0.02176,0.109292 -0.04818,0.109292 -0.02642,0 -0.07857,-0.04918 -0.115758,-0.109292 z M 11.122827,19.749219 c 0.135949,-0.02615 0.332675,-0.02514 0.437166,0.0022 0.104494,0.02736 -0.0068,0.04874 -0.247179,0.04753 -0.240442,-0.0012 -0.325934,-0.02359 -0.189985,-0.04974 z m 24.616657,-0.03198 c -0.444131,-0.06906 -0.454727,-0.07714 -0.109292,-0.08332 0.210385,-0.0038 0.628427,0.03148 0.928979,0.07827 0.516891,0.08051 0.522805,0.08502 0.109292,0.0833 -0.240442,-9.83e-4 -0.658482,-0.03622 -0.928979,-0.07827 z M 9.5389046,19.641487 c 0.106339,-0.02771 0.2538791,-0.02588 0.3278765,0.004 0.073993,0.02992 -0.013018,0.05261 -0.1933421,0.05038 -0.1803325,-0.0022 -0.2408733,-0.02673 -0.1345344,-0.05443 z m 34.0673804,-0.09084 c -0.07605,-0.09162 -0.117079,-0.187743 -0.0912,-0.213614 0.02604,-0.02588 0.107054,0.04909 0.180418,0.166576 0.158658,0.254074 0.105733,0.28197 -0.08922,0.04703 z m -3.440492,-0.052 c 0.0373,-0.06011 0.08922,-0.109292 0.115758,-0.109292 0.02642,0 0.04818,0.04918 0.04818,0.109292 0,0.06011 -0.05207,0.109293 -0.115758,0.109293 -0.06365,0 -0.08533,-0.04918 -0.04818,-0.109293 z M 5.1924838,19.061475 c -0.037148,-0.06011 -0.015465,-0.109292 0.048196,-0.109292 0.063657,0 0.1157426,0.04918 0.1157426,0.109292 0,0.06011 -0.021683,0.109292 -0.048196,0.109292 -0.026501,0 -0.07859,-0.04918 -0.1157426,-0.109292 z M 42.58257,19.041465 c 0.03148,-0.05107 0.103168,-0.06456 0.159124,-0.03 0.142997,0.08838 0.12691,0.122838 -0.05739,0.122838 -0.08751,0 -0.133322,-0.04179 -0.10173,-0.09286 z M 30.056321,18.788246 c 0,-0.09017 0.01931,-0.163938 0.04295,-0.163938 0.02362,0 0.07126,0.07377 0.105861,0.163938 0.03458,0.09017 0.01527,0.163938 -0.04295,0.163938 -0.05823,0 -0.105861,-0.07377 -0.105861,-0.163938 z m -11.858138,-0.05464 c -0.182131,-0.07826 -0.158276,-0.09521 0.143064,-0.10161 0.214881,-0.0045 0.334238,0.03668 0.294101,0.10161 -0.07874,0.127407 -0.140666,0.127407 -0.437165,0 z m 9.423874,-0.284865 c -0.0354,-0.0354 -0.03793,-0.133345 -0.0056,-0.217636 0.07918,-0.206333 0.433155,-0.195071 0.51429,0.01636 0.03882,0.101183 0.01958,0.141482 -0.04774,0.09989 -0.06206,-0.03835 -0.176676,-0.01675 -0.254711,0.04802 -0.07803,0.06477 -0.170855,0.08878 -0.206266,0.05337 z m 0.633924,-0.240411 c -0.0284,-0.02841 -0.02685,-0.09185 0.0035,-0.14095 0.06287,-0.101726 0.376052,-0.0074 0.376052,0.11324 0,0.08776 -0.297757,0.109499 -0.379549,0.02771 z m -7.72197,-0.321734 c -0.135945,-0.173342 -0.132078,-0.177209 0.04126,-0.04126 0.182054,0.142776 0.239949,0.232523 0.149996,0.232523 -0.02269,0 -0.108763,-0.08607 -0.191259,-0.191259 z m 0.519769,-0.522023 c -0.04183,-0.109004 -0.02192,-0.145072 0.0541,-0.09808 0.06614,0.04088 0.163189,0.0065 0.215659,-0.07629 0.05516,-0.08709 0.0961,-0.09863 0.09707,-0.0274 8.74e-4,0.06778 -0.06635,0.179691 -0.149502,0.248695 -0.116858,0.09698 -0.166192,0.08633 -0.21733,-0.04694 z m 0.587088,-0.531878 c 0,-0.02362 0.07633,-0.07224 0.169616,-0.108041 0.09726,-0.0373 0.141128,-0.019 0.102841,0.04295 -0.06418,0.103848 -0.272453,0.153602 -0.272453,0.06509 z m 1.215659,-3.666271 c -0.20299,-0.05173 -0.498077,-0.223167 -0.65575,-0.380977 -0.649525,-0.650088 -0.19148,-2.258293 0.988132,-3.4693558 0.315065,-0.3234661 0.609924,-0.5280207 0.761125,-0.5280207 0.355423,0 1.297586,1.0178956 1.714605,1.8524245 0.54375,1.08814 0.458427,2.015558 -0.217593,2.365141 -0.408165,0.21107 -2.004403,0.310146 -2.590519,0.160788 z"
         id="path1819" /><path
         style="fill:#e9191d;stroke-width:0.109292"
         d="m 23.603366,39.650446 c -0.151031,-0.397241 -0.710418,-3.59151 -0.97392,-5.561376 -1.066698,-7.974333 -0.812919,-14.509045 0.710157,-18.286209 0.399912,-0.991765 0.398421,-0.99295 -0.35704,-0.283815 -0.133669,0.125471 -0.536382,0.441751 -0.89492,0.702844 -0.572167,0.416663 -0.638606,0.502368 -0.5433,0.700849 0.09848,0.205082 0.09443,0.20867 -0.04343,0.03854 -0.141021,-0.17403 -0.234311,-0.147083 -1.290206,0.372688 -1.396768,0.687567 -1.332974,0.662166 -2.668275,1.062443 -2.656903,0.796448 -5.488885,1.060346 -8.9072651,0.830021 C 7.6719699,19.161531 5.2945985,18.795741 4.919255,18.654687 4.8290892,18.620803 4.4504054,18.482768 4.0777353,18.347942 2.5389628,17.79124 1.0888896,16.738822 0.63515238,15.849424 0.35652317,15.303266 0.42934378,14.773457 0.84404033,14.329653 1.4760831,13.653247 4.5243538,12.445997 6.8865033,11.936569 7.906936,11.7165 8.3367538,11.689159 10.766355,11.689785 c 2.36546,6.12e-4 2.920706,0.03435 4.135692,0.251252 2.210242,0.394593 4.311248,0.945612 6.789408,1.780621 1.978646,0.666698 2.336329,0.756894 2.622998,0.661429 0.182563,-0.0608 0.97129,-0.3321 1.752725,-0.602903 3.07626,-1.066056 5.502188,-1.659751 8.142224,-1.992637 1.995656,-0.251637 5.344082,-0.170863 6.940017,0.167412 1.980789,0.41985 4.724272,1.466696 5.740869,2.190577 0.655143,0.466502 0.70487,1.427806 0.112533,2.175672 -0.824016,1.040425 -2.937828,2.137568 -4.815134,2.499232 -1.739446,0.335105 -4.195623,0.560566 -5.540152,0.508551 -2.723292,-0.105357 -4.829222,-0.443048 -6.755152,-1.083208 -1.394508,-0.46352 -2.186668,-0.82848 -3.278405,-1.510407 -0.481071,-0.30049 -0.933988,-0.547598 -1.006482,-0.549129 -0.07249,-0.0015 -0.10856,-0.0404 -0.08015,-0.08637 0.05714,-0.09246 -1.154723,-1.118088 -1.230998,-1.041813 -0.02627,0.02627 0.05156,0.242365 0.172915,0.480243 0.546399,1.071029 1.086989,3.444824 1.32143,5.80255 0.144762,1.455854 0.144202,5.967159 -9.84e-4,7.939385 -0.205784,2.795375 -0.623737,6.08583 -1.096688,8.634037 -0.353542,1.904848 -0.394604,2.021893 -0.709302,2.021893 -0.192445,0 -0.30342,-0.08335 -0.380357,-0.285724 z M 5.4657127,24.100654 c 0,-0.07368 -0.038003,-0.110473 -0.084439,-0.08177 -0.046439,0.02872 -0.353822,0.01313 -0.6830725,-0.03454 -0.5882021,-0.08524 -0.5523924,-0.09828 0.4111144,-0.149751 0.3232407,-0.01725 0.569551,0.186884 0.413614,0.342821 -0.031475,0.03148 -0.057218,-0.0031 -0.057218,-0.07674 z m 36.8737453,-0.07411 c 0.03692,-0.09576 0.0668,-0.197585 0.0668,-0.22627 0,-0.02868 0.04919,-0.02176 0.109308,0.01539 0.162194,0.10025 0.132623,0.240897 -0.0668,0.31742 -0.128892,0.04946 -0.158191,0.02091 -0.109269,-0.106537 z M 7.3848839,23.850323 c -0.2075214,-0.197426 -0.2046265,-0.199125 0.1366132,-0.08017 0.1917451,0.06684 0.3486306,0.157705 0.3486306,0.201918 0,0.149421 -0.2719209,0.08119 -0.4852438,-0.12175 z m 32.7764131,0.122002 c -0.03963,-0.06411 -0.04251,-0.146079 -0.0066,-0.182151 0.03614,-0.03606 0.06559,-0.0025 0.06559,0.07466 0,0.08648 0.08386,0.118323 0.218732,0.08306 0.120305,-0.03148 0.191182,-0.01259 0.157492,0.0419 -0.08374,0.135506 -0.347352,0.124933 -0.435362,-0.01745 z m 2.57285,0.0073 c 0,-0.06011 0.05207,-0.109292 0.115759,-0.109292 0.06365,0 0.08533,0.04918 0.04818,0.109292 -0.0373,0.06011 -0.08922,0.109292 -0.115759,0.109292 -0.02642,0 -0.04818,-0.04918 -0.04818,-0.109292 z M 3.6917408,23.851895 c 0.06351,-0.06351 0.1799827,-0.09397 0.2588296,-0.06769 0.081854,0.02728 0.03233,0.07683 -0.1154706,0.115471 -0.1817896,0.04754 -0.2244596,0.0333 -0.143359,-0.04779 z m 4.4628737,0.03664 c -0.03097,-0.05009 0.013173,-0.09108 0.098035,-0.09108 0.084878,0 0.1289932,0.04098 0.098035,0.09108 -0.03097,0.05009 -0.075074,0.09108 -0.098035,0.09108 -0.022965,0 -0.067077,-0.04098 -0.098035,-0.09108 z m 34.9744125,-0.0382 c 0.03148,-0.05107 0.103168,-0.06456 0.159124,-0.03 0.142997,0.08837 0.12691,0.122838 -0.05739,0.122838 -0.08751,0 -0.133283,-0.04179 -0.10173,-0.09286 z M 6.2102617,23.795647 c 0.078893,-0.03155 0.1731593,-0.02771 0.209476,0.0086 0.036332,0.03633 -0.02825,0.06214 -0.1434445,0.0574 -0.1273184,-0.0052 -0.1532173,-0.03113 -0.066031,-0.06603 z m 0.3483663,0.02386 c 0,-0.02794 0.1106561,-0.109762 0.2459054,-0.181832 0.2229792,-0.118813 0.2319204,-0.114076 0.095909,0.0508 C 6.760787,23.857769 6.558628,23.935264 6.558628,23.819502 Z m 2.3440001,-0.04916 c 0.033962,-0.05498 -6.2e-6,-0.123735 -0.075521,-0.152797 -0.075513,-0.02907 -0.029144,-0.04758 0.1030399,-0.04114 0.183445,0.0089 0.2126157,0.0451 0.1232305,0.152798 -0.1339087,0.16135 -0.2435351,0.191267 -0.1507537,0.04114 z m 32.1921449,-0.06398 c -0.150264,-0.0859 -0.221141,-0.157935 -0.157492,-0.160064 0.06365,-0.0021 0.211194,0.06833 0.327884,0.15659 0.269831,0.204094 0.183644,0.205854 -0.170353,0.0035 z M 8.7239685,23.358481 c 0.078893,-0.03155 0.1731592,-0.02771 0.209476,0.0086 0.036332,0.03633 -0.02825,0.06215 -0.1434445,0.0574 -0.1273184,-0.0052 -0.1532173,-0.03113 -0.066031,-0.06603 z m 2.1471845,-0.0419 c -0.117628,-0.190323 0.01636,-0.23063 0.166238,-0.05002 0.0862,0.103872 0.0945,0.166581 0.02203,0.166581 -0.06392,0 -0.148644,-0.05245 -0.188264,-0.116563 z m 27.655266,-0.01348 c -0.240442,-0.0577 -0.644139,-0.130602 -0.897107,-0.162015 -0.252966,-0.0314 -0.508386,-0.115486 -0.567599,-0.186834 -0.183872,-0.221553 1.584696,0.05908 1.812617,0.287624 0.104917,0.105192 0.167906,0.185605 0.140006,0.178692 -0.02798,-0.0069 -0.247448,-0.05978 -0.487909,-0.117467 z M 5.3017752,23.214556 c 0.037148,-0.06011 0.089234,-0.109292 0.1157426,-0.109292 0.026501,0 0.048196,0.04918 0.048196,0.109292 0,0.06011 -0.052085,0.109292 -0.1157426,0.109292 -0.063657,0 -0.085348,-0.04918 -0.048196,-0.109292 z m 37.1044958,0.0034 c 0,-0.05823 0.07375,-0.07755 0.163942,-0.04295 0.09015,0.03458 0.163942,0.08224 0.163942,0.105861 0,0.02363 -0.07379,0.04295 -0.163942,0.04295 -0.09015,0 -0.163942,-0.04764 -0.163942,-0.105861 z M 2.7353972,23.052998 c -0.088181,-0.106254 -0.05004,-0.138995 0.1619122,-0.138995 0.3442921,0 0.4545796,0.146934 0.1667776,0.222198 -0.1173346,0.0307 -0.2652451,-0.0068 -0.3286898,-0.08321 z m 6.3911069,0.05149 c -0.098054,-0.158658 0.2249532,-0.253744 0.5688022,-0.167444 0.2310539,0.05799 0.2604694,0.09554 0.1363685,0.174053 -0.2117686,0.133975 -0.6206556,0.130144 -0.7051722,-0.0066 z m 2.0223719,0.02036 c 0,-0.04632 0.182574,-0.09652 0.405722,-0.111546 0.477772,-0.03217 0.452297,0.03245 -0.05052,0.128154 -0.195358,0.03719 -0.355197,0.02973 -0.355197,-0.01659 z m 24.95854,0.004 c 0.04061,-0.06571 -0.0064,-0.164339 -0.104369,-0.219187 -0.246752,-0.13809 0.03793,-0.243391 0.337541,-0.124847 0.193874,0.07671 0.196237,0.08735 0.02087,0.09417 -0.10874,0.0042 -0.169413,0.05346 -0.134833,0.109421 0.03458,0.05596 0.0053,0.137328 -0.06508,0.180822 -0.07735,0.0478 -0.09876,0.03182 -0.05413,-0.04038 z m 8.703271,-0.132899 c 0.211893,-0.136932 0.327884,-0.136932 0.327884,0 0,0.06011 -0.110668,0.108538 -0.245894,0.107617 -0.198836,-0.0014 -0.214535,-0.02195 -0.08195,-0.107617 z M 1.8590902,22.841143 c 0,-0.09518 0.07787,-0.173047 0.173045,-0.173047 0.193001,0 0.1593899,0.235278 -0.043261,0.302829 -0.071381,0.02378 -0.129784,-0.03462 -0.129784,-0.129782 z m 10.2195378,0.04679 c -0.03828,-0.06195 0.0056,-0.08027 0.102842,-0.04295 0.189339,0.07266 0.223981,0.150991 0.06677,0.150991 -0.05656,0 -0.13289,-0.04862 -0.169615,-0.108037 z m 23.312489,0.03338 c 0.07889,-0.03155 0.173159,-0.02771 0.209476,0.0086 0.03633,0.03633 -0.02825,0.06215 -0.143445,0.0574 -0.127318,-0.0052 -0.153217,-0.03112 -0.06603,-0.06603 z m 10.28851,-0.09578 c -0.104956,-0.126444 -0.09446,-0.157441 0.05312,-0.157441 0.101069,0 0.159512,-0.03924 0.129863,-0.08719 -0.02953,-0.04795 -0.01438,-0.151297 0.03419,-0.229655 0.05945,-0.09619 0.104023,-0.03373 0.137169,0.192286 0.0551,0.375462 -0.144746,0.534524 -0.354346,0.281996 z m -34.201498,-0.05131 c 0.199827,-0.126344 0.326497,-0.134138 0.326497,-0.02009 0,0.04732 -0.110039,0.09432 -0.24453,0.104454 -0.192177,0.01449 -0.209729,-0.0036 -0.08197,-0.08436 z m 1.037993,0.0014 c 0.03777,-0.06109 0.114429,-0.08278 0.170389,-0.0482 0.151593,0.09369 0.123324,0.159271 -0.06865,0.159271 -0.09371,0 -0.139496,-0.04998 -0.101742,-0.111075 z m 33.606063,-0.640602 c 0,-0.06747 0.04764,-0.122674 0.105849,-0.122674 0.05821,0 0.07756,-0.07377 0.04294,-0.163939 -0.03458,-0.09017 -0.03847,-0.163938 -0.0082,-0.163938 0.143658,0 0.156132,0.326991 0.01671,0.442558 -0.111678,0.09267 -0.157453,0.095 -0.157453,0.008 z M 1.6261766,21.865678 c 0.066949,-0.08067 0.093349,-0.175048 0.058668,-0.209729 -0.034681,-0.0347 0.051812,-0.118936 0.1922087,-0.187233 0.215164,-0.104668 0.2278574,-0.101766 0.080798,0.01846 -0.095958,0.07845 -0.1617859,0.228711 -0.146285,0.333904 0.016398,0.111278 -0.041925,0.191259 -0.1394663,0.191259 -0.1278577,0 -0.1387574,-0.03482 -0.045924,-0.14667 z m 31.0588854,0.04093 c -0.08848,-0.05468 -0.03563,-0.08552 0.146526,-0.08552 0.31798,0 0.355796,0.03136 0.138374,0.11481 -0.08059,0.03093 -0.208792,0.01776 -0.2849,-0.0293 z m 0.629514,-0.515374 c 0.07889,-0.03155 0.17316,-0.02771 0.209476,0.0086 0.03633,0.03633 -0.02825,0.06215 -0.143444,0.0574 -0.127319,-0.0052 -0.153217,-0.03112 -0.06603,-0.06603 z M 14.86479,21.313644 c 0,-0.02363 0.07377,-0.07126 0.163938,-0.105861 0.09017,-0.03458 0.163938,-0.01527 0.163938,0.04295 0,0.05823 -0.07377,0.105861 -0.163938,0.105861 -0.09017,0 -0.163938,-0.01931 -0.163938,-0.04295 z m 1.226822,-0.08554 c 0.0192,-0.09259 -0.06085,-0.134954 -0.222226,-0.117581 -0.145523,0.01566 -0.223717,-0.019 -0.184808,-0.08197 0.09679,-0.156617 0.334641,-0.134445 0.483635,0.04508 0.08976,0.108154 0.09295,0.17586 0.01069,0.226706 -0.06452,0.03988 -0.103794,0.0074 -0.08728,-0.07224 z m 15.467468,-0.02366 c -0.217418,-0.165045 -0.262991,-0.342584 -0.05465,-0.21288 0.07514,0.04678 0.242575,0.07136 0.372082,0.05464 0.129506,-0.01671 0.263267,0.01457 0.297244,0.06955 0.03396,0.05498 -0.07198,0.07862 -0.235468,0.05254 -0.232783,-0.03715 -0.261693,-0.02223 -0.133306,0.06876 0.09017,0.0639 0.114755,0.115362 0.05465,0.114371 -0.06011,-9.67e-4 -0.195359,-0.06712 -0.300552,-0.146973 z m -0.519135,-0.346109 c 0,-0.09371 0.04998,-0.139497 0.111076,-0.101738 0.06109,0.03777 0.08278,0.114429 0.0482,0.170388 -0.09369,0.151593 -0.159268,0.123324 -0.159268,-0.06865 z M 2.6277114,20.614121 c -0.1421905,-0.153812 -0.1390951,-0.165302 0.027321,-0.101443 0.1312637,0.05037 0.1902739,0.01554 0.1963086,-0.115809 0.00492,-0.107108 0.031728,-0.130889 0.062381,-0.05533 0.029563,0.07287 0.013387,0.203045 -0.035951,0.289275 -0.076769,0.134169 -0.1128259,0.131764 -0.2500613,-0.01667 z m 42.4616926,-0.03144 c 0.02759,-0.04496 -0.01127,-0.103801 -0.08677,-0.130761 -0.0755,-0.02697 -0.108298,-0.08064 -0.07286,-0.119298 0.03536,-0.03866 0.146301,0.02021 0.24636,0.130761 0.150264,0.166056 0.154189,0.20104 0.02254,0.20104 -0.08778,0 -0.136858,-0.0368 -0.109075,-0.08174 z M 16.987847,20.297105 c 0.01593,-0.10855 0.06526,-0.189161 0.109622,-0.179143 0.165975,0.0375 0.172312,0.118478 0.0192,0.24554 -0.128333,0.106506 -0.152394,0.09411 -0.128838,-0.0664 z m -6.084877,0.0035 c 0.07514,-0.03031 0.19809,-0.03031 0.27323,0 0.07514,0.03031 0.01368,0.05512 -0.136613,0.05512 -0.150276,0 -0.211753,-0.02479 -0.136614,-0.05512 z m 19.536645,-0.03567 c -0.03828,-0.06195 0.0056,-0.08028 0.102842,-0.04295 0.18934,0.07266 0.223982,0.150995 0.06677,0.150995 -0.05656,0 -0.132891,-0.04862 -0.169616,-0.108041 z m 6.476028,0.03074 c 0.135948,-0.02615 0.332675,-0.02514 0.437166,0.0022 0.104493,0.02736 -0.0068,0.04874 -0.24718,0.04753 -0.240442,-0.0012 -0.325934,-0.02359 -0.189985,-0.04974 z m -7.154245,-0.176369 c -0.03934,-0.06366 -0.01014,-0.073 0.07116,-0.02273 0.101424,0.06268 0.118393,0.02378 0.06417,-0.147051 -0.05293,-0.166755 -0.02724,-0.23227 0.09113,-0.23227 0.207526,0 0.30558,0.152398 0.22805,0.354444 -0.06837,0.178172 -0.355251,0.208228 -0.454512,0.04762 z m 14.284247,-0.06525 c 0,-0.05519 -0.0342,-0.190443 -0.07585,-0.300551 -0.07154,-0.188843 -0.06517,-0.189616 0.112455,-0.0136 0.106471,0.105535 0.270024,0.158502 0.376418,0.12191 0.148088,-0.05094 0.141598,-0.02743 -0.03031,0.110458 -0.24873,0.199318 -0.382518,0.227918 -0.382518,0.08177 z M 3.6076096,19.804658 c 0.2752549,-0.222886 0.394893,-0.244487 0.4911844,-0.08869 0.038392,0.06212 -0.00583,0.08018 -0.1040812,0.04248 -0.1168268,-0.04483 -0.1521371,-0.01679 -0.1116625,0.08869 0.041757,0.108818 -0.025879,0.154247 -0.2295967,0.154247 H 3.3646652 Z m 40.0555134,0.13115 c -0.0373,-0.06011 -0.01554,-0.109292 0.04818,-0.109292 0.06365,0 0.115758,0.04918 0.115758,0.109292 0,0.06011 -0.02176,0.109292 -0.04818,0.109292 -0.02642,0 -0.07857,-0.04918 -0.115758,-0.109292 z M 11.122827,19.749219 c 0.135949,-0.02615 0.332675,-0.02514 0.437166,0.0022 0.104494,0.02736 -0.0068,0.04874 -0.247179,0.04753 -0.240442,-0.0012 -0.325934,-0.02359 -0.189985,-0.04974 z m 24.616657,-0.03198 c -0.444131,-0.06906 -0.454727,-0.07714 -0.109292,-0.08332 0.210385,-0.0038 0.628427,0.03148 0.928979,0.07827 0.516891,0.08051 0.522805,0.08502 0.109292,0.0833 -0.240442,-9.83e-4 -0.658482,-0.03622 -0.928979,-0.07827 z M 9.5389046,19.641487 c 0.106339,-0.02771 0.2538791,-0.02588 0.3278765,0.004 0.073993,0.02992 -0.013018,0.05261 -0.1933421,0.05038 -0.1803325,-0.0022 -0.2408733,-0.02673 -0.1345344,-0.05443 z m 9.1875204,-0.0882 c 0,-0.0787 0.06558,-0.117934 0.145722,-0.08718 0.08015,0.03074 0.145722,0.06999 0.145722,0.08718 0,0.01718 -0.06558,0.05642 -0.145722,0.08718 -0.08015,0.03074 -0.145722,-0.0085 -0.145722,-0.08718 z m 10.183108,0.0559 c -0.03828,-0.06195 0.0056,-0.08028 0.102842,-0.04295 0.18934,0.07266 0.223982,0.150991 0.06677,0.150991 -0.05656,0 -0.132891,-0.04862 -0.169616,-0.108037 z m 14.696752,-0.05854 c -0.07605,-0.09162 -0.117079,-0.187743 -0.0912,-0.213614 0.02604,-0.02588 0.107054,0.04909 0.180418,0.166576 0.158658,0.254074 0.105733,0.28197 -0.08922,0.04703 z m -3.440492,-0.052 c 0.0373,-0.06011 0.08922,-0.109292 0.115758,-0.109292 0.02642,0 0.04818,0.04918 0.04818,0.109292 0,0.06011 -0.05207,0.109292 -0.115758,0.109292 -0.06365,0 -0.08533,-0.04918 -0.04818,-0.109292 z M 19.295771,19.287618 c -0.03404,-0.05508 0.08623,-0.205609 0.267274,-0.334521 0.398885,-0.284029 0.418253,-0.238258 0.06189,0.146266 -0.147,0.158614 -0.295123,0.243329 -0.329163,0.188255 z M 5.1924838,19.061475 c -0.037148,-0.06011 -0.015465,-0.109292 0.048196,-0.109292 0.063657,0 0.1157426,0.04918 0.1157426,0.109292 0,0.06011 -0.021683,0.109292 -0.048196,0.109292 -0.026501,0 -0.07859,-0.04918 -0.1157426,-0.109292 z M 42.58257,19.041465 c 0.03148,-0.05107 0.103168,-0.06456 0.159124,-0.03 0.142997,0.08838 0.12691,0.122838 -0.05739,0.122838 -0.08751,0 -0.133322,-0.04179 -0.10173,-0.09286 z M 30.056321,18.788246 c 0,-0.09017 0.01931,-0.163938 0.04295,-0.163938 0.02362,0 0.07126,0.07377 0.105861,0.163938 0.03458,0.09017 0.01527,0.163938 -0.04295,0.163938 -0.05823,0 -0.105861,-0.07377 -0.105861,-0.163938 z m -11.858138,-0.05464 c -0.182131,-0.07826 -0.158276,-0.09521 0.143064,-0.10161 0.214881,-0.0045 0.334238,0.03668 0.294101,0.10161 -0.07874,0.127407 -0.140666,0.127407 -0.437165,0 z m 1.874029,-0.05712 c 0.05617,-0.146378 0.03835,-0.174228 -0.06903,-0.107862 -0.09703,0.05997 -0.11868,0.04727 -0.06567,-0.03851 0.0435,-0.07038 0.137161,-0.09892 0.208147,-0.06343 0.07099,0.03548 0.03505,-0.01181 -0.07987,-0.105158 -0.125709,-0.1021 -0.310724,-0.14414 -0.464489,-0.105546 -0.162889,0.04088 -0.255558,0.01597 -0.255558,-0.06869 0,-0.07515 0.07366,-0.104567 0.169616,-0.06775 0.09329,0.03579 0.141664,0.01986 0.107508,-0.0354 -0.03416,-0.05527 -0.01212,-0.13138 0.04897,-0.169134 0.06109,-0.03777 0.111076,-0.02487 0.111076,0.02864 0,0.0535 0.122954,0.163076 0.27323,0.2435 0.31196,0.166958 0.347376,0.348868 0.10679,0.548535 -0.140697,0.116768 -0.154729,0.107613 -0.09072,-0.05919 z m 7.549845,-0.227747 c -0.0354,-0.0354 -0.03793,-0.133345 -0.0056,-0.217636 0.07918,-0.206333 0.433155,-0.195071 0.51429,0.01636 0.03882,0.101183 0.01958,0.141482 -0.04774,0.09989 -0.06206,-0.03835 -0.176676,-0.01675 -0.254711,0.04802 -0.07803,0.06477 -0.170855,0.08878 -0.206266,0.05337 z m 0.633924,-0.240411 c -0.0284,-0.02841 -0.02685,-0.09185 0.0035,-0.14095 0.06287,-0.101726 0.376052,-0.0074 0.376052,0.11324 0,0.08776 -0.297757,0.109499 -0.379549,0.02771 z M 27.269385,18.1035 c -0.135342,-0.09943 -0.140304,-0.416487 -0.0084,-0.537071 0.05684,-0.05196 0.06199,-0.02732 0.01224,0.05864 -0.06667,0.115175 -0.02786,0.130248 0.173738,0.06744 0.251226,-0.07827 0.253421,-0.07396 0.0681,0.133777 -0.105324,0.118058 -0.158603,0.247549 -0.1184,0.287755 0.09758,0.09758 0.01002,0.09033 -0.127268,-0.01053 z m -6.735374,-0.216909 c -0.135945,-0.173342 -0.132078,-0.177209 0.04126,-0.04126 0.182054,0.142776 0.239949,0.232523 0.149996,0.232523 -0.02269,0 -0.108763,-0.08607 -0.191259,-0.191259 z m 0.109292,-0.218585 c -0.138746,-0.176917 -0.133605,-0.179236 0.06859,-0.03093 0.120223,0.08819 0.239074,0.174251 0.264122,0.19126 0.02506,0.01702 -0.0058,0.03093 -0.06859,0.03093 -0.06277,0 -0.181622,-0.08607 -0.264122,-0.19126 z m 6.117624,-0.109292 c -0.0092,-0.04508 -0.02196,-0.143025 -0.02848,-0.217652 -0.0065,-0.07462 -0.06049,-0.131181 -0.119966,-0.125686 -0.05948,0.0055 -0.09463,0.05791 -0.07811,0.116481 0.01652,0.05857 -0.02277,0.07386 -0.08727,0.034 -0.08273,-0.05113 -0.08079,-0.116508 0.0066,-0.221814 0.09854,-0.118727 0.167004,-0.122406 0.334261,-0.01795 0.115688,0.07225 0.160674,0.147917 0.09997,0.16815 -0.0607,0.02025 -0.110369,0.08478 -0.110369,0.143425 0,0.05865 0.04918,0.07624 0.109293,0.03909 0.06011,-0.03715 0.109292,-0.01547 0.109292,0.0482 0,0.130525 -0.209472,0.160601 -0.235231,0.03377 z M 21.05378,17.364568 c -0.04183,-0.109004 -0.02192,-0.145072 0.0541,-0.09808 0.06614,0.04088 0.163189,0.0065 0.215659,-0.07629 0.05516,-0.08709 0.0961,-0.09863 0.09707,-0.0274 8.74e-4,0.06778 -0.06635,0.179691 -0.149502,0.248695 -0.116858,0.09698 -0.166192,0.08633 -0.21733,-0.04694 z m 5.113355,-0.394737 c -0.04714,-0.07627 -0.03186,-0.09879 0.03777,-0.05575 0.06426,0.03972 0.141754,0.01041 0.172195,-0.06508 0.03962,-0.09827 0.05781,-0.100296 0.06398,-0.0072 0.01247,0.188077 -0.180942,0.278426 -0.273934,0.12796 z M 21.640868,16.83269 c 0,-0.02362 0.07633,-0.07224 0.169616,-0.108041 0.09726,-0.0373 0.141128,-0.019 0.102841,0.04295 -0.06418,0.103848 -0.272453,0.153602 -0.272453,0.06509 z m 1.215659,-3.666271 c -0.20299,-0.05173 -0.498077,-0.223167 -0.65575,-0.380977 -0.649525,-0.650088 -0.19148,-2.258293 0.988132,-3.4693558 0.315065,-0.3234661 0.609924,-0.5280207 0.761125,-0.5280207 0.355423,0 1.297586,1.0178956 1.714605,1.8524245 0.54375,1.08814 0.458427,2.015558 -0.217593,2.365141 -0.408165,0.21107 -2.004403,0.310146 -2.590519,0.160788 z"
         id="path1817" /><path
         style="fill:#931729;stroke-width:0.109292"
         d="m 23.603366,39.650446 c -0.151031,-0.397241 -0.710418,-3.59151 -0.97392,-5.561376 -1.066698,-7.974333 -0.812919,-14.509045 0.710157,-18.286209 0.341709,-0.847423 0.352337,-0.906689 0.129169,-0.720272 -0.133746,0.111723 -0.292357,0.256524 -0.352467,0.321783 -0.401148,0.4355 -1.929617,1.451979 -2.896227,1.926079 -1.414646,0.693853 -1.348552,0.667541 -2.677644,1.065957 -2.656903,0.796448 -5.488885,1.060346 -8.9072651,0.830021 C 7.6719699,19.161531 5.2945985,18.795741 4.919255,18.654687 4.8290892,18.620803 4.4504054,18.482768 4.0777353,18.347942 2.5389628,17.79124 1.0888896,16.738822 0.63515238,15.849424 0.35652317,15.303266 0.42934378,14.773457 0.84404033,14.329653 1.4760831,13.653247 4.5243538,12.445997 6.8865033,11.936569 7.906936,11.7165 8.3367538,11.689159 10.766355,11.689785 c 2.36546,6.12e-4 2.920706,0.03435 4.135692,0.251252 2.210242,0.394593 4.311248,0.945612 6.789408,1.780621 1.978646,0.666698 2.336329,0.756894 2.622998,0.661429 0.182563,-0.0608 0.97129,-0.3321 1.752725,-0.602903 3.07626,-1.066056 5.502188,-1.659751 8.142224,-1.992637 1.995656,-0.251637 5.344082,-0.170863 6.940017,0.167412 1.980789,0.41985 4.724272,1.466696 5.740869,2.190577 0.655143,0.466502 0.70487,1.427806 0.112533,2.175672 -0.824016,1.040425 -2.937828,2.137568 -4.815134,2.499232 -1.739446,0.335105 -4.195623,0.560566 -5.540152,0.508551 -1.738193,-0.06725 -3.079464,-0.207369 -4.29609,-0.448815 -3.045175,-0.604331 -5.367166,-1.644909 -7.267123,-3.256694 -0.402723,-0.341641 -0.755508,-0.597882 -0.783964,-0.569425 -0.02844,0.02844 0.04755,0.246367 0.168908,0.484248 0.546399,1.071029 1.086989,3.444824 1.321431,5.80255 0.144761,1.455854 0.144202,5.967159 -9.84e-4,7.939385 -0.205784,2.795375 -0.623737,6.08583 -1.096688,8.634037 -0.353543,1.904848 -0.394604,2.021893 -0.709303,2.021893 -0.192444,0 -0.303419,-0.08335 -0.380356,-0.285724 z M 22.856527,13.166419 c -0.20299,-0.05173 -0.498077,-0.223167 -0.65575,-0.380977 -0.649525,-0.650088 -0.19148,-2.258293 0.988132,-3.4693558 0.315065,-0.3234661 0.609924,-0.5280207 0.761125,-0.5280207 0.355423,0 1.297586,1.0178956 1.714605,1.8524245 0.54375,1.08814 0.458427,2.015558 -0.217593,2.365141 -0.408165,0.21107 -2.004403,0.310146 -2.590519,0.160788 z"
         id="path1815" /><path
         style="fill:#791125;stroke-width:0.109292"
         d="M 23.667817,39.835057 C 23.5661,39.670474 23.097473,37.266078 22.84849,35.631309 21.829619,28.941612 21.711496,22.642419 22.52855,18.569663 c 0.257947,-1.285785 0.658148,-2.500373 1.094407,-3.321455 0.172168,-0.324042 0.313036,-0.610748 0.313036,-0.637126 0,-0.02638 -0.331972,0.254132 -0.737718,0.623357 C 20.11517,18.040035 15.516392,19.43753 10.001314,19.244785 5.9089245,19.10176 3.0558427,18.299994 1.464803,16.845873 0.39051918,15.864038 0.18577502,15.034122 0.84404033,14.329653 1.4760831,13.653247 4.5243538,12.445997 6.8865033,11.936569 7.906936,11.716499 8.3367538,11.68916 10.766355,11.689784 c 2.36546,6.12e-4 2.920706,0.03434 4.135692,0.251251 2.203828,0.393447 4.306382,0.944805 6.801543,1.783586 l 2.303197,0.77425 1.576654,-0.550555 c 3.059496,-1.068352 4.932365,-1.572387 7.478399,-2.012625 1.206049,-0.208539 1.825495,-0.246103 4.098435,-0.248536 2.386587,-0.0026 2.808322,0.02464 3.879852,0.250083 2.775191,0.583906 5.837653,1.8853 6.232268,2.648404 0.349722,0.676259 0.173112,1.304964 -0.577357,2.055431 -0.764245,0.764242 -2.695175,1.80594 -3.56462,1.923039 -0.127804,0.01721 -0.306124,0.06138 -0.396271,0.09816 -0.308144,0.125682 -2.116466,0.401292 -3.43605,0.523694 -0.768671,0.0713 -2.092627,0.09483 -3.176093,0.05643 -4.916002,-0.174207 -8.434391,-1.426783 -11.539066,-4.108 l -0.560901,-0.484397 0.334749,0.663135 c 1.046804,2.073705 1.546777,5.242433 1.54601,9.798285 -6.56e-4,4.201296 -0.402493,8.453328 -1.209773,12.802862 -0.351215,1.892309 -0.396089,2.021893 -0.700148,2.021893 -0.144412,0 -0.290686,-0.0455 -0.325056,-0.101109 z M 14.83519,15.170239 c -0.03633,-0.03633 -0.130582,-0.0402 -0.209476,-0.0086 -0.08719,0.03489 -0.06129,0.06079 0.06603,0.06603 0.11521,0.0047 0.179761,-0.0211 0.143444,-0.0574 z m 1.202208,-0.218584 c -0.03633,-0.03633 -0.130583,-0.0402 -0.209476,-0.0086 -0.08719,0.03489 -0.06129,0.06079 0.06603,0.06603 0.115211,0.0047 0.179761,-0.0211 0.143445,-0.0574 z m 1.587004,-0.224934 c -0.07514,-0.03031 -0.19809,-0.03031 -0.27323,0 -0.07514,0.03031 -0.01368,0.05512 0.136613,0.05512 0.150276,0 0.211753,-0.02479 0.136613,-0.05512 z m 0.983625,-0.109292 c -0.07514,-0.03031 -0.198091,-0.03031 -0.273231,0 -0.07514,0.03031 -0.01368,0.05512 0.136613,0.05512 0.150276,0 0.211753,-0.02479 0.136614,-0.05512 z m 10.929159,0 c -0.07514,-0.03031 -0.198091,-0.03031 -0.273231,0 -0.07514,0.03031 -0.01368,0.05512 0.136614,0.05512 0.150275,0 0.211753,-0.02479 0.136613,-0.05512 z m -9.399077,-0.11404 c -0.135249,-0.02604 -0.356565,-0.02604 -0.491812,0 -0.135249,0.02604 -0.0246,0.04736 0.245905,0.04736 0.270499,0 0.381155,-0.02133 0.245907,-0.04736 z m 8.249239,0.01111 c -0.03633,-0.03633 -0.130583,-0.0402 -0.209476,-0.0086 -0.08719,0.0349 -0.06129,0.06079 0.06603,0.06603 0.115211,0.0047 0.179761,-0.0211 0.143446,-0.0574 z m -5.530821,-1.348083 c -0.20299,-0.05173 -0.498077,-0.223167 -0.65575,-0.380977 -0.649525,-0.650088 -0.19148,-2.258293 0.988132,-3.4693558 0.315065,-0.3234661 0.609924,-0.5280207 0.761125,-0.5280207 0.355423,0 1.297586,1.0178956 1.714605,1.8524245 0.54375,1.08814 0.458427,2.015558 -0.217593,2.365141 -0.408165,0.21107 -2.004403,0.310146 -2.590519,0.160788 z"
         id="path1813" /><path
         style="fill:#64061a;stroke-width:0.109292"
         d="M 9.0723352,19.212903 C 7.6447937,19.112498 5.3940386,18.769669 5.2196705,18.626076 c -0.045157,-0.03719 0.2335369,-0.236257 0.6193216,-0.44238 0.3857827,-0.206123 0.6733338,-0.420221 0.6389993,-0.475776 -0.034351,-0.05556 -0.01022,-0.06874 0.053624,-0.0293 0.063825,0.03946 0.5049036,-0.0947 0.9801726,-0.298126 1.0216446,-0.437282 3.68388,-1.355147 4.074254,-1.40469 0.150276,-0.01908 0.322409,-0.06453 0.382523,-0.101011 0.360361,-0.218728 3.877979,-0.894396 5.901745,-1.133612 1.583909,-0.187222 5.49855,-0.34321 5.791548,-0.230778 0.157946,0.06061 0.110936,0.143444 -0.287666,0.50689 -0.26206,0.238943 -0.574833,0.525889 -0.695054,0.637657 -0.333062,0.309645 -1.892377,1.320351 -2.568352,1.664737 -1.397781,0.71212 -3.9495,1.486487 -5.573871,1.691496 -0.330608,0.04173 -0.691785,0.09277 -0.802618,0.113423 -0.340268,0.06342 -4.0237514,0.133186 -4.6619619,0.0883 z m 26.3392738,-0.0041 c -1.358332,-0.09139 -2.847437,-0.306338 -3.749788,-0.541277 -0.552418,-0.143829 -1.15194,-0.291008 -1.332271,-0.327063 -0.180331,-0.03606 -0.364008,-0.122185 -0.40817,-0.191398 -0.04416,-0.06921 -0.08105,-0.09116 -0.08197,-0.04877 -0.0026,0.117503 -1.273414,-0.388331 -2.132859,-0.84893 -0.81608,-0.437377 -2.239242,-1.380822 -2.627533,-1.741866 -0.129293,-0.120221 -0.390185,-0.358001 -0.57976,-0.5284 -0.363747,-0.326952 -0.434598,-0.503743 -0.208068,-0.519181 0.564623,-0.03847 2.908611,0.03112 4.111425,0.122077 2.837512,0.214574 5.922028,0.763699 8.243881,1.467626 0.670216,0.203193 1.256722,0.345868 1.303343,0.317055 0.04662,-0.02883 0.08477,-0.006 0.08477,0.05061 0,0.05665 0.110656,0.13193 0.245906,0.167299 0.135249,0.03536 0.245905,0.06149 0.245905,0.05805 0,-0.0034 0.344283,0.122671 0.765041,0.280256 1.27219,0.476445 3.57266,1.624859 3.419066,1.706825 -0.307173,0.163915 -2.26183,0.448993 -3.727365,0.543617 -1.482679,0.09573 -2.503754,0.105294 -3.571552,0.03346 z M 24.359217,9.0339713 c -0.135945,-0.1733419 -0.132079,-0.1772082 0.04126,-0.041263 0.105193,0.082499 0.191259,0.1685662 0.191259,0.1912593 0,0.089952 -0.08975,0.032058 -0.232526,-0.149996 z"
         id="path1811" /></g></g></svg>
