<?xml version="1.0" encoding="UTF-8" standalone="no"?>
<!-- Generator: Adobe Illustrator 16.0.0, SVG Export Plug-In . SVG Version: 6.00 Build 0)  -->

<svg
   version="1.1"
   id="svg2"
   x="0px"
   y="0px"
   width="248.899"
   height="164.69901"
   viewBox="35.188 31.512 248.89901 164.699"
   enable-background="new 35.188 31.512 351.46 258.785"
   xml:space="preserve"
   sodipodi:docname="logoNvidia.svg"
   inkscape:version="1.2.2 (732a01da63, 2022-12-09)"
   xmlns:inkscape="http://www.inkscape.org/namespaces/inkscape"
   xmlns:sodipodi="http://sodipodi.sourceforge.net/DTD/sodipodi-0.dtd"
   xmlns="http://www.w3.org/2000/svg"
   xmlns:svg="http://www.w3.org/2000/svg"
   xmlns:rdf="http://www.w3.org/1999/02/22-rdf-syntax-ns#"
   xmlns:cc="http://creativecommons.org/ns#"
   xmlns:dc="http://purl.org/dc/elements/1.1/"><defs
   id="defs9" /><sodipodi:namedview
   id="namedview7"
   pagecolor="#ffffff"
   bordercolor="#000000"
   borderopacity="0.25"
   inkscape:showpageshadow="2"
   inkscape:pageopacity="0.0"
   inkscape:pagecheckerboard="0"
   inkscape:deskcolor="#d1d1d1"
   showgrid="false"
   inkscape:zoom="1.553413"
   inkscape:cx="39.590243"
   inkscape:cy="84.652308"
   inkscape:window-width="1920"
   inkscape:window-height="991"
   inkscape:window-x="-9"
   inkscape:window-y="-9"
   inkscape:window-maximized="1"
   inkscape:current-layer="svg2" />
<title
   id="title4">generated by pstoedit version:3.44 from NVBadge_2D.eps</title>


<path
   id="path21"
   fill="#77b900"
   d="m 60.618,102.414 c 0,0 22.504,-33.203 67.437,-36.638 V 53.73 c -49.769,3.997 -92.867,46.149 -92.867,46.149 0,0 24.41,70.565 92.867,77.026 V 164.101 C 77.818,157.781 60.618,102.414 60.618,102.414 Z m 67.437,36.223 v 11.726 c -37.968,-6.769 -48.507,-46.237 -48.507,-46.237 0,0 18.23,-20.195 48.507,-23.47 v 12.867 c -0.023,0 -0.039,-0.007 -0.058,-0.007 -15.891,-1.907 -28.305,12.938 -28.305,12.938 0,0 6.958,24.991 28.363,32.183 m 0,-107.125 V 53.73 c 1.461,-0.112 2.922,-0.207 4.391,-0.257 56.582,-1.907 93.449,46.406 93.449,46.406 0,0 -42.343,51.488 -86.457,51.488 -4.043,0 -7.828,-0.375 -11.383,-1.005 v 13.739 c 3.04,0.386 6.192,0.613 9.481,0.613 41.051,0 70.738,-20.965 99.484,-45.778 4.766,3.817 24.278,13.103 28.289,17.168 -27.332,22.883 -91.031,41.329 -127.144,41.329 -3.481,0 -6.824,-0.211 -10.11,-0.528 v 19.306 H 284.087 V 31.512 Z m 0,49.144 V 65.777 c 1.446,-0.101 2.903,-0.179 4.391,-0.226 40.688,-1.278 67.382,34.965 67.382,34.965 0,0 -28.832,40.043 -59.746,40.043 -4.449,0 -8.438,-0.715 -12.028,-1.922 V 93.523 c 15.84,1.914 19.028,8.911 28.551,24.786 l 21.18,-17.859 c 0,0 -15.461,-20.277 -41.524,-20.277 -2.833,-0.001 -5.544,0.198 -8.206,0.483" />
<metadata
   id="metadata297"><rdf:RDF><cc:Work
       rdf:about=""><dc:title>generated by pstoedit version:3.44 from NVBadge_2D.eps</dc:title></cc:Work></rdf:RDF></metadata></svg>
