<?xml version="1.0" encoding="UTF-8" standalone="no"?>
<!-- Uploaded to: SVG Repo, www.svgrepo.com, Generator: SVG Repo Mixer Tools -->

<svg
   aria-label="Docker"
   role="img"
   viewBox="0 0 405.47122 282"
   version="1.1"
   id="svg8"
   sodipodi:docname="logoDocker.svg"
   width="405.47122"
   height="282"
   inkscape:version="1.2.2 (732a01da63, 2022-12-09)"
   xmlns:inkscape="http://www.inkscape.org/namespaces/inkscape"
   xmlns:sodipodi="http://sodipodi.sourceforge.net/DTD/sodipodi-0.dtd"
   xmlns="http://www.w3.org/2000/svg"
   xmlns:svg="http://www.w3.org/2000/svg">
  <defs
     id="defs12" />
  <sodipodi:namedview
     id="namedview10"
     pagecolor="#ffffff"
     bordercolor="#000000"
     borderopacity="0.25"
     inkscape:showpageshadow="2"
     inkscape:pageopacity="0.0"
     inkscape:pagecheckerboard="0"
     inkscape:deskcolor="#d1d1d1"
     showgrid="false"
     inkscape:zoom="0.78515625"
     inkscape:cx="-56.676617"
     inkscape:cy="134.36816"
     inkscape:window-width="1920"
     inkscape:window-height="991"
     inkscape:window-x="-9"
     inkscape:window-y="-9"
     inkscape:window-maximized="1"
     inkscape:current-layer="svg8" />
  <path
     stroke="#066da5"
     stroke-width="38"
     d="m 229.47123,111 h 42 m -92,0 h 42 m -91,0 h 42 m -90.999997,0 h 40.999997 m -90.999997,0 h 42 m 8,-46.000005 h 40.999997 m 8,0 h 42 m 7,0 h 42 M 179.47123,19 h 42"
     id="path4" />
  <path
     fill="#066da5"
     d="m 405.47123,113 c 0,0 -18,-17.000005 -55,-11 -4,-29.000005 -35,-46.000005 -35,-46.000005 0,0 -29,35 -8,74.000005 -6,3 -16,7 -31,7 H 1.4712327 c -5,19 -5,145 132.9999973,145 99,0 173,-46 208,-130 52,4 63,-39 63,-39"
     id="path6" />
</svg>
