<?xml version="1.0" encoding="UTF-8" standalone="no"?>
<svg
   height="560.37341"
   viewBox="0 0 264.40699 148.2645"
   width="999.33478"
   version="1.1"
   id="svg26"
   sodipodi:docname="logoAndroid.svg"
   inkscape:version="1.2.2 (732a01da63, 2022-12-09)"
   xmlns:inkscape="http://www.inkscape.org/namespaces/inkscape"
   xmlns:sodipodi="http://sodipodi.sourceforge.net/DTD/sodipodi-0.dtd"
   xmlns="http://www.w3.org/2000/svg"
   xmlns:svg="http://www.w3.org/2000/svg">
  <defs
     id="defs30" />
  <sodipodi:namedview
     id="namedview28"
     pagecolor="#ffffff"
     bordercolor="#000000"
     borderopacity="0.25"
     inkscape:showpageshadow="2"
     inkscape:pageopacity="0.0"
     inkscape:pagecheckerboard="0"
     inkscape:deskcolor="#d1d1d1"
     showgrid="false"
     inkscape:zoom="0.4605444"
     inkscape:cx="302.90239"
     inkscape:cy="242.10478"
     inkscape:window-width="1920"
     inkscape:window-height="991"
     inkscape:window-x="-9"
     inkscape:window-y="-9"
     inkscape:window-maximized="1"
     inkscape:current-layer="g24" />
  <metadata
     id="metadata2" />
  <g
     transform="translate(-67.12941,-261.91732)"
     id="g24">
    <path
       d="m 263.837,306.59 21.9331,-37.9944 c 1.2377,-2.12998 0.48933,-4.83565 -1.61189,-6.07335 -2.1012,-1.23768 -4.83565,-0.5181 -6.04456,1.61189 l -22.221,38.4837 c -16.9536,-7.74281 -36.0371,-12.0604 -56.5599,-12.0604 -20.5227,0 -39.6063,4.31754 -56.5599,12.0604 l -22.221,-38.4837 c -1.2377,-2.12999 -3.94336,-2.84957 -6.07335,-1.61189 -2.13,1.2377 -2.84959,3.94337 -1.61189,6.07335 l 21.9331,37.9944 c -37.8217,20.494 -63.4392,58.7762 -67.6703,103.592 h 264.407 c -4.2312,-44.8161 -29.8487,-83.0984 -67.6991,-103.592 z m -125.209,66.4614 c -6.13092,0 -11.0817,-4.97957 -11.0817,-11.0817 0,-6.13093 4.97957,-11.0817 11.0817,-11.0817 6.13092,0 11.0817,4.97956 11.0817,11.0817 0.0289,6.10212 -4.95079,11.0817 -11.0817,11.0817 z m 121.381,0 c -6.13091,0 -11.0817,-4.97957 -11.0817,-11.0817 0,-6.13093 4.97958,-11.0817 11.0817,-11.0817 6.13093,0 11.0817,4.97956 11.0817,11.0817 0.0288,6.10212 -4.95077,11.0817 -11.0817,11.0817 z"
       fill="#32de84"
       stroke-width="0.288"
       id="path22" />
  </g>
</svg>
