<?xml version="1.0" encoding="UTF-8" standalone="no"?>
<!-- Generator: Adobe Illustrator 27.8.1, SVG Export Plug-In . SVG Version: 6.00 Build 0)  -->

<svg
   version="1.1"
   x="0px"
   y="0px"
   viewBox="0 0 700 151.87072"
   xml:space="preserve"
   id="svg89"
   sodipodi:docname="logoEII.svg"
   width="700"
   height="151.87073"
   inkscape:version="1.2.2 (732a01da63, 2022-12-09)"
   xmlns:inkscape="http://www.inkscape.org/namespaces/inkscape"
   xmlns:sodipodi="http://sodipodi.sourceforge.net/DTD/sodipodi-0.dtd"
   xmlns="http://www.w3.org/2000/svg"
   xmlns:svg="http://www.w3.org/2000/svg"><defs
   id="defs93" /><sodipodi:namedview
   id="namedview91"
   pagecolor="#ffffff"
   bordercolor="#000000"
   borderopacity="0.25"
   inkscape:showpageshadow="2"
   inkscape:pageopacity="0.0"
   inkscape:pagecheckerboard="0"
   inkscape:deskcolor="#d1d1d1"
   showgrid="false"
   inkscape:zoom="0.5655721"
   inkscape:cx="297.92841"
   inkscape:cy="0.88406058"
   inkscape:window-width="1920"
   inkscape:window-height="991"
   inkscape:window-x="-9"
   inkscape:window-y="-9"
   inkscape:window-maximized="1"
   inkscape:current-layer="svg89" />
<style
   type="text/css"
   id="style2">
	.st0{display:none;}
	.st1{display:inline;fill:none;stroke:#009FE3;stroke-width:0.216;stroke-miterlimit:22.9256;}
	.st2{display:inline;fill-rule:evenodd;clip-rule:evenodd;fill:none;stroke:#009FE3;stroke-width:0.216;stroke-miterlimit:22.9256;}
	.st3{display:inline;fill-rule:evenodd;clip-rule:evenodd;fill:none;stroke:#B2B2B2;stroke-width:0.216;stroke-miterlimit:22.9256;}
	.st4{display:inline;fill:#DADADA;}
	.st5{display:inline;fill:none;stroke:#F59A00;stroke-width:0.216;stroke-miterlimit:22.9256;}
	.st6{display:inline;fill:none;stroke:#EF7D00;stroke-width:0.216;stroke-miterlimit:22.9256;}
	.st7{display:inline;}
	.st8{fill-rule:evenodd;clip-rule:evenodd;fill:#DADADA;}
	.st9{fill:none;stroke:#C6C6C6;stroke-width:0.216;stroke-miterlimit:22.9256;}
	.st10{fill:none;stroke:#B2B2B2;stroke-width:0.216;stroke-miterlimit:22.9256;}
	.st11{display:inline;fill:none;stroke:#C6C6C6;stroke-width:0.216;stroke-miterlimit:22.9256;}
	.st12{display:inline;fill:none;stroke:#B2B2B2;stroke-width:0.216;stroke-miterlimit:22.9256;}
	.st13{fill:#DADADA;}
	.st14{fill-rule:evenodd;clip-rule:evenodd;fill:#009640;}
	.st15{display:inline;fill-rule:evenodd;clip-rule:evenodd;fill:#DADADA;}
	
		.st16{display:inline;fill-rule:evenodd;clip-rule:evenodd;fill:none;stroke:#000000;stroke-width:0.2173;stroke-miterlimit:22.9256;}
	
		.st17{display:inline;fill-rule:evenodd;clip-rule:evenodd;fill:none;stroke:#C6C6C6;stroke-width:0.216;stroke-miterlimit:22.9256;}
	
		.st18{display:inline;fill-rule:evenodd;clip-rule:evenodd;fill:none;stroke:#E30613;stroke-width:0.216;stroke-miterlimit:22.9256;}
	.st19{display:inline;fill-rule:evenodd;clip-rule:evenodd;fill:#009640;}
	.st20{display:inline;fill:none;stroke:#EF7D00;stroke-width:0.2175;stroke-miterlimit:22.9256;}
	.st21{fill:#B3B1B1;}
	.st22{fill:none;stroke:#B3B1B1;stroke-width:0.216;stroke-miterlimit:22.926;}
	.st23{display:inline;fill:none;}
	.st24{display:inline;fill:none;stroke:#020203;stroke-width:0.216;stroke-miterlimit:22.926;}
	.st25{display:inline;fill:none;stroke:#289BD3;stroke-width:0.216;stroke-miterlimit:22.926;}
	.st26{display:inline;fill:none;stroke:#F39A10;stroke-width:0.216;stroke-miterlimit:22.926;}
	.st27{display:inline;fill:#B3B1B1;}
	.st28{display:inline;fill:none;stroke:#B3B1B1;stroke-width:0.216;stroke-miterlimit:22.926;}
	.st29{display:inline;fill:none;stroke:#E30613;stroke-width:0.216;stroke-miterlimit:22.9256;}
	.st30{display:inline;fill:none;stroke:#E30613;stroke-width:0.2175;stroke-miterlimit:22.9256;}
	.st31{display:inline;fill:none;stroke:#C6C6C6;stroke-width:0.2175;stroke-miterlimit:22.9256;}
	.st32{fill-rule:evenodd;clip-rule:evenodd;fill:none;stroke:#009FE3;stroke-width:0.216;stroke-miterlimit:22.9256;}
	.st33{fill-rule:evenodd;clip-rule:evenodd;fill:none;stroke:#B2B2B2;stroke-width:0.216;stroke-miterlimit:22.9256;}
	.st34{fill:none;stroke:#E30613;stroke-width:0.2175;stroke-miterlimit:22.9256;}
	.st35{fill:none;stroke:#C6C6C6;stroke-width:0.2175;stroke-miterlimit:22.9256;}
	.st36{fill:#0067A2;}
	.st37{fill:#0467A2;}
	.st38{fill:#F39A10;}
	.st39{fill:#F59A00;}
	.st40{fill-rule:evenodd;clip-rule:evenodd;fill:#0067A2;}
	.st41{fill-rule:evenodd;clip-rule:evenodd;fill:#F59A00;}
	.st42{fill:#FFFFFF;}
	.st43{fill-rule:evenodd;clip-rule:evenodd;fill:#FFFFFF;}
</style>
<g
   id="Capa_1"
   class="st0">
	<g
   class="st7"
   id="g10">
		<path
   class="st21"
   d="m 235.6,40.75 c 0,3.66 -0.88,6.52 -2.63,8.6 -1.75,2.08 -4.39,3.11 -7.9,3.11 h -15.58 c -0.28,0 -0.52,-0.1 -0.71,-0.29 -0.19,-0.19 -0.29,-0.43 -0.29,-0.72 v -5.29 c 0,-0.28 0.09,-0.52 0.29,-0.72 0.19,-0.19 0.43,-0.29 0.71,-0.29 h 15.5 c 1.55,0 2.73,-0.38 3.53,-1.15 0.8,-0.77 1.2,-1.86 1.2,-3.29 0,-1.43 -0.4,-2.52 -1.18,-3.29 -0.79,-0.77 -1.97,-1.15 -3.55,-1.15 h -15.5 c -0.28,0 -0.52,-0.1 -0.71,-0.29 -0.19,-0.19 -0.29,-0.43 -0.29,-0.72 v -5.33 c 0,-0.29 0.09,-0.52 0.29,-0.7 0.19,-0.18 0.43,-0.27 0.71,-0.27 h 15.58 c 3.51,0 6.15,1.04 7.9,3.13 1.75,2.09 2.63,4.97 2.63,8.66"
   id="path4" />
		<line
   class="st22"
   x1="208.50999"
   y1="0.2"
   x2="208.50999"
   y2="81.220001"
   id="line6" />
		<line
   class="st22"
   x1="235.66"
   y1="0.2"
   x2="235.66"
   y2="81.220001"
   id="line8" />
	</g>
	<rect
   x="0.38"
   class="st23"
   width="705.84003"
   height="81.129997"
   id="rect12"
   y="0" />
	<rect
   x="0.38"
   class="st24"
   width="705.76001"
   height="81.129997"
   id="rect14"
   y="0" />
	<line
   class="st25"
   x1="0.44999999"
   y1="58.43"
   x2="706.14001"
   y2="58.43"
   id="line16" />
	<line
   class="st26"
   x1="0.43000001"
   y1="0.1"
   x2="405.13"
   y2="0.1"
   id="line18" />
	<path
   class="st27"
   d="m 67.85,42.11 c 0,-1.45 0.38,-2.57 1.12,-3.37 0.75,-0.8 1.89,-1.2 3.41,-1.2 h 6.63 c 0.12,0 0.22,0.04 0.29,0.1 0.08,0.07 0.11,0.16 0.11,0.28 v 1.47 c 0,0.12 -0.04,0.21 -0.11,0.29 -0.08,0.07 -0.17,0.11 -0.29,0.11 h -6.63 c -0.86,0 -1.5,0.2 -1.94,0.6 -0.43,0.4 -0.65,0.97 -0.65,1.7 0,0.74 0.22,1.3 0.65,1.7 0.43,0.4 1.08,0.6 1.94,0.6 h 6.63 c 0.12,0 0.22,0.04 0.29,0.11 0.08,0.08 0.11,0.17 0.11,0.29 v 1.47 c 0,0.12 -0.04,0.21 -0.11,0.28 -0.08,0.07 -0.17,0.1 -0.29,0.1 h -6.63 c -1.52,0 -2.66,-0.4 -3.41,-1.19 -0.74,-0.79 -1.12,-1.9 -1.12,-3.34"
   id="path20" />
	<path
   class="st27"
   d="m 57.72,11.41 c -1.48,0 -2.62,-0.37 -3.44,-1.1 C 53.46,9.57 53.06,8.46 53.06,6.97 V 0.46 c 0,-0.12 0.04,-0.21 0.11,-0.29 0.07,-0.07 0.17,-0.11 0.28,-0.11 h 1.5 c 0.12,0 0.22,0.04 0.29,0.11 0.08,0.08 0.12,0.17 0.12,0.29 v 6.51 c 0,0.84 0.2,1.48 0.61,1.9 0.41,0.43 0.99,0.64 1.74,0.64 0.75,0 1.33,-0.21 1.74,-0.64 0.41,-0.43 0.61,-1.06 0.61,-1.9 V 0.46 c 0,-0.12 0.04,-0.21 0.11,-0.29 0.08,-0.07 0.17,-0.11 0.29,-0.11 h 1.5 c 0.12,0 0.21,0.04 0.28,0.11 0.07,0.08 0.11,0.17 0.11,0.29 v 6.51 c 0,1.49 -0.4,2.61 -1.21,3.34 -0.81,0.73 -1.95,1.1 -3.42,1.1"
   id="path22" />
	<path
   class="st27"
   d="m 57.69,11.41 c 1.48,0 2.62,0.37 3.44,1.1 0.82,0.74 1.22,1.85 1.22,3.34 v 6.51 c 0,0.12 -0.03,0.21 -0.11,0.29 -0.07,0.07 -0.17,0.11 -0.28,0.11 h -1.5 c -0.12,0 -0.22,-0.04 -0.29,-0.11 -0.08,-0.08 -0.11,-0.17 -0.11,-0.29 v -6.51 c 0,-0.84 -0.2,-1.48 -0.61,-1.9 -0.41,-0.43 -0.99,-0.64 -1.74,-0.64 -0.75,0 -1.33,0.21 -1.74,0.64 -0.41,0.43 -0.61,1.06 -0.61,1.9 v 6.51 c 0,0.12 -0.04,0.21 -0.11,0.29 -0.08,0.07 -0.17,0.11 -0.29,0.11 h -1.5 c -0.12,0 -0.22,-0.04 -0.29,-0.11 -0.07,-0.08 -0.11,-0.17 -0.11,-0.29 v -6.51 c 0,-1.49 0.4,-2.61 1.21,-3.34 0.82,-0.73 1.96,-1.1 3.42,-1.1"
   id="path24" />
	<line
   class="st28"
   x1="79.379997"
   y1="0.059999999"
   x2="79.379997"
   y2="81.080002"
   id="line26" />
	<path
   class="st27"
   d="m 12,42.11 c 0,-1.45 0.37,-2.57 1.12,-3.37 0.75,-0.8 1.89,-1.2 3.41,-1.2 h 6.63 c 0.12,0 0.22,0.04 0.29,0.1 0.08,0.07 0.11,0.16 0.11,0.28 v 1.47 c 0,0.12 -0.04,0.21 -0.11,0.29 -0.07,0.07 -0.17,0.11 -0.29,0.11 h -6.63 c -0.86,0 -1.51,0.2 -1.94,0.6 -0.44,0.4 -0.65,0.97 -0.65,1.7 0,0.74 0.22,1.3 0.65,1.7 0.43,0.4 1.08,0.6 1.94,0.6 h 6.63 c 0.12,0 0.22,0.04 0.29,0.11 0.08,0.08 0.11,0.17 0.11,0.29 v 1.47 c 0,0.12 -0.04,0.21 -0.11,0.28 -0.07,0.07 -0.17,0.1 -0.29,0.1 h -6.63 c -1.52,0 -2.66,-0.4 -3.41,-1.19 C 12.38,44.66 12,43.55 12,42.11"
   id="path28" />
	<path
   class="st27"
   d="m 12.01,42.11 c 0,-1.45 -0.38,-2.57 -1.12,-3.37 C 10.14,37.94 9,37.54 7.48,37.54 H 0.84 c -0.12,0 -0.22,0.04 -0.29,0.1 -0.08,0.07 -0.11,0.16 -0.11,0.28 v 1.47 c 0,0.12 0.04,0.21 0.11,0.29 0.08,0.07 0.17,0.11 0.29,0.11 h 6.63 c 0.86,0 1.51,0.2 1.94,0.6 0.43,0.4 0.65,0.97 0.65,1.7 0,0.74 -0.22,1.3 -0.65,1.7 -0.43,0.4 -1.08,0.6 -1.94,0.6 H 0.84 c -0.12,0 -0.22,0.04 -0.29,0.11 -0.08,0.08 -0.11,0.17 -0.11,0.29 v 1.47 c 0,0.12 0.04,0.21 0.11,0.28 0.08,0.07 0.17,0.1 0.29,0.1 h 6.63 c 1.52,0 2.66,-0.4 3.41,-1.19 0.75,-0.79 1.13,-1.9 1.13,-3.34"
   id="path30" />
	<path
   class="st27"
   d="m 57.72,69.73 c -1.48,0 -2.62,0.37 -3.44,1.1 -0.82,0.74 -1.22,1.85 -1.22,3.34 v 6.51 c 0,0.12 0.04,0.21 0.11,0.29 0.07,0.07 0.17,0.11 0.28,0.11 h 1.5 c 0.12,0 0.22,-0.04 0.29,-0.11 0.08,-0.08 0.12,-0.17 0.12,-0.29 v -6.51 c 0,-0.84 0.2,-1.48 0.61,-1.9 0.41,-0.43 0.99,-0.64 1.74,-0.64 0.75,0 1.33,0.21 1.74,0.64 0.41,0.43 0.61,1.06 0.61,1.9 v 6.51 c 0,0.12 0.04,0.21 0.11,0.29 0.08,0.07 0.17,0.11 0.29,0.11 h 1.5 c 0.12,0 0.21,-0.04 0.28,-0.11 0.07,-0.08 0.11,-0.17 0.11,-0.29 v -6.51 c 0,-1.49 -0.4,-2.61 -1.21,-3.34 -0.81,-0.73 -1.95,-1.1 -3.42,-1.1"
   id="path32" />
	<path
   class="st27"
   d="m 57.69,69.73 c 1.48,0 2.62,-0.37 3.44,-1.1 0.82,-0.74 1.22,-1.85 1.22,-3.34 v -6.51 c 0,-0.12 -0.03,-0.21 -0.11,-0.29 -0.07,-0.07 -0.17,-0.11 -0.28,-0.11 h -1.5 c -0.12,0 -0.22,0.04 -0.29,0.11 -0.08,0.08 -0.11,0.17 -0.11,0.29 v 6.51 c 0,0.84 -0.2,1.48 -0.61,1.9 -0.41,0.43 -0.99,0.64 -1.74,0.64 -0.75,0 -1.33,-0.21 -1.74,-0.64 -0.41,-0.43 -0.61,-1.06 -0.61,-1.9 v -6.51 c 0,-0.12 -0.04,-0.21 -0.11,-0.29 -0.08,-0.07 -0.17,-0.11 -0.29,-0.11 h -1.5 c -0.12,0 -0.22,0.04 -0.29,0.11 -0.07,0.08 -0.11,0.17 -0.11,0.29 v 6.51 c 0,1.49 0.4,2.61 1.21,3.34 0.82,0.73 1.96,1.1 3.42,1.1"
   id="path34" />
	<line
   class="st25"
   x1="0.44999999"
   y1="22.799999"
   x2="706.14001"
   y2="22.799999"
   id="line36" />
	<line
   class="st25"
   x1="-0.43000001"
   y1="42.360001"
   x2="705.25"
   y2="42.360001"
   id="line38" />
	<line
   class="st25"
   x1="0.0099999998"
   y1="47.73"
   x2="705.70001"
   y2="47.73"
   id="line40" />
	<line
   class="st26"
   x1="0.44999999"
   y1="31.73"
   x2="706.14001"
   y2="31.73"
   id="line42" />
	<g
   class="st7"
   id="g52">
		<line
   class="st22"
   x1="350.82999"
   y1="0.16"
   x2="350.82999"
   y2="81.18"
   id="line44" />
		<path
   class="st22"
   d="M 362.45,0.22 V 81.24 M 374.02,0.22 v 81.02"
   id="path46" />
		<path
   class="st21"
   d="m 362.45,43.1 c 0,-1.45 0.38,-2.57 1.12,-3.37 0.75,-0.8 1.88,-1.2 3.4,-1.2 h 6.63 c 0.12,0 0.22,0.04 0.29,0.1 0.08,0.07 0.11,0.16 0.11,0.28 v 1.47 c 0,0.12 -0.04,0.21 -0.11,0.29 -0.08,0.07 -0.17,0.11 -0.29,0.11 h -6.63 c -0.86,0 -1.51,0.2 -1.94,0.6 -0.44,0.4 -0.65,0.97 -0.65,1.7 0,0.74 0.22,1.3 0.65,1.7 0.43,0.4 1.08,0.6 1.94,0.6 h 6.63 c 0.12,0 0.22,0.04 0.29,0.11 0.08,0.08 0.11,0.17 0.11,0.29 v 1.47 c 0,0.12 -0.04,0.21 -0.11,0.28 -0.08,0.07 -0.17,0.1 -0.29,0.1 h -6.63 c -1.52,0 -2.65,-0.4 -3.4,-1.19 -0.75,-0.79 -1.12,-1.9 -1.12,-3.34"
   id="path48" />
		<path
   class="st21"
   d="m 362.41,43.08 c 0,-1.45 -0.38,-2.57 -1.12,-3.37 -0.75,-0.8 -1.88,-1.2 -3.4,-1.2 h -6.63 c -0.12,0 -0.22,0.04 -0.29,0.1 -0.08,0.07 -0.11,0.16 -0.11,0.28 v 1.47 c 0,0.12 0.04,0.21 0.11,0.29 0.08,0.07 0.17,0.11 0.29,0.11 h 6.63 c 0.86,0 1.51,0.2 1.94,0.6 0.44,0.4 0.65,0.97 0.65,1.7 0,0.74 -0.22,1.3 -0.65,1.7 -0.43,0.4 -1.08,0.6 -1.94,0.6 h -6.63 c -0.12,0 -0.22,0.04 -0.29,0.11 -0.08,0.08 -0.11,0.17 -0.11,0.29 v 1.47 c 0,0.12 0.04,0.21 0.11,0.28 0.08,0.07 0.17,0.1 0.29,0.1 h 6.63 c 1.52,0 2.65,-0.4 3.4,-1.19 0.74,-0.78 1.12,-1.9 1.12,-3.34"
   id="path50" />
	</g>
	<g
   class="st7"
   id="g60">
		<path
   class="st21"
   d="m 265.78,40.77 c 0,3.66 -0.88,6.52 -2.63,8.6 -1.75,2.08 -4.39,3.11 -7.9,3.11 h -15.58 c -0.28,0 -0.52,-0.1 -0.71,-0.29 -0.19,-0.19 -0.29,-0.43 -0.29,-0.72 v -5.29 c 0,-0.28 0.09,-0.52 0.29,-0.72 0.19,-0.19 0.43,-0.29 0.71,-0.29 h 15.5 c 1.55,0 2.73,-0.38 3.53,-1.15 0.8,-0.77 1.2,-1.86 1.2,-3.29 0,-1.43 -0.4,-2.52 -1.18,-3.29 -0.79,-0.77 -1.97,-1.15 -3.55,-1.15 h -15.5 c -0.28,0 -0.52,-0.1 -0.71,-0.29 -0.19,-0.19 -0.29,-0.43 -0.29,-0.72 v -5.33 c 0,-0.29 0.09,-0.52 0.29,-0.7 0.19,-0.18 0.43,-0.27 0.71,-0.27 h 15.58 c 3.51,0 6.15,1.04 7.9,3.13 1.75,2.1 2.63,4.98 2.63,8.66"
   id="path54" />
		<line
   class="st22"
   x1="238.67999"
   y1="0.23"
   x2="238.67999"
   y2="81.239998"
   id="line56" />
		<line
   class="st22"
   x1="265.82999"
   y1="0.23"
   x2="265.82999"
   y2="81.239998"
   id="line58" />
	</g>
	<line
   class="st26"
   x1="131.38"
   y1="0.1"
   x2="536.08002"
   y2="0.1"
   id="line62" />
	<line
   class="st6"
   x1="242.53999"
   y1="0.0099999998"
   x2="396.06"
   y2="-0.059999999"
   id="line64" />
	<line
   class="st6"
   x1="130.89999"
   y1="0.07"
   x2="205"
   y2="0.34"
   id="line66" />
</g>
<g
   id="Capa_5">
</g>
<g
   id="Capa_2"
   transform="matrix(2.0005557,0,0,2.0005557,-32.787305,-7.2131806)">
	<path
   class="st37"
   d="m 54.2,22.76 c 9.07,0 13.61,6.68 13.61,14.47 0.11,3.55 0,5.58 0,10.02 h -3.4 c 0,0 -2.99,6.35 2.27,10.02 0,0.22 -19.4,6.28 -23.82,-12.24 0,0.22 10.03,6.23 15.88,4.45 0,0 2.28,-8.31 0.59,-13.34 C 57.14,29.63 47.45,31.46 42.87,34.07 31.49,40.56 27.88,50.63 23.58,58.38 23.57,58.38 26.4,22.76 54.2,22.76"
   id="path70" />
	<path
   class="st38"
   d="m 195.51,58.75 c -3.71,0 -6.62,-0.88 -8.73,-2.63 -2.11,-1.75 -3.24,-4.33 -3.37,-7.71 -0.03,-0.69 -0.04,-1.81 -0.04,-3.36 0,-1.58 0.01,-2.72 0.04,-3.43 0.13,-3.31 1.26,-5.86 3.4,-7.65 2.14,-1.79 5.04,-2.69 8.69,-2.69 2.31,0 4.38,0.37 6.21,1.11 1.83,0.74 3.27,1.81 4.34,3.21 1.06,1.4 1.62,3.05 1.67,4.96 0,0.23 -0.09,0.42 -0.25,0.57 -0.17,0.15 -0.37,0.23 -0.6,0.23 h -5.52 c -0.36,0 -0.63,-0.07 -0.8,-0.21 -0.17,-0.14 -0.32,-0.4 -0.45,-0.78 -0.36,-1.25 -0.92,-2.12 -1.65,-2.62 -0.74,-0.5 -1.72,-0.74 -2.94,-0.74 -2.93,0 -4.45,1.6 -4.55,4.81 -0.03,0.69 -0.04,1.74 -0.04,3.17 0,1.42 0.01,2.51 0.04,3.24 0.1,3.21 1.62,4.81 4.55,4.81 1.19,0 2.17,-0.26 2.94,-0.76 0.77,-0.51 1.32,-1.37 1.65,-2.6 0.1,-0.38 0.25,-0.64 0.43,-0.78 0.18,-0.14 0.45,-0.21 0.82,-0.21 h 5.52 c 0.23,0 0.43,0.08 0.6,0.23 0.17,0.15 0.25,0.34 0.25,0.57 -0.05,1.91 -0.61,3.56 -1.67,4.96 -1.06,1.4 -2.51,2.47 -4.34,3.21 -1.82,0.72 -3.89,1.09 -6.2,1.09 m -27.6,0 c -3.76,0 -6.7,-0.9 -8.83,-2.69 -2.13,-1.79 -3.26,-4.36 -3.38,-7.69 -0.03,-0.71 -0.04,-1.87 -0.04,-3.47 0,-1.6 0.01,-2.77 0.04,-3.51 0.1,-3.21 1.24,-5.69 3.4,-7.46 2.17,-1.77 5.1,-2.65 8.81,-2.65 2.49,0 4.66,0.39 6.52,1.18 1.85,0.79 3.27,1.8 4.24,3.03 0.97,1.23 1.49,2.5 1.54,3.8 0,0.23 -0.08,0.43 -0.25,0.59 -0.17,0.17 -0.37,0.25 -0.6,0.25 h -6.03 c -0.26,0 -0.46,-0.04 -0.6,-0.13 -0.14,-0.09 -0.28,-0.22 -0.41,-0.4 -0.31,-0.71 -0.81,-1.32 -1.5,-1.83 -0.69,-0.51 -1.65,-0.76 -2.9,-0.76 -3.01,0 -4.57,1.53 -4.67,4.58 -0.03,0.71 -0.04,1.81 -0.04,3.28 0,1.48 0.01,2.58 0.04,3.32 0.1,3.23 1.69,4.85 4.75,4.85 1.5,0 2.7,-0.37 3.58,-1.11 0.88,-0.74 1.32,-1.86 1.32,-3.36 v -0.69 h -3.46 c -0.28,0 -0.52,-0.1 -0.72,-0.29 -0.2,-0.19 -0.29,-0.43 -0.29,-0.71 V 43.9 c 0,-0.28 0.1,-0.52 0.29,-0.71 0.19,-0.19 0.43,-0.29 0.72,-0.29 h 9.88 c 0.28,0 0.53,0.1 0.72,0.29 0.19,0.19 0.29,0.43 0.29,0.71 v 4.43 c 0,2.16 -0.51,4.03 -1.54,5.59 -1.02,1.57 -2.47,2.76 -4.34,3.59 -1.87,0.82 -4.05,1.24 -6.54,1.24 M 142.29,43.71 c 1.06,0 1.9,-0.27 2.51,-0.82 0.61,-0.55 0.91,-1.35 0.91,-2.42 0,-0.99 -0.28,-1.79 -0.84,-2.4 -0.56,-0.61 -1.42,-0.92 -2.59,-0.92 h -4.36 v 6.57 h 4.37 z m -10.81,14.66 c -0.26,0 -0.49,-0.1 -0.68,-0.29 -0.2,-0.19 -0.29,-0.41 -0.29,-0.67 V 32.64 c 0,-0.28 0.09,-0.52 0.27,-0.71 0.18,-0.19 0.41,-0.29 0.7,-0.29 h 11.01 c 3.37,0 6.02,0.75 7.94,2.25 1.92,1.5 2.88,3.7 2.88,6.61 0,2.91 -0.96,5.07 -2.88,6.51 -1.92,1.44 -4.57,2.16 -7.94,2.16 h -4.44 v 8.25 c 0,0.25 -0.09,0.48 -0.27,0.67 -0.18,0.19 -0.42,0.29 -0.7,0.29 h -5.6 z m -22.94,0 c -0.26,0 -0.49,-0.1 -0.68,-0.29 -0.19,-0.19 -0.29,-0.41 -0.29,-0.67 V 32.6 c 0,-0.28 0.1,-0.51 0.29,-0.69 0.2,-0.18 0.42,-0.27 0.68,-0.27 h 5.45 c 0.29,0 0.52,0.09 0.7,0.27 0.18,0.18 0.27,0.41 0.27,0.69 v 19.77 h 11.67 c 0.29,0 0.53,0.1 0.72,0.29 0.19,0.19 0.29,0.43 0.29,0.71 v 4.05 c 0,0.28 -0.1,0.51 -0.29,0.69 -0.19,0.18 -0.43,0.27 -0.72,0.27 h -18.09 z m -17.33,0.38 c -3.68,0 -6.57,-0.88 -8.66,-2.63 -2.09,-1.76 -3.13,-4.39 -3.13,-7.9 V 32.64 c 0,-0.28 0.09,-0.52 0.27,-0.71 0.18,-0.19 0.41,-0.29 0.7,-0.29 h 5.33 c 0.28,0 0.52,0.09 0.72,0.29 0.19,0.19 0.29,0.43 0.29,0.71 v 15.5 c 0,1.58 0.38,2.76 1.15,3.55 0.76,0.79 1.86,1.18 3.29,1.18 1.43,0 2.52,-0.4 3.29,-1.2 0.76,-0.8 1.15,-1.98 1.15,-3.53 v -15.5 c 0,-0.28 0.1,-0.52 0.29,-0.71 0.2,-0.19 0.43,-0.29 0.72,-0.29 h 5.29 c 0.29,0 0.53,0.09 0.72,0.29 0.19,0.19 0.29,0.43 0.29,0.71 v 15.58 c 0,3.51 -1.04,6.15 -3.11,7.9 -2.07,1.75 -4.94,2.63 -8.6,2.63"
   id="path72" />
	<path
   class="st37"
   d="m 235.25,58.38 h 3.13 c 0.16,0 0.28,-0.13 0.28,-0.28 V 31.97 c 0,-0.16 -0.13,-0.28 -0.28,-0.28 h -3.13 c -0.16,0 -0.28,0.13 -0.28,0.28 V 58.1 c -0.01,0.15 0.12,0.28 0.28,0.28 z"
   id="path74" />
	<g
   id="g84">
		<g
   id="g82">
			<path
   class="st36"
   d="m 267.18,52.4 c -0.89,-1.97 -1.33,-4.39 -1.33,-7 0,-2.61 0.44,-5.03 1.33,-7 1.92,-4.14 5.97,-6.31 12.97,-6.31 8.98,0 12.67,4.98 12.67,12.43 v 1.33 c 0,1.09 -0.69,1.33 -1.53,1.33 h -16.72 c 0.44,3.85 2.71,4.83 6.26,4.83 2.32,0 4.59,-0.39 7.2,-1.87 0.54,-0.29 1.04,-0.64 1.48,-0.1 l 2.91,3.8 c 0.39,0.49 0.69,1.13 0.05,1.53 -3.89,2.42 -7.2,3.35 -12.13,3.35 -7.2,-0.01 -11.24,-2.17 -13.16,-6.32 z m 17.3,-10.11 c -0.15,-1.87 -1.03,-3.94 -4.73,-3.94 -2.66,0 -4.29,1.18 -4.93,3.94 z"
   id="path76" />
			<path
   class="st36"
   d="m 299.08,32.58 h 21.7 c 0.54,0 0.99,0.44 0.99,0.99 V 38 c 0,0.54 -0.44,0.99 -0.99,0.99 h -6.61 v 12.82 h 6.61 c 0.54,0 0.99,0.44 0.99,0.99 v 4.44 c 0,0.54 -0.44,0.99 -0.99,0.99 h -21.7 c -0.54,0 -0.99,-0.44 -0.99,-0.99 V 52.8 c 0,-0.54 0.44,-0.99 0.99,-0.99 h 6.61 V 38.99 h -6.61 c -0.54,0 -0.99,-0.44 -0.99,-0.99 v -4.44 c 0.01,-0.54 0.45,-0.98 0.99,-0.98 z"
   id="path78" />
			<path
   class="st36"
   d="m 328.19,32.58 h 21.7 c 0.54,0 0.99,0.44 0.99,0.99 v 4.68 c 0,0.54 -0.44,0.99 -0.99,0.99 h -21.7 c -0.54,0 -0.99,-0.44 -0.99,-0.99 v -4.68 c 0.01,-0.55 0.45,-0.99 0.99,-0.99 z m -0.98,19.97 c 0,-0.54 0.44,-0.99 0.99,-0.99 h 21.7 c 0.54,0 0.99,0.44 0.99,0.99 v 4.69 c 0,0.54 -0.44,0.99 -0.99,0.99 h -21.7 c -0.54,0 -0.99,-0.44 -0.99,-0.99 z m 7.35,-9.81 c 0,-0.84 0.69,-1.53 1.53,-1.53 H 342 c 0.84,0 1.53,0.69 1.53,1.53 v 5.28 c 0,0.84 -0.69,1.53 -1.53,1.53 h -5.92 c -0.84,0 -1.53,-0.69 -1.53,-1.53 v -5.28 z"
   id="path80" />
		</g>
	</g>
</g>
<g
   id="Capa_4">
</g>
<g
   id="Capa_3">
</g>
</svg>
