<?xml version="1.0" encoding="utf-8"?>
<!-- Generator: Adobe Illustrator 27.8.1, SVG Export Plug-In . SVG Version: 6.00 Build 0)  -->
<svg version="1.1" xmlns="http://www.w3.org/2000/svg" xmlns:xlink="http://www.w3.org/1999/xlink" x="0px" y="0px"
	 viewBox="0 0 374.45 81.24" style="enable-background:new 0 0 374.45 81.24;" xml:space="preserve">
<style type="text/css">
	.st0{display:none;}
	.st1{display:inline;fill:none;stroke:#009FE3;stroke-width:0.216;stroke-miterlimit:22.9256;}
	.st2{display:inline;fill-rule:evenodd;clip-rule:evenodd;fill:none;stroke:#009FE3;stroke-width:0.216;stroke-miterlimit:22.9256;}
	.st3{display:inline;fill-rule:evenodd;clip-rule:evenodd;fill:none;stroke:#B2B2B2;stroke-width:0.216;stroke-miterlimit:22.9256;}
	.st4{display:inline;fill:#DADADA;}
	.st5{display:inline;fill:none;stroke:#F59A00;stroke-width:0.216;stroke-miterlimit:22.9256;}
	.st6{display:inline;fill:none;stroke:#EF7D00;stroke-width:0.216;stroke-miterlimit:22.9256;}
	.st7{display:inline;}
	.st8{fill-rule:evenodd;clip-rule:evenodd;fill:#DADADA;}
	.st9{fill:none;stroke:#C6C6C6;stroke-width:0.216;stroke-miterlimit:22.9256;}
	.st10{fill:none;stroke:#B2B2B2;stroke-width:0.216;stroke-miterlimit:22.9256;}
	.st11{display:inline;fill:none;stroke:#C6C6C6;stroke-width:0.216;stroke-miterlimit:22.9256;}
	.st12{display:inline;fill:none;stroke:#B2B2B2;stroke-width:0.216;stroke-miterlimit:22.9256;}
	.st13{fill:#DADADA;}
	.st14{fill-rule:evenodd;clip-rule:evenodd;fill:#009640;}
	.st15{display:inline;fill-rule:evenodd;clip-rule:evenodd;fill:#DADADA;}
	
		.st16{display:inline;fill-rule:evenodd;clip-rule:evenodd;fill:none;stroke:#000000;stroke-width:0.2173;stroke-miterlimit:22.9256;}
	
		.st17{display:inline;fill-rule:evenodd;clip-rule:evenodd;fill:none;stroke:#C6C6C6;stroke-width:0.216;stroke-miterlimit:22.9256;}
	
		.st18{display:inline;fill-rule:evenodd;clip-rule:evenodd;fill:none;stroke:#E30613;stroke-width:0.216;stroke-miterlimit:22.9256;}
	.st19{display:inline;fill-rule:evenodd;clip-rule:evenodd;fill:#009640;}
	.st20{display:inline;fill:none;stroke:#EF7D00;stroke-width:0.2175;stroke-miterlimit:22.9256;}
	.st21{fill:#B3B1B1;}
	.st22{fill:none;stroke:#B3B1B1;stroke-width:0.216;stroke-miterlimit:22.926;}
	.st23{display:inline;fill:none;}
	.st24{display:inline;fill:none;stroke:#020203;stroke-width:0.216;stroke-miterlimit:22.926;}
	.st25{display:inline;fill:none;stroke:#289BD3;stroke-width:0.216;stroke-miterlimit:22.926;}
	.st26{display:inline;fill:none;stroke:#F39A10;stroke-width:0.216;stroke-miterlimit:22.926;}
	.st27{display:inline;fill:#B3B1B1;}
	.st28{display:inline;fill:none;stroke:#B3B1B1;stroke-width:0.216;stroke-miterlimit:22.926;}
	.st29{display:inline;fill:none;stroke:#E30613;stroke-width:0.216;stroke-miterlimit:22.9256;}
	.st30{display:inline;fill:none;stroke:#E30613;stroke-width:0.2175;stroke-miterlimit:22.9256;}
	.st31{display:inline;fill:none;stroke:#C6C6C6;stroke-width:0.2175;stroke-miterlimit:22.9256;}
	.st32{fill-rule:evenodd;clip-rule:evenodd;fill:none;stroke:#009FE3;stroke-width:0.216;stroke-miterlimit:22.9256;}
	.st33{fill-rule:evenodd;clip-rule:evenodd;fill:none;stroke:#B2B2B2;stroke-width:0.216;stroke-miterlimit:22.9256;}
	.st34{fill:none;stroke:#E30613;stroke-width:0.2175;stroke-miterlimit:22.9256;}
	.st35{fill:none;stroke:#C6C6C6;stroke-width:0.2175;stroke-miterlimit:22.9256;}
	.st36{fill:#0067A2;}
	.st37{fill:#0467A2;}
	.st38{fill:#F39A10;}
	.st39{fill:#F59A00;}
	.st40{fill-rule:evenodd;clip-rule:evenodd;fill:#0067A2;}
	.st41{fill-rule:evenodd;clip-rule:evenodd;fill:#F59A00;}
	.st42{fill:#FFFFFF;}
	.st43{fill-rule:evenodd;clip-rule:evenodd;fill:#FFFFFF;}
</style>
<g id="Capa_1" class="st0">
	<g class="st7">
		<path class="st21" d="M235.6,40.75c0,3.66-0.88,6.52-2.63,8.6s-4.39,3.11-7.9,3.11h-15.58c-0.28,0-0.52-0.1-0.71-0.29
			c-0.19-0.19-0.29-0.43-0.29-0.72v-5.29c0-0.28,0.09-0.52,0.29-0.72c0.19-0.19,0.43-0.29,0.71-0.29h15.5
			c1.55,0,2.73-0.38,3.53-1.15c0.8-0.77,1.2-1.86,1.2-3.29c0-1.43-0.4-2.52-1.18-3.29c-0.79-0.77-1.97-1.15-3.55-1.15h-15.5
			c-0.28,0-0.52-0.1-0.71-0.29c-0.19-0.19-0.29-0.43-0.29-0.72v-5.33c0-0.29,0.09-0.52,0.29-0.7c0.19-0.18,0.43-0.27,0.71-0.27
			h15.58c3.51,0,6.15,1.04,7.9,3.13C234.72,34.18,235.6,37.06,235.6,40.75"/>
		<line class="st22" x1="208.51" y1="0.2" x2="208.51" y2="81.22"/>
		<line class="st22" x1="235.66" y1="0.2" x2="235.66" y2="81.22"/>
	</g>
	<rect x="0.38" class="st23" width="705.84" height="81.13"/>
	<rect x="0.38" class="st24" width="705.76" height="81.13"/>
	<line class="st25" x1="0.45" y1="58.43" x2="706.14" y2="58.43"/>
	<line class="st26" x1="0.43" y1="0.1" x2="405.13" y2="0.1"/>
	<path class="st27" d="M67.85,42.11c0-1.45,0.38-2.57,1.12-3.37c0.75-0.8,1.89-1.2,3.41-1.2h6.63c0.12,0,0.22,0.04,0.29,0.1
		c0.08,0.07,0.11,0.16,0.11,0.28v1.47c0,0.12-0.04,0.21-0.11,0.29c-0.08,0.07-0.17,0.11-0.29,0.11h-6.63c-0.86,0-1.5,0.2-1.94,0.6
		c-0.43,0.4-0.65,0.97-0.65,1.7c0,0.74,0.22,1.3,0.65,1.7c0.43,0.4,1.08,0.6,1.94,0.6h6.63c0.12,0,0.22,0.04,0.29,0.11
		c0.08,0.08,0.11,0.17,0.11,0.29v1.47c0,0.12-0.04,0.21-0.11,0.28c-0.08,0.07-0.17,0.1-0.29,0.1h-6.63c-1.52,0-2.66-0.4-3.41-1.19
		C68.23,44.66,67.85,43.55,67.85,42.11"/>
	<path class="st27" d="M57.72,11.41c-1.48,0-2.62-0.37-3.44-1.1c-0.82-0.74-1.22-1.85-1.22-3.34V0.46c0-0.12,0.04-0.21,0.11-0.29
		c0.07-0.07,0.17-0.11,0.28-0.11h1.5c0.12,0,0.22,0.04,0.29,0.11c0.08,0.08,0.12,0.17,0.12,0.29v6.51c0,0.84,0.2,1.48,0.61,1.9
		c0.41,0.43,0.99,0.64,1.74,0.64c0.75,0,1.33-0.21,1.74-0.64c0.41-0.43,0.61-1.06,0.61-1.9V0.46c0-0.12,0.04-0.21,0.11-0.29
		c0.08-0.07,0.17-0.11,0.29-0.11h1.5c0.12,0,0.21,0.04,0.28,0.11c0.07,0.08,0.11,0.17,0.11,0.29v6.51c0,1.49-0.4,2.61-1.21,3.34
		C60.33,11.04,59.19,11.41,57.72,11.41"/>
	<path class="st27" d="M57.69,11.41c1.48,0,2.62,0.37,3.44,1.1c0.82,0.74,1.22,1.85,1.22,3.34v6.51c0,0.12-0.03,0.21-0.11,0.29
		c-0.07,0.07-0.17,0.11-0.28,0.11h-1.5c-0.12,0-0.22-0.04-0.29-0.11c-0.08-0.08-0.11-0.17-0.11-0.29v-6.51c0-0.84-0.2-1.48-0.61-1.9
		c-0.41-0.43-0.99-0.64-1.74-0.64s-1.33,0.21-1.74,0.64c-0.41,0.43-0.61,1.06-0.61,1.9v6.51c0,0.12-0.04,0.21-0.11,0.29
		c-0.08,0.07-0.17,0.11-0.29,0.11h-1.5c-0.12,0-0.22-0.04-0.29-0.11c-0.07-0.08-0.11-0.17-0.11-0.29v-6.51
		c0-1.49,0.4-2.61,1.21-3.34C55.09,11.78,56.23,11.41,57.69,11.41"/>
	<line class="st28" x1="79.38" y1="0.06" x2="79.38" y2="81.08"/>
	<path class="st27" d="M12,42.11c0-1.45,0.37-2.57,1.12-3.37c0.75-0.8,1.89-1.2,3.41-1.2h6.63c0.12,0,0.22,0.04,0.29,0.1
		c0.08,0.07,0.11,0.16,0.11,0.28v1.47c0,0.12-0.04,0.21-0.11,0.29c-0.07,0.07-0.17,0.11-0.29,0.11h-6.63c-0.86,0-1.51,0.2-1.94,0.6
		c-0.44,0.4-0.65,0.97-0.65,1.7c0,0.74,0.22,1.3,0.65,1.7c0.43,0.4,1.08,0.6,1.94,0.6h6.63c0.12,0,0.22,0.04,0.29,0.11
		c0.08,0.08,0.11,0.17,0.11,0.29v1.47c0,0.12-0.04,0.21-0.11,0.28c-0.07,0.07-0.17,0.1-0.29,0.1h-6.63c-1.52,0-2.66-0.4-3.41-1.19
		C12.38,44.66,12,43.55,12,42.11"/>
	<path class="st27" d="M12.01,42.11c0-1.45-0.38-2.57-1.12-3.37c-0.75-0.8-1.89-1.2-3.41-1.2H0.84c-0.12,0-0.22,0.04-0.29,0.1
		c-0.08,0.07-0.11,0.16-0.11,0.28v1.47c0,0.12,0.04,0.21,0.11,0.29c0.08,0.07,0.17,0.11,0.29,0.11h6.63c0.86,0,1.51,0.2,1.94,0.6
		c0.43,0.4,0.65,0.97,0.65,1.7c0,0.74-0.22,1.3-0.65,1.7c-0.43,0.4-1.08,0.6-1.94,0.6H0.84c-0.12,0-0.22,0.04-0.29,0.11
		c-0.08,0.08-0.11,0.17-0.11,0.29v1.47c0,0.12,0.04,0.21,0.11,0.28c0.08,0.07,0.17,0.1,0.29,0.1h6.63c1.52,0,2.66-0.4,3.41-1.19
		C11.63,44.66,12.01,43.55,12.01,42.11"/>
	<path class="st27" d="M57.72,69.73c-1.48,0-2.62,0.37-3.44,1.1c-0.82,0.74-1.22,1.85-1.22,3.34v6.51c0,0.12,0.04,0.21,0.11,0.29
		c0.07,0.07,0.17,0.11,0.28,0.11h1.5c0.12,0,0.22-0.04,0.29-0.11c0.08-0.08,0.12-0.17,0.12-0.29v-6.51c0-0.84,0.2-1.48,0.61-1.9
		c0.41-0.43,0.99-0.64,1.74-0.64c0.75,0,1.33,0.21,1.74,0.64c0.41,0.43,0.61,1.06,0.61,1.9v6.51c0,0.12,0.04,0.21,0.11,0.29
		c0.08,0.07,0.17,0.11,0.29,0.11h1.5c0.12,0,0.21-0.04,0.28-0.11c0.07-0.08,0.11-0.17,0.11-0.29v-6.51c0-1.49-0.4-2.61-1.21-3.34
		C60.33,70.1,59.19,69.73,57.72,69.73"/>
	<path class="st27" d="M57.69,69.73c1.48,0,2.62-0.37,3.44-1.1c0.82-0.74,1.22-1.85,1.22-3.34v-6.51c0-0.12-0.03-0.21-0.11-0.29
		c-0.07-0.07-0.17-0.11-0.28-0.11h-1.5c-0.12,0-0.22,0.04-0.29,0.11c-0.08,0.08-0.11,0.17-0.11,0.29v6.51c0,0.84-0.2,1.48-0.61,1.9
		c-0.41,0.43-0.99,0.64-1.74,0.64s-1.33-0.21-1.74-0.64c-0.41-0.43-0.61-1.06-0.61-1.9v-6.51c0-0.12-0.04-0.21-0.11-0.29
		c-0.08-0.07-0.17-0.11-0.29-0.11h-1.5c-0.12,0-0.22,0.04-0.29,0.11c-0.07,0.08-0.11,0.17-0.11,0.29v6.51c0,1.49,0.4,2.61,1.21,3.34
		C55.09,69.36,56.23,69.73,57.69,69.73"/>
	<line class="st25" x1="0.45" y1="22.8" x2="706.14" y2="22.8"/>
	<line class="st25" x1="-0.43" y1="42.36" x2="705.25" y2="42.36"/>
	<line class="st25" x1="0.01" y1="47.73" x2="705.7" y2="47.73"/>
	<line class="st26" x1="0.45" y1="31.73" x2="706.14" y2="31.73"/>
	<g class="st7">
		<line class="st22" x1="350.83" y1="0.16" x2="350.83" y2="81.18"/>
		<path class="st22" d="M362.45,0.22v81.02 M374.02,0.22v81.02"/>
		<path class="st21" d="M362.45,43.1c0-1.45,0.38-2.57,1.12-3.37c0.75-0.8,1.88-1.2,3.4-1.2h6.63c0.12,0,0.22,0.04,0.29,0.1
			c0.08,0.07,0.11,0.16,0.11,0.28v1.47c0,0.12-0.04,0.21-0.11,0.29c-0.08,0.07-0.17,0.11-0.29,0.11h-6.63c-0.86,0-1.51,0.2-1.94,0.6
			c-0.44,0.4-0.65,0.97-0.65,1.7c0,0.74,0.22,1.3,0.65,1.7c0.43,0.4,1.08,0.6,1.94,0.6h6.63c0.12,0,0.22,0.04,0.29,0.11
			c0.08,0.08,0.11,0.17,0.11,0.29v1.47c0,0.12-0.04,0.21-0.11,0.28c-0.08,0.07-0.17,0.1-0.29,0.1h-6.63c-1.52,0-2.65-0.4-3.4-1.19
			C362.82,45.65,362.45,44.54,362.45,43.1"/>
		<path class="st21" d="M362.41,43.08c0-1.45-0.38-2.57-1.12-3.37c-0.75-0.8-1.88-1.2-3.4-1.2h-6.63c-0.12,0-0.22,0.04-0.29,0.1
			c-0.08,0.07-0.11,0.16-0.11,0.28v1.47c0,0.12,0.04,0.21,0.11,0.29c0.08,0.07,0.17,0.11,0.29,0.11h6.63c0.86,0,1.51,0.2,1.94,0.6
			c0.44,0.4,0.65,0.97,0.65,1.7c0,0.74-0.22,1.3-0.65,1.7c-0.43,0.4-1.08,0.6-1.94,0.6h-6.63c-0.12,0-0.22,0.04-0.29,0.11
			c-0.08,0.08-0.11,0.17-0.11,0.29v1.47c0,0.12,0.04,0.21,0.11,0.28c0.08,0.07,0.17,0.1,0.29,0.1h6.63c1.52,0,2.65-0.4,3.4-1.19
			C362.03,45.64,362.41,44.52,362.41,43.08"/>
	</g>
	<g class="st7">
		<path class="st21" d="M265.78,40.77c0,3.66-0.88,6.52-2.63,8.6s-4.39,3.11-7.9,3.11h-15.58c-0.28,0-0.52-0.1-0.71-0.29
			c-0.19-0.19-0.29-0.43-0.29-0.72v-5.29c0-0.28,0.09-0.52,0.29-0.72c0.19-0.19,0.43-0.29,0.71-0.29h15.5
			c1.55,0,2.73-0.38,3.53-1.15c0.8-0.77,1.2-1.86,1.2-3.29c0-1.43-0.4-2.52-1.18-3.29c-0.79-0.77-1.97-1.15-3.55-1.15h-15.5
			c-0.28,0-0.52-0.1-0.71-0.29c-0.19-0.19-0.29-0.43-0.29-0.72v-5.33c0-0.29,0.09-0.52,0.29-0.7c0.19-0.18,0.43-0.27,0.71-0.27
			h15.58c3.51,0,6.15,1.04,7.9,3.13C264.9,34.21,265.78,37.09,265.78,40.77"/>
		<line class="st22" x1="238.68" y1="0.23" x2="238.68" y2="81.24"/>
		<line class="st22" x1="265.83" y1="0.23" x2="265.83" y2="81.24"/>
	</g>
	<line class="st26" x1="131.38" y1="0.1" x2="536.08" y2="0.1"/>
	<line class="st6" x1="242.54" y1="0.01" x2="396.06" y2="-0.06"/>
	<line class="st6" x1="130.9" y1="0.07" x2="205" y2="0.34"/>
</g>
<g id="Capa_5">
</g>
<g id="Capa_2">
	<path class="st37" d="M54.2,22.76c9.07,0,13.61,6.68,13.61,14.47c0.11,3.55,0,5.58,0,10.02h-3.4c0,0-2.99,6.35,2.27,10.02
		c0,0.22-19.4,6.28-23.82-12.24c0,0.22,10.03,6.23,15.88,4.45c0,0,2.28-8.31,0.59-13.34c-2.19-6.51-11.88-4.68-16.46-2.07
		c-11.38,6.49-14.99,16.56-19.29,24.31C23.57,58.38,26.4,22.76,54.2,22.76"/>
	<path class="st38" d="M195.51,58.75c-3.71,0-6.62-0.88-8.73-2.63s-3.24-4.33-3.37-7.71c-0.03-0.69-0.04-1.81-0.04-3.36
		c0-1.58,0.01-2.72,0.04-3.43c0.13-3.31,1.26-5.86,3.4-7.65c2.14-1.79,5.04-2.69,8.69-2.69c2.31,0,4.38,0.37,6.21,1.11
		c1.83,0.74,3.27,1.81,4.34,3.21c1.06,1.4,1.62,3.05,1.67,4.96c0,0.23-0.09,0.42-0.25,0.57c-0.17,0.15-0.37,0.23-0.6,0.23h-5.52
		c-0.36,0-0.63-0.07-0.8-0.21c-0.17-0.14-0.32-0.4-0.45-0.78c-0.36-1.25-0.92-2.12-1.65-2.62c-0.74-0.5-1.72-0.74-2.94-0.74
		c-2.93,0-4.45,1.6-4.55,4.81c-0.03,0.69-0.04,1.74-0.04,3.17c0,1.42,0.01,2.51,0.04,3.24c0.1,3.21,1.62,4.81,4.55,4.81
		c1.19,0,2.17-0.26,2.94-0.76c0.77-0.51,1.32-1.37,1.65-2.6c0.1-0.38,0.25-0.64,0.43-0.78c0.18-0.14,0.45-0.21,0.82-0.21h5.52
		c0.23,0,0.43,0.08,0.6,0.23c0.17,0.15,0.25,0.34,0.25,0.57c-0.05,1.91-0.61,3.56-1.67,4.96c-1.06,1.4-2.51,2.47-4.34,3.21
		C199.89,58.38,197.82,58.75,195.51,58.75 M167.91,58.75c-3.76,0-6.7-0.9-8.83-2.69c-2.13-1.79-3.26-4.36-3.38-7.69
		c-0.03-0.71-0.04-1.87-0.04-3.47c0-1.6,0.01-2.77,0.04-3.51c0.1-3.21,1.24-5.69,3.4-7.46c2.17-1.77,5.1-2.65,8.81-2.65
		c2.49,0,4.66,0.39,6.52,1.18c1.85,0.79,3.27,1.8,4.24,3.03c0.97,1.23,1.49,2.5,1.54,3.8c0,0.23-0.08,0.43-0.25,0.59
		c-0.17,0.17-0.37,0.25-0.6,0.25h-6.03c-0.26,0-0.46-0.04-0.6-0.13c-0.14-0.09-0.28-0.22-0.41-0.4c-0.31-0.71-0.81-1.32-1.5-1.83
		c-0.69-0.51-1.65-0.76-2.9-0.76c-3.01,0-4.57,1.53-4.67,4.58c-0.03,0.71-0.04,1.81-0.04,3.28c0,1.48,0.01,2.58,0.04,3.32
		c0.1,3.23,1.69,4.85,4.75,4.85c1.5,0,2.7-0.37,3.58-1.11c0.88-0.74,1.32-1.86,1.32-3.36v-0.69h-3.46c-0.28,0-0.52-0.1-0.72-0.29
		c-0.2-0.19-0.29-0.43-0.29-0.71V43.9c0-0.28,0.1-0.52,0.29-0.71c0.19-0.19,0.43-0.29,0.72-0.29h9.88c0.28,0,0.53,0.1,0.72,0.29
		c0.19,0.19,0.29,0.43,0.29,0.71v4.43c0,2.16-0.51,4.03-1.54,5.59c-1.02,1.57-2.47,2.76-4.34,3.59
		C172.58,58.33,170.4,58.75,167.91,58.75 M142.29,43.71c1.06,0,1.9-0.27,2.51-0.82c0.61-0.55,0.91-1.35,0.91-2.42
		c0-0.99-0.28-1.79-0.84-2.4c-0.56-0.61-1.42-0.92-2.59-0.92h-4.36v6.57H142.29z M131.48,58.37c-0.26,0-0.49-0.1-0.68-0.29
		c-0.2-0.19-0.29-0.41-0.29-0.67V32.64c0-0.28,0.09-0.52,0.27-0.71c0.18-0.19,0.41-0.29,0.7-0.29h11.01c3.37,0,6.02,0.75,7.94,2.25
		c1.92,1.5,2.88,3.7,2.88,6.61s-0.96,5.07-2.88,6.51c-1.92,1.44-4.57,2.16-7.94,2.16h-4.44v8.25c0,0.25-0.09,0.48-0.27,0.67
		c-0.18,0.19-0.42,0.29-0.7,0.29H131.48z M108.54,58.37c-0.26,0-0.49-0.1-0.68-0.29c-0.19-0.19-0.29-0.41-0.29-0.67V32.6
		c0-0.28,0.1-0.51,0.29-0.69c0.2-0.18,0.42-0.27,0.68-0.27h5.45c0.29,0,0.52,0.09,0.7,0.27c0.18,0.18,0.27,0.41,0.27,0.69v19.77
		h11.67c0.29,0,0.53,0.1,0.72,0.29c0.19,0.19,0.29,0.43,0.29,0.71v4.05c0,0.28-0.1,0.51-0.29,0.69c-0.19,0.18-0.43,0.27-0.72,0.27
		H108.54z M91.21,58.75c-3.68,0-6.57-0.88-8.66-2.63c-2.09-1.76-3.13-4.39-3.13-7.9V32.64c0-0.28,0.09-0.52,0.27-0.71
		c0.18-0.19,0.41-0.29,0.7-0.29h5.33c0.28,0,0.52,0.09,0.72,0.29c0.19,0.19,0.29,0.43,0.29,0.71v15.5c0,1.58,0.38,2.76,1.15,3.55
		c0.76,0.79,1.86,1.18,3.29,1.18c1.43,0,2.52-0.4,3.29-1.2c0.76-0.8,1.15-1.98,1.15-3.53v-15.5c0-0.28,0.1-0.52,0.29-0.71
		c0.2-0.19,0.43-0.29,0.72-0.29h5.29c0.29,0,0.53,0.09,0.72,0.29c0.19,0.19,0.29,0.43,0.29,0.71v15.58c0,3.51-1.04,6.15-3.11,7.9
		S94.87,58.75,91.21,58.75"/>
	<path class="st37" d="M235.25,58.38h3.13c0.16,0,0.28-0.13,0.28-0.28V31.97c0-0.16-0.13-0.28-0.28-0.28h-3.13
		c-0.16,0-0.28,0.13-0.28,0.28v26.13C234.96,58.25,235.09,58.38,235.25,58.38z"/>
	<g>
		<g>
			<path class="st36" d="M267.18,52.4c-0.89-1.97-1.33-4.39-1.33-7c0-2.61,0.44-5.03,1.33-7c1.92-4.14,5.97-6.31,12.97-6.31
				c8.98,0,12.67,4.98,12.67,12.43v1.33c0,1.09-0.69,1.33-1.53,1.33h-16.72c0.44,3.85,2.71,4.83,6.26,4.83
				c2.32,0,4.59-0.39,7.2-1.87c0.54-0.29,1.04-0.64,1.48-0.1l2.91,3.8c0.39,0.49,0.69,1.13,0.05,1.53
				c-3.89,2.42-7.2,3.35-12.13,3.35C273.14,58.71,269.1,56.55,267.18,52.4z M284.48,42.29c-0.15-1.87-1.03-3.94-4.73-3.94
				c-2.66,0-4.29,1.18-4.93,3.94H284.48z"/>
			<path class="st36" d="M299.08,32.58h21.7c0.54,0,0.99,0.44,0.99,0.99V38c0,0.54-0.44,0.99-0.99,0.99h-6.61v12.82h6.61
				c0.54,0,0.99,0.44,0.99,0.99v4.44c0,0.54-0.44,0.99-0.99,0.99h-21.7c-0.54,0-0.99-0.44-0.99-0.99V52.8
				c0-0.54,0.44-0.99,0.99-0.99h6.61V38.99h-6.61c-0.54,0-0.99-0.44-0.99-0.99v-4.44C298.1,33.02,298.54,32.58,299.08,32.58z"/>
			<path class="st36" d="M328.19,32.58h21.7c0.54,0,0.99,0.44,0.99,0.99v4.68c0,0.54-0.44,0.99-0.99,0.99h-21.7
				c-0.54,0-0.99-0.44-0.99-0.99v-4.68C327.21,33.02,327.65,32.58,328.19,32.58z M327.21,52.55c0-0.54,0.44-0.99,0.99-0.99h21.7
				c0.54,0,0.99,0.44,0.99,0.99v4.69c0,0.54-0.44,0.99-0.99,0.99h-21.7c-0.54,0-0.99-0.44-0.99-0.99V52.55z M334.56,42.74
				c0-0.84,0.69-1.53,1.53-1.53H342c0.84,0,1.53,0.69,1.53,1.53v5.28c0,0.84-0.69,1.53-1.53,1.53h-5.92c-0.84,0-1.53-0.69-1.53-1.53
				V42.74z"/>
		</g>
	</g>
</g>
<g id="Capa_4">
</g>
<g id="Capa_3">
</g>
</svg>
