<?xml version="1.0" encoding="utf-8"?>
<!-- Generator: Adobe Illustrator 28.0.0, SVG Export Plug-In . SVG Version: 6.00 Build 0)  -->
<svg version="1.1" xmlns="http://www.w3.org/2000/svg" xmlns:xlink="http://www.w3.org/1999/xlink" x="0px" y="0px"
	 viewBox="0 0 97.28 123.17" style="enable-background:new 0 0 97.28 123.17;" xml:space="preserve">
<style type="text/css">
	.st0{fill:#0067A2;}
	.st1{display:none;}
	.st2{display:inline;fill-rule:evenodd;clip-rule:evenodd;fill:none;stroke:#000000;stroke-width:0.216;stroke-miterlimit:22.9256;}
	.st3{display:inline;}
	.st4{fill:#DADADA;}
	.st5{fill:none;stroke:#C6C6C6;stroke-width:0.216;stroke-miterlimit:22.9256;}
	.st6{fill:none;stroke:#B2B2B2;stroke-width:0.216;stroke-miterlimit:22.9256;}
	.st7{fill:none;stroke:#009FE3;stroke-width:0.216;stroke-miterlimit:22.9256;}
	.st8{fill:none;stroke:#EF7D00;stroke-width:0.216;stroke-miterlimit:22.9256;}
	.st9{fill:none;stroke:#F59A00;stroke-width:0.216;stroke-miterlimit:22.9256;}
	.st10{fill:none;stroke:#E30613;stroke-width:0.216;stroke-miterlimit:22.9256;}
	.st11{fill:none;stroke:#009640;stroke-width:0.216;stroke-miterlimit:22.9256;}
	
		.st12{display:inline;fill-rule:evenodd;clip-rule:evenodd;fill:none;stroke:#F59A00;stroke-width:0.216;stroke-miterlimit:22.9256;}
	
		.st13{display:inline;fill-rule:evenodd;clip-rule:evenodd;fill:none;stroke:#C6C6C6;stroke-width:0.216;stroke-miterlimit:22.9256;}
	
		.st14{display:inline;fill-rule:evenodd;clip-rule:evenodd;fill:none;stroke:#B2B2B2;stroke-width:0.216;stroke-miterlimit:22.9256;}
	
		.st15{display:inline;fill-rule:evenodd;clip-rule:evenodd;fill:none;stroke:#E30613;stroke-width:0.216;stroke-miterlimit:22.9256;}
	.st16{display:inline;fill:#DADADA;}
	.st17{display:inline;fill-rule:evenodd;clip-rule:evenodd;fill:#009640;}
	.st18{display:inline;fill:none;stroke:#F59A00;stroke-width:0.216;stroke-miterlimit:22.9256;}
	.st19{display:inline;fill:none;stroke:#EF7D00;stroke-width:0.216;stroke-miterlimit:22.9256;}
	.st20{display:inline;fill:none;stroke:#E30613;stroke-width:0.216;stroke-miterlimit:22.9256;}
	
		.st21{display:inline;fill-rule:evenodd;clip-rule:evenodd;fill:none;stroke:#009FE3;stroke-width:0.216;stroke-miterlimit:22.9256;}
	.st22{display:inline;fill-rule:evenodd;clip-rule:evenodd;fill:#F59A00;}
	.st23{display:inline;fill:none;stroke:#009FE3;stroke-width:0.216;stroke-miterlimit:22.9256;}
	.st24{fill-rule:evenodd;clip-rule:evenodd;fill:none;stroke:#B2B2B2;stroke-width:0.216;stroke-miterlimit:22.9256;}
	.st25{fill-rule:evenodd;clip-rule:evenodd;fill:none;stroke:#009FE3;stroke-width:0.216;stroke-miterlimit:22.9256;}
	.st26{fill-rule:evenodd;clip-rule:evenodd;fill:#009640;}
	.st27{fill:#F59A00;}
	.st28{fill-rule:evenodd;clip-rule:evenodd;fill:#0067A2;}
	.st29{fill-rule:evenodd;clip-rule:evenodd;fill:#F59A00;}
	.st30{fill-rule:evenodd;clip-rule:evenodd;fill:#FFFFFF;}
	.st31{fill:#FFFFFF;}
	.st32{font-family:'Rubik-Medium';}
	.st33{font-size:12.1405px;}
	.st34{font-family:'Rubik-Bold';}
</style>
<g id="Capa_3">
</g>
<g id="Capa_2" class="st1">
	<path class="st16" d="M89.59,53.04c0-1.1,0.28-1.96,0.84-2.57c0.56-0.61,1.41-0.91,2.54-0.91h4.95c0.09,0,0.16,0.03,0.22,0.08
		c0.06,0.05,0.08,0.12,0.08,0.21v1.12c0,0.09-0.03,0.16-0.08,0.22c-0.06,0.06-0.13,0.09-0.22,0.09h-4.95
		c-0.64,0-1.12,0.15-1.45,0.46c-0.32,0.3-0.49,0.74-0.49,1.3c0,0.56,0.16,0.99,0.49,1.3c0.32,0.3,0.81,0.46,1.45,0.46h4.95
		c0.09,0,0.16,0.03,0.22,0.09c0.06,0.06,0.08,0.13,0.08,0.22v1.12c0,0.09-0.03,0.16-0.08,0.21c-0.06,0.05-0.13,0.08-0.22,0.08h-4.95
		c-1.14,0-1.98-0.3-2.54-0.91C89.87,54.98,89.59,54.13,89.59,53.04z"/>
	<path class="st16" d="M89.59,68.54c0-1.1,0.28-1.96,0.84-2.57c0.56-0.61,1.41-0.91,2.54-0.91h4.95c0.09,0,0.16,0.03,0.22,0.08
		c0.06,0.05,0.09,0.12,0.09,0.21v1.12c0,0.09-0.03,0.16-0.09,0.22c-0.06,0.06-0.13,0.09-0.22,0.09h-4.95
		c-0.64,0-1.12,0.15-1.45,0.46c-0.32,0.3-0.49,0.74-0.49,1.3c0,0.56,0.16,0.99,0.49,1.3c0.32,0.3,0.81,0.46,1.45,0.46h4.95
		c0.09,0,0.16,0.03,0.22,0.09c0.06,0.06,0.09,0.13,0.09,0.22v1.12c0,0.09-0.03,0.16-0.09,0.21c-0.06,0.05-0.13,0.08-0.22,0.08h-4.95
		c-1.14,0-1.98-0.3-2.54-0.91C89.87,70.48,89.59,69.63,89.59,68.54z"/>
	<path class="st16" d="M89.59,75.45c0,1.1,0.28,1.96,0.84,2.57c0.56,0.61,1.41,0.91,2.54,0.91h4.95c0.09,0,0.16-0.03,0.22-0.08
		c0.06-0.05,0.08-0.12,0.08-0.21v-1.12c0-0.09-0.03-0.16-0.08-0.22c-0.06-0.06-0.13-0.09-0.22-0.09h-4.95
		c-0.64,0-1.12-0.15-1.45-0.46c-0.32-0.3-0.49-0.74-0.49-1.3c0-0.56,0.16-0.99,0.49-1.3c0.32-0.3,0.81-0.46,1.45-0.46h4.95
		c0.09,0,0.16-0.03,0.22-0.09c0.06-0.06,0.08-0.13,0.08-0.22v-1.12c0-0.09-0.03-0.16-0.08-0.21c-0.06-0.05-0.13-0.08-0.22-0.08
		h-4.95c-1.14,0-1.98,0.3-2.54,0.91C89.87,73.51,89.59,74.36,89.59,75.45z"/>
	<path class="st16" d="M89.59,82.41c0-1.1,0.28-1.96,0.84-2.57c0.56-0.61,1.41-0.91,2.54-0.91h4.95c0.09,0,0.16,0.03,0.22,0.08
		c0.06,0.05,0.08,0.12,0.08,0.21v1.12c0,0.09-0.03,0.16-0.08,0.22c-0.06,0.06-0.13,0.09-0.22,0.09h-4.95
		c-0.64,0-1.12,0.15-1.45,0.46c-0.32,0.3-0.49,0.74-0.49,1.3c0,0.56,0.16,0.99,0.49,1.3c0.32,0.3,0.81,0.46,1.45,0.46h4.95
		c0.09,0,0.16,0.03,0.22,0.09c0.06,0.06,0.08,0.13,0.08,0.22v1.12c0,0.09-0.03,0.16-0.08,0.21c-0.06,0.05-0.13,0.08-0.22,0.08h-4.95
		c-1.14,0-1.98-0.3-2.54-0.91C89.87,84.36,89.59,83.51,89.59,82.41z"/>
	<g class="st3">
		<path class="st4" d="M37.21,8.7c-1.1,0-1.95-0.28-2.56-0.84c-0.61-0.56-0.91-1.4-0.91-2.54V0.38c0-0.09,0.03-0.16,0.08-0.22
			c0.05-0.06,0.12-0.09,0.21-0.09h1.12c0.09,0,0.16,0.03,0.22,0.09c0.06,0.06,0.09,0.13,0.09,0.22v4.94c0,0.64,0.15,1.12,0.46,1.44
			s0.73,0.49,1.29,0.49c0.56,0,0.99-0.16,1.29-0.49s0.46-0.81,0.46-1.44V0.38c0-0.09,0.03-0.16,0.08-0.22
			c0.06-0.06,0.13-0.09,0.22-0.09h1.12c0.09,0,0.16,0.03,0.21,0.09c0.05,0.06,0.08,0.13,0.08,0.22v4.94c0,1.13-0.3,1.98-0.9,2.54
			C39.15,8.42,38.3,8.7,37.21,8.7z"/>
		<path class="st4" d="M37.21,8.7c-1.1,0-1.95,0.28-2.56,0.84c-0.61,0.56-0.91,1.4-0.91,2.54v4.94c0,0.09,0.03,0.16,0.08,0.22
			c0.05,0.06,0.12,0.08,0.21,0.08h1.12c0.09,0,0.16-0.03,0.22-0.08c0.06-0.06,0.09-0.13,0.09-0.22v-4.94c0-0.64,0.15-1.12,0.46-1.44
			s0.73-0.49,1.29-0.49c0.56,0,0.99,0.16,1.29,0.49s0.46,0.81,0.46,1.44v4.94c0,0.09,0.03,0.16,0.08,0.22
			c0.06,0.06,0.13,0.08,0.22,0.08h1.12c0.09,0,0.16-0.03,0.21-0.08c0.05-0.06,0.08-0.13,0.08-0.22v-4.94c0-1.13-0.3-1.98-0.9-2.54
			C39.15,8.98,38.3,8.7,37.21,8.7z"/>
	</g>
	<line class="st18" x1="0.14" y1="101.41" x2="176.54" y2="101.41"/>
	<line class="st18" x1="0.14" y1="94.47" x2="106.87" y2="94.47"/>
	<g class="st3">
		<line class="st9" x1="0.14" y1="71.99" x2="176.54" y2="71.99"/>
		<line class="st9" x1="0.14" y1="65.06" x2="176.54" y2="65.06"/>
		<line class="st9" x1="0.14" y1="49.56" x2="176.54" y2="49.56"/>
		<line class="st9" x1="0.14" y1="56.49" x2="176.54" y2="56.49"/>
		<line class="st9" x1="0.14" y1="78.93" x2="176.54" y2="78.93"/>
		<line class="st10" x1="0.14" y1="85.87" x2="176.54" y2="85.87"/>
		<line class="st8" x1="0.14" y1="17.43" x2="176.54" y2="17.43"/>
		<line class="st8" x1="0.14" y1="0.08" x2="176.54" y2="0.08"/>
	</g>
	<line class="st20" x1="0.14" y1="106.36" x2="176.54" y2="106.36"/>
	<line class="st23" x1="0.14" y1="113.3" x2="176.54" y2="113.3"/>
	<line class="st23" x1="0.14" y1="113.35" x2="176.63" y2="113.35"/>
	<line class="st23" x1="0.14" y1="113.34" x2="176.63" y2="113.34"/>
	<line class="st18" x1="0.14" y1="113.3" x2="176.63" y2="113.3"/>
	<line class="st18" x1="0.14" y1="109.83" x2="176.63" y2="109.83"/>
	<line class="st20" x1="0.17" y1="118.12" x2="176.66" y2="118.12"/>
	<line class="st18" x1="0.17" y1="121.59" x2="176.66" y2="121.59"/>
	<g class="st3">
		<path class="st4" d="M0.14,68.51c0,1.1,0.28,1.96,0.84,2.57c0.56,0.61,1.41,0.91,2.54,0.91h4.95c0.09,0,0.16-0.03,0.22-0.08
			c0.06-0.05,0.09-0.12,0.09-0.21v-1.12c0-0.09-0.03-0.16-0.09-0.22c-0.06-0.06-0.13-0.09-0.22-0.09H3.53
			c-0.64,0-1.12-0.15-1.45-0.46c-0.32-0.3-0.49-0.74-0.49-1.3c0-0.56,0.16-0.99,0.49-1.3c0.32-0.3,0.81-0.46,1.45-0.46h4.95
			c0.09,0,0.16-0.03,0.22-0.08c0.06-0.06,0.09-0.13,0.09-0.22v-1.12c0-0.09-0.03-0.16-0.09-0.21c-0.06-0.05-0.13-0.08-0.22-0.08
			H3.53c-1.14,0-1.98,0.3-2.54,0.91C0.42,66.57,0.14,67.42,0.14,68.51z"/>
		<path class="st4" d="M8.88,68.51c0,1.1,0.28,1.96,0.84,2.57c0.56,0.61,1.41,0.91,2.54,0.91h4.95c0.09,0,0.16-0.03,0.22-0.08
			c0.06-0.05,0.08-0.12,0.08-0.21v-1.12c0-0.09-0.03-0.16-0.08-0.22c-0.06-0.06-0.13-0.09-0.22-0.09h-4.95
			c-0.64,0-1.12-0.15-1.45-0.46c-0.32-0.3-0.49-0.74-0.49-1.3c0-0.56,0.16-0.99,0.49-1.3c0.32-0.3,0.81-0.46,1.45-0.46h4.95
			c0.09,0,0.16-0.03,0.22-0.08c0.06-0.06,0.08-0.13,0.08-0.22v-1.12c0-0.09-0.03-0.16-0.08-0.21c-0.06-0.05-0.13-0.08-0.22-0.08
			h-4.95c-1.14,0-1.98,0.3-2.54,0.91C9.16,66.57,8.88,67.42,8.88,68.51z"/>
		<path class="st4" d="M8.88,75.48c0-1.1,0.28-1.96,0.84-2.57c0.56-0.61,1.41-0.91,2.54-0.91h4.95c0.09,0,0.16,0.03,0.22,0.08
			c0.06,0.05,0.08,0.12,0.08,0.21v1.12c0,0.09-0.03,0.16-0.08,0.22c-0.06,0.06-0.13,0.08-0.22,0.08h-4.95
			c-0.64,0-1.12,0.15-1.45,0.46c-0.32,0.3-0.49,0.74-0.49,1.3c0,0.56,0.16,0.99,0.49,1.3c0.32,0.3,0.81,0.46,1.45,0.46h4.95
			c0.09,0,0.16,0.03,0.22,0.09c0.06,0.06,0.08,0.13,0.08,0.22v1.12c0,0.09-0.03,0.16-0.08,0.21c-0.06,0.05-0.13,0.08-0.22,0.08
			h-4.95c-1.14,0-1.98-0.3-2.54-0.91C9.16,77.42,8.88,76.57,8.88,75.48z"/>
		<path class="st4" d="M0.14,75.48c0-1.1,0.28-1.96,0.84-2.57c0.56-0.61,1.41-0.91,2.54-0.91h4.95c0.09,0,0.16,0.03,0.22,0.08
			c0.06,0.05,0.09,0.12,0.09,0.21v1.12c0,0.09-0.03,0.16-0.09,0.22c-0.06,0.06-0.13,0.08-0.22,0.08H3.53
			c-0.64,0-1.12,0.15-1.45,0.46c-0.32,0.3-0.49,0.74-0.49,1.3c0,0.56,0.16,0.99,0.49,1.3c0.32,0.3,0.81,0.46,1.45,0.46h4.95
			c0.09,0,0.16,0.03,0.22,0.09c0.06,0.06,0.09,0.13,0.09,0.22v1.12c0,0.09-0.03,0.16-0.09,0.21c-0.06,0.05-0.13,0.08-0.22,0.08H3.53
			c-1.14,0-1.98-0.3-2.54-0.91C0.42,77.42,0.14,76.57,0.14,75.48z"/>
		<line class="st6" x1="17.53" y1="0.08" x2="17.53" y2="204.21"/>
		<line class="st6" x1="8.88" y1="0.08" x2="8.88" y2="204.21"/>
		<line class="st6" x1="0.14" y1="0.08" x2="0.14" y2="204.21"/>
		<path class="st4" d="M8.88,82.39c0,1.1,0.28,1.96,0.84,2.57c0.56,0.61,1.41,0.91,2.54,0.91h4.95c0.09,0,0.16-0.03,0.22-0.08
			c0.06-0.05,0.08-0.12,0.08-0.21v-1.12c0-0.09-0.03-0.16-0.08-0.22c-0.06-0.06-0.13-0.09-0.22-0.09h-4.95
			c-0.64,0-1.12-0.15-1.45-0.46c-0.32-0.3-0.49-0.74-0.49-1.3c0-0.56,0.16-0.99,0.49-1.3c0.32-0.3,0.81-0.46,1.45-0.46h4.95
			c0.09,0,0.16-0.03,0.22-0.09c0.06-0.06,0.08-0.13,0.08-0.22v-1.12c0-0.09-0.03-0.16-0.08-0.21c-0.06-0.05-0.13-0.08-0.22-0.08
			h-4.95c-1.14,0-1.98,0.3-2.54,0.91C9.16,80.44,8.88,81.29,8.88,82.39z"/>
		<path class="st4" d="M0.14,82.39c0,1.1,0.28,1.96,0.84,2.57c0.56,0.61,1.41,0.91,2.54,0.91h4.95c0.09,0,0.16-0.03,0.22-0.08
			c0.06-0.05,0.09-0.12,0.09-0.21v-1.12c0-0.09-0.03-0.16-0.09-0.22c-0.06-0.06-0.13-0.09-0.22-0.09H3.53
			c-0.64,0-1.12-0.15-1.45-0.46c-0.32-0.3-0.49-0.74-0.49-1.3c0-0.56,0.16-0.99,0.49-1.3c0.32-0.3,0.81-0.46,1.45-0.46h4.95
			c0.09,0,0.16-0.03,0.22-0.09c0.06-0.06,0.09-0.13,0.09-0.22v-1.12c0-0.09-0.03-0.16-0.09-0.21c-0.06-0.05-0.13-0.08-0.22-0.08
			H3.53c-1.14,0-1.98,0.3-2.54,0.91C0.42,80.44,0.14,81.29,0.14,82.39z"/>
		<path class="st4" d="M8.88,97.93c0,1.1,0.28,1.96,0.84,2.57c0.56,0.61,1.41,0.91,2.54,0.91h4.95c0.09,0,0.16-0.03,0.22-0.08
			c0.06-0.05,0.08-0.12,0.08-0.21V100c0-0.09-0.03-0.16-0.08-0.22c-0.06-0.06-0.13-0.09-0.22-0.09h-4.95
			c-0.64,0-1.12-0.15-1.45-0.46c-0.32-0.3-0.49-0.74-0.49-1.3c0-0.56,0.16-0.99,0.49-1.3c0.32-0.3,0.81-0.46,1.45-0.46h4.95
			c0.09,0,0.16-0.03,0.22-0.09c0.06-0.06,0.08-0.13,0.08-0.22v-1.12c0-0.09-0.03-0.16-0.08-0.21c-0.06-0.05-0.13-0.08-0.22-0.08
			h-4.95c-1.14,0-1.98,0.3-2.54,0.91C9.16,95.98,8.88,96.83,8.88,97.93z"/>
		<path class="st4" d="M0.14,97.93c0,1.1,0.28,1.96,0.84,2.57c0.56,0.61,1.41,0.91,2.54,0.91h4.95c0.09,0,0.16-0.03,0.22-0.08
			c0.06-0.05,0.09-0.12,0.09-0.21V100c0-0.09-0.03-0.16-0.09-0.22c-0.06-0.06-0.13-0.09-0.22-0.09H3.53c-0.64,0-1.12-0.15-1.45-0.46
			c-0.32-0.3-0.49-0.74-0.49-1.3c0-0.56,0.16-0.99,0.49-1.3c0.32-0.3,0.81-0.46,1.45-0.46h4.95c0.09,0,0.16-0.03,0.22-0.09
			c0.06-0.06,0.09-0.13,0.09-0.22v-1.12c0-0.09-0.03-0.16-0.09-0.21c-0.06-0.05-0.13-0.08-0.22-0.08H3.53
			c-1.14,0-1.98,0.3-2.54,0.91C0.42,95.98,0.14,96.83,0.14,97.93z"/>
		<path class="st4" d="M8.88,109.82c0,1.1,0.28,1.96,0.84,2.57c0.56,0.61,1.41,0.91,2.54,0.91h4.95c0.09,0,0.16-0.03,0.22-0.08
			c0.06-0.05,0.08-0.12,0.08-0.21v-1.12c0-0.09-0.03-0.16-0.08-0.22c-0.06-0.06-0.13-0.08-0.22-0.08h-4.95
			c-0.64,0-1.12-0.15-1.45-0.46c-0.32-0.3-0.49-0.74-0.49-1.3c0-0.56,0.16-0.99,0.49-1.3c0.32-0.3,0.81-0.46,1.45-0.46h4.95
			c0.09,0,0.16-0.03,0.22-0.09c0.06-0.06,0.08-0.13,0.08-0.22v-1.12c0-0.09-0.03-0.16-0.08-0.21c-0.06-0.05-0.13-0.08-0.22-0.08
			h-4.95c-1.14,0-1.98,0.3-2.54,0.91C9.16,107.87,8.88,108.72,8.88,109.82z"/>
		<path class="st4" d="M0.14,109.82c0,1.1,0.28,1.96,0.84,2.57c0.56,0.61,1.41,0.91,2.54,0.91h4.95c0.09,0,0.16-0.03,0.22-0.08
			c0.06-0.05,0.09-0.12,0.09-0.21v-1.12c0-0.09-0.03-0.16-0.09-0.22c-0.06-0.06-0.13-0.08-0.22-0.08H3.53
			c-0.64,0-1.12-0.15-1.45-0.46c-0.32-0.3-0.49-0.74-0.49-1.3c0-0.56,0.16-0.99,0.49-1.3c0.32-0.3,0.81-0.46,1.45-0.46h4.95
			c0.09,0,0.16-0.03,0.22-0.09c0.06-0.06,0.09-0.13,0.09-0.22v-1.12c0-0.09-0.03-0.16-0.09-0.21c-0.06-0.05-0.13-0.08-0.22-0.08
			H3.53c-1.14,0-1.98,0.3-2.54,0.91C0.42,107.87,0.14,108.72,0.14,109.82z"/>
		<g>
			<path class="st4" d="M0.14,53.04c0-1.1,0.28-1.96,0.85-2.57c0.57-0.61,1.42-0.91,2.57-0.91h5.01c0.09,0,0.16,0.03,0.22,0.08
				c0.06,0.05,0.09,0.12,0.09,0.21v1.12c0,0.09-0.03,0.16-0.09,0.22c-0.06,0.06-0.13,0.09-0.22,0.09H3.57
				c-0.65,0-1.14,0.15-1.47,0.46c-0.33,0.3-0.49,0.74-0.49,1.3c0,0.56,0.16,0.99,0.49,1.3c0.33,0.3,0.82,0.46,1.47,0.46h5.01
				c0.09,0,0.16,0.03,0.22,0.09c0.06,0.06,0.09,0.13,0.09,0.22v1.12c0,0.09-0.03,0.16-0.09,0.21c-0.06,0.05-0.13,0.08-0.22,0.08
				H3.57c-1.15,0-2.01-0.3-2.57-0.91C0.43,54.98,0.14,54.13,0.14,53.04z"/>
			<path class="st4" d="M8.88,53.04c0-1.1,0.28-1.96,0.85-2.57c0.57-0.61,1.42-0.91,2.57-0.91h5.01c0.09,0,0.16,0.03,0.22,0.08
				c0.06,0.05,0.09,0.12,0.09,0.21v1.12c0,0.09-0.03,0.16-0.09,0.22c-0.06,0.06-0.13,0.09-0.22,0.09h-5.01
				c-0.65,0-1.14,0.15-1.47,0.46c-0.33,0.3-0.49,0.74-0.49,1.3c0,0.56,0.16,0.99,0.49,1.3c0.33,0.3,0.82,0.46,1.47,0.46h5.01
				c0.09,0,0.16,0.03,0.22,0.09c0.06,0.06,0.09,0.13,0.09,0.22v1.12c0,0.09-0.03,0.16-0.09,0.21c-0.06,0.05-0.13,0.08-0.22,0.08
				h-5.01c-1.15,0-2.01-0.3-2.57-0.91C9.17,54.98,8.88,54.13,8.88,53.04z"/>
			<rect x="12.31" y="49.55" class="st26" width="3.48" height="1.72"/>
		</g>
		<path class="st4" d="M8.88,109.82c0,1.1,0.28,1.96,0.84,2.57c0.56,0.61,1.41,0.91,2.54,0.91h4.95c0.09,0,0.16-0.03,0.22-0.08
			c0.06-0.05,0.09-0.12,0.09-0.21v-1.12c0-0.09-0.03-0.16-0.09-0.22c-0.06-0.06-0.13-0.08-0.22-0.08h-4.95
			c-0.64,0-1.12-0.15-1.45-0.46c-0.32-0.3-0.49-0.74-0.49-1.3c0-0.56,0.16-0.99,0.49-1.3c0.32-0.3,0.81-0.46,1.45-0.46h4.95
			c0.09,0,0.16-0.03,0.22-0.09c0.06-0.06,0.09-0.13,0.09-0.22v-1.12c0-0.09-0.03-0.16-0.09-0.21c-0.06-0.05-0.13-0.08-0.22-0.08
			h-4.95c-1.14,0-1.98,0.3-2.54,0.91C9.16,107.87,8.88,108.72,8.88,109.82z"/>
		<path class="st4" d="M0.14,109.82c0,1.1,0.28,1.96,0.84,2.57c0.56,0.61,1.41,0.91,2.54,0.91h4.95c0.09,0,0.16-0.03,0.22-0.08
			c0.06-0.05,0.09-0.12,0.09-0.21v-1.12c0-0.09-0.03-0.16-0.09-0.22c-0.06-0.06-0.13-0.08-0.22-0.08H3.53
			c-0.64,0-1.12-0.15-1.45-0.46c-0.32-0.3-0.49-0.74-0.49-1.3c0-0.56,0.16-0.99,0.49-1.3c0.32-0.3,0.81-0.46,1.45-0.46h4.95
			c0.09,0,0.16-0.03,0.22-0.09c0.06-0.06,0.09-0.13,0.09-0.22v-1.12c0-0.09-0.03-0.16-0.09-0.21c-0.06-0.05-0.13-0.08-0.22-0.08
			H3.53c-1.14,0-1.98,0.3-2.54,0.91C0.42,107.87,0.14,108.72,0.14,109.82z"/>
		<path class="st4" d="M8.9,121.58c0,1.1,0.28,1.96,0.84,2.57c0.56,0.61,1.41,0.91,2.54,0.91h4.95c0.09,0,0.16-0.03,0.22-0.08
			c0.06-0.05,0.09-0.12,0.09-0.21v-1.12c0-0.09-0.03-0.16-0.09-0.22c-0.06-0.06-0.13-0.08-0.22-0.08h-4.95
			c-0.64,0-1.12-0.15-1.45-0.46c-0.32-0.3-0.49-0.74-0.49-1.3c0-0.56,0.16-0.99,0.49-1.3c0.32-0.3,0.81-0.46,1.45-0.46h4.95
			c0.09,0,0.16-0.03,0.22-0.09c0.06-0.06,0.09-0.13,0.09-0.22v-1.12c0-0.09-0.03-0.16-0.09-0.21c-0.06-0.05-0.13-0.08-0.22-0.08
			h-4.95c-1.14,0-1.98,0.3-2.54,0.91C9.18,119.63,8.9,120.48,8.9,121.58z"/>
		<path class="st4" d="M0.16,121.58c0,1.1,0.28,1.96,0.84,2.57c0.56,0.61,1.41,0.91,2.54,0.91H8.5c0.09,0,0.16-0.03,0.22-0.08
			c0.06-0.05,0.09-0.12,0.09-0.21v-1.12c0-0.09-0.03-0.16-0.09-0.22c-0.06-0.06-0.13-0.08-0.22-0.08H3.54
			c-0.64,0-1.12-0.15-1.45-0.46c-0.32-0.3-0.49-0.74-0.49-1.3c0-0.56,0.16-0.99,0.49-1.3c0.32-0.3,0.81-0.46,1.45-0.46H8.5
			c0.09,0,0.16-0.03,0.22-0.09c0.06-0.06,0.09-0.13,0.09-0.22v-1.12c0-0.09-0.03-0.16-0.09-0.21c-0.06-0.05-0.13-0.08-0.22-0.08
			H3.54c-1.14,0-1.98,0.3-2.54,0.91C0.44,119.63,0.16,120.48,0.16,121.58z"/>
	</g>
	<g class="st3">
		<line class="st6" x1="88.48" y1="-4.84" x2="88.48" y2="200.89"/>
		<line class="st6" x1="79.84" y1="-4.84" x2="79.84" y2="200.89"/>
		<line class="st6" x1="97.12" y1="-4.84" x2="97.12" y2="201.28"/>
		<path class="st4" d="M88.56,104.9c0,1.1,0.28,1.96,0.84,2.57c0.56,0.61,1.41,0.91,2.54,0.91h4.95c0.09,0,0.16-0.03,0.22-0.08
			c0.06-0.05,0.08-0.12,0.08-0.21v-1.12c0-0.09-0.03-0.16-0.08-0.22c-0.06-0.06-0.13-0.08-0.22-0.08h-4.95
			c-0.64,0-1.12-0.15-1.45-0.46c-0.32-0.3-0.49-0.74-0.49-1.3c0-0.56,0.16-0.99,0.49-1.3c0.32-0.3,0.81-0.46,1.45-0.46h4.95
			c0.09,0,0.16-0.03,0.22-0.09c0.06-0.06,0.08-0.13,0.08-0.22v-1.12c0-0.09-0.03-0.16-0.08-0.21c-0.06-0.05-0.13-0.08-0.22-0.08
			h-4.95c-1.14,0-1.98,0.3-2.54,0.91C88.84,102.95,88.56,103.8,88.56,104.9z"/>
		<path class="st4" d="M79.82,104.9c0,1.1,0.28,1.96,0.84,2.57c0.56,0.61,1.41,0.91,2.54,0.91h4.95c0.09,0,0.16-0.03,0.22-0.08
			c0.06-0.05,0.09-0.12,0.09-0.21v-1.12c0-0.09-0.03-0.16-0.09-0.22c-0.06-0.06-0.13-0.08-0.22-0.08H83.2
			c-0.64,0-1.12-0.15-1.45-0.46c-0.32-0.3-0.49-0.74-0.49-1.3c0-0.56,0.16-0.99,0.49-1.3c0.32-0.3,0.81-0.46,1.45-0.46h4.95
			c0.09,0,0.16-0.03,0.22-0.09c0.06-0.06,0.09-0.13,0.09-0.22v-1.12c0-0.09-0.03-0.16-0.09-0.21c-0.06-0.05-0.13-0.08-0.22-0.08
			H83.2c-1.14,0-1.98,0.3-2.54,0.91C80.1,102.95,79.82,103.8,79.82,104.9z"/>
		<path class="st4" d="M88.58,116.65c0,1.1,0.28,1.96,0.84,2.57c0.56,0.61,1.41,0.91,2.54,0.91h4.95c0.09,0,0.16-0.03,0.22-0.08
			c0.06-0.05,0.09-0.12,0.09-0.21v-1.12c0-0.09-0.03-0.16-0.09-0.22c-0.06-0.06-0.13-0.09-0.22-0.09h-4.95
			c-0.64,0-1.12-0.15-1.45-0.46c-0.32-0.3-0.49-0.74-0.49-1.3c0-0.56,0.16-0.99,0.49-1.3c0.32-0.3,0.81-0.46,1.45-0.46h4.95
			c0.09,0,0.16-0.03,0.22-0.09c0.06-0.06,0.09-0.13,0.09-0.22v-1.12c0-0.09-0.03-0.16-0.09-0.21c-0.06-0.05-0.13-0.08-0.22-0.08
			h-4.95c-1.14,0-1.98,0.3-2.54,0.91C88.86,114.71,88.58,115.56,88.58,116.65z"/>
		<path class="st4" d="M79.84,116.65c0,1.1,0.28,1.96,0.84,2.57c0.56,0.61,1.41,0.91,2.54,0.91h4.95c0.09,0,0.16-0.03,0.22-0.08
			c0.06-0.05,0.09-0.12,0.09-0.21v-1.12c0-0.09-0.03-0.16-0.09-0.22c-0.06-0.06-0.13-0.09-0.22-0.09h-4.95
			c-0.64,0-1.12-0.15-1.45-0.46c-0.32-0.3-0.49-0.74-0.49-1.3c0-0.56,0.16-0.99,0.49-1.3c0.32-0.3,0.81-0.46,1.45-0.46h4.95
			c0.09,0,0.16-0.03,0.22-0.09c0.06-0.06,0.09-0.13,0.09-0.22v-1.12c0-0.09-0.03-0.16-0.09-0.21c-0.06-0.05-0.13-0.08-0.22-0.08
			h-4.95c-1.14,0-1.98,0.3-2.54,0.91C80.12,114.71,79.84,115.56,79.84,116.65z"/>
		<path class="st4" d="M88.56,125.24c0,1.1,0.28,1.96,0.84,2.57c0.56,0.61,1.41,0.91,2.54,0.91h4.95c0.09,0,0.16-0.03,0.22-0.08
			c0.06-0.05,0.08-0.12,0.08-0.21v-1.12c0-0.09-0.03-0.16-0.08-0.22c-0.06-0.06-0.13-0.08-0.22-0.08h-4.95
			c-0.64,0-1.12-0.15-1.45-0.46c-0.32-0.3-0.49-0.74-0.49-1.3c0-0.56,0.16-0.99,0.49-1.3c0.32-0.3,0.81-0.46,1.45-0.46h4.95
			c0.09,0,0.16-0.03,0.22-0.09c0.06-0.06,0.08-0.13,0.08-0.22v-1.12c0-0.09-0.03-0.16-0.08-0.21c-0.06-0.05-0.13-0.08-0.22-0.08
			h-4.95c-1.14,0-1.98,0.3-2.54,0.91C88.85,123.29,88.56,124.14,88.56,125.24z"/>
		<path class="st4" d="M79.82,125.24c0,1.1,0.28,1.96,0.84,2.57c0.56,0.61,1.41,0.91,2.54,0.91h4.95c0.09,0,0.16-0.03,0.22-0.08
			c0.06-0.05,0.09-0.12,0.09-0.21v-1.12c0-0.09-0.03-0.16-0.09-0.22c-0.06-0.06-0.13-0.08-0.22-0.08h-4.95
			c-0.64,0-1.12-0.15-1.45-0.46c-0.32-0.3-0.49-0.74-0.49-1.3c0-0.56,0.16-0.99,0.49-1.3c0.32-0.3,0.81-0.46,1.45-0.46h4.95
			c0.09,0,0.16-0.03,0.22-0.09c0.06-0.06,0.09-0.13,0.09-0.22v-1.12c0-0.09-0.03-0.16-0.09-0.21c-0.06-0.05-0.13-0.08-0.22-0.08
			h-4.95c-1.14,0-1.98,0.3-2.54,0.91C80.1,123.29,79.82,124.14,79.82,125.24z"/>
	</g>
	<g class="st3">
		<path class="st4" d="M54.65,114.92c-1.06,0-1.88,0.27-2.47,0.81c-0.58,0.54-0.88,1.35-0.88,2.44v4.75c0,0.09,0.03,0.16,0.08,0.21
			c0.05,0.05,0.12,0.08,0.2,0.08h1.07c0.09,0,0.16-0.03,0.21-0.08c0.05-0.05,0.08-0.12,0.08-0.21v-4.75c0-0.62,0.15-1.08,0.44-1.39
			c0.29-0.31,0.71-0.47,1.24-0.47c0.54,0,0.95,0.16,1.24,0.47c0.29,0.31,0.44,0.77,0.44,1.39v4.75c0,0.09,0.03,0.16,0.08,0.21
			c0.05,0.05,0.12,0.08,0.21,0.08h1.07c0.09,0,0.15-0.03,0.2-0.08c0.05-0.05,0.08-0.12,0.08-0.21v-4.75c0-1.09-0.29-1.9-0.87-2.44
			C56.52,115.18,55.7,114.92,54.65,114.92z"/>
		<path class="st4" d="M54.65,106.53c-1.06,0-1.88,0.27-2.47,0.81c-0.58,0.54-0.88,1.35-0.88,2.44v4.75c0,0.09,0.03,0.16,0.08,0.21
			c0.05,0.05,0.12,0.08,0.2,0.08h1.07c0.09,0,0.16-0.03,0.21-0.08c0.05-0.05,0.08-0.12,0.08-0.21v-4.75c0-0.62,0.15-1.08,0.44-1.39
			c0.29-0.31,0.71-0.47,1.24-0.47c0.54,0,0.95,0.16,1.24,0.47c0.29,0.31,0.44,0.77,0.44,1.39v4.75c0,0.09,0.03,0.16,0.08,0.21
			c0.05,0.05,0.12,0.08,0.21,0.08h1.07c0.09,0,0.15-0.03,0.2-0.08c0.05-0.05,0.08-0.12,0.08-0.21v-4.75c0-1.09-0.29-1.9-0.87-2.44
			C56.52,106.79,55.7,106.53,54.65,106.53z"/>
	</g>
</g>
<g id="Capa_1">
	<path class="st0" d="M44.73,17.32c8.06,0,12.09,6.04,12.09,13.1c0.1,3.22,0,5.05,0,9.07c-1.2,0-3.02,0-3.02,0s-2.66,5.74,2.01,9.07
		c0,0.2-17.23,5.68-21.16-11.08c0,0.2,8.91,5.64,14.1,4.03c0,0,2.03-7.52,0.52-12.07c-1.95-5.89-10.55-4.24-14.62-1.87
		c-10.11,5.88-13.31,14.99-17.13,22C17.53,49.56,20.03,17.32,44.73,17.32z"/>
	<path class="st27" d="M21.14,65.1c-1.13,0-2.01-0.28-2.65-0.84c-0.64-0.56-0.96-1.4-0.96-2.51v-4.95c0-0.09,0.03-0.16,0.08-0.22
		c0.06-0.06,0.13-0.09,0.21-0.09h1.63c0.09,0,0.16,0.03,0.22,0.09c0.06,0.06,0.09,0.14,0.09,0.22v4.93c0,0.5,0.12,0.88,0.35,1.13
		c0.23,0.25,0.57,0.38,1.01,0.38c0.44,0,0.77-0.13,1.01-0.38c0.23-0.25,0.35-0.63,0.35-1.12v-4.93c0-0.09,0.03-0.16,0.09-0.22
		c0.06-0.06,0.13-0.09,0.22-0.09h1.62c0.09,0,0.16,0.03,0.22,0.09c0.06,0.06,0.09,0.14,0.09,0.22v4.95c0,1.12-0.32,1.95-0.95,2.51
		C23.13,64.82,22.26,65.1,21.14,65.1L21.14,65.1z"/>
	<path class="st27" d="M26.44,64.98c-0.08,0-0.15-0.03-0.21-0.09c-0.06-0.06-0.09-0.13-0.09-0.21v-7.89c0-0.09,0.03-0.16,0.09-0.22
		c0.06-0.06,0.13-0.08,0.21-0.08h1.67c0.09,0,0.16,0.03,0.21,0.08c0.06,0.06,0.08,0.13,0.08,0.22v6.29h3.57
		c0.09,0,0.16,0.03,0.22,0.09c0.06,0.06,0.09,0.14,0.09,0.22v1.29c0,0.09-0.03,0.16-0.09,0.22c-0.06,0.06-0.13,0.08-0.22,0.08H26.44
		L26.44,64.98z"/>
	<path class="st27" d="M39.27,57.19c-0.59-0.48-1.4-0.72-2.43-0.72h-3.37c-0.09,0-0.16,0.03-0.21,0.09
		c-0.06,0.06-0.08,0.14-0.08,0.22v7.88c0,0.08,0.03,0.15,0.09,0.21c0.06,0.06,0.13,0.09,0.21,0.09h1.72c0.09,0,0.16-0.03,0.21-0.09
		c0.06-0.06,0.08-0.13,0.08-0.21v-2.62h1.36c1.03,0,1.84-0.23,2.43-0.69c0.59-0.46,0.88-1.15,0.88-2.07
		C40.15,58.37,39.86,57.67,39.27,57.19z M37.55,60.05c-0.19,0.17-0.44,0.26-0.77,0.26h-1.33v-2.09h1.33c0.36,0,0.62,0.1,0.79,0.29
		c0.17,0.19,0.26,0.45,0.26,0.77C37.83,59.62,37.73,59.88,37.55,60.05z"/>
	<path class="st27" d="M44.62,65.1c-1.15,0-2.05-0.29-2.7-0.86c-0.65-0.57-1-1.39-1.04-2.45c-0.01-0.23-0.01-0.59-0.01-1.1
		c0-0.51,0-0.88,0.01-1.12c0.03-1.02,0.38-1.81,1.04-2.37c0.66-0.56,1.56-0.84,2.7-0.84c0.76,0,1.43,0.13,2,0.38
		c0.57,0.25,1,0.57,1.3,0.97c0.3,0.39,0.45,0.8,0.47,1.21c0,0.07-0.03,0.14-0.08,0.19c-0.05,0.05-0.11,0.08-0.18,0.08h-1.85
		c-0.08,0-0.14-0.01-0.18-0.04c-0.04-0.03-0.09-0.07-0.12-0.13c-0.1-0.23-0.25-0.42-0.46-0.58c-0.21-0.16-0.51-0.24-0.89-0.24
		c-0.92,0-1.4,0.49-1.43,1.46c-0.01,0.23-0.01,0.57-0.01,1.04c0,0.47,0,0.82,0.01,1.06c0.03,1.03,0.52,1.54,1.45,1.54
		c0.46,0,0.83-0.12,1.1-0.35c0.27-0.23,0.4-0.59,0.4-1.07v-0.22h-1.06c-0.09,0-0.16-0.03-0.22-0.09c-0.06-0.06-0.09-0.14-0.09-0.22
		v-0.95c0-0.09,0.03-0.16,0.09-0.22c0.06-0.06,0.13-0.09,0.22-0.09h3.03c0.09,0,0.16,0.03,0.22,0.09c0.06,0.06,0.09,0.14,0.09,0.22
		v1.41c0,0.69-0.16,1.28-0.47,1.78c-0.31,0.5-0.76,0.88-1.33,1.14C46.05,64.97,45.39,65.1,44.62,65.1L44.62,65.1z"/>
	<path class="st27" d="M53.08,65.1c-1.14,0-2.03-0.28-2.67-0.84c-0.65-0.56-0.99-1.38-1.03-2.45c-0.01-0.22-0.01-0.57-0.01-1.07
		c0-0.5,0-0.87,0.01-1.09c0.04-1.05,0.39-1.86,1.04-2.43c0.66-0.57,1.54-0.86,2.66-0.86c0.71,0,1.34,0.12,1.9,0.35
		c0.56,0.23,1,0.57,1.33,1.02c0.33,0.45,0.5,0.97,0.51,1.58c0,0.07-0.03,0.13-0.08,0.18c-0.05,0.05-0.11,0.07-0.18,0.07h-1.69
		c-0.11,0-0.19-0.02-0.24-0.07c-0.05-0.04-0.1-0.13-0.14-0.25c-0.11-0.4-0.28-0.67-0.51-0.83c-0.23-0.16-0.53-0.24-0.9-0.24
		c-0.9,0-1.36,0.51-1.39,1.53c-0.01,0.22-0.01,0.55-0.01,1.01c0,0.45,0,0.8,0.01,1.03c0.03,1.02,0.5,1.53,1.39,1.53
		c0.37,0,0.67-0.08,0.9-0.24c0.23-0.16,0.4-0.44,0.51-0.83c0.03-0.12,0.08-0.2,0.13-0.25c0.06-0.04,0.14-0.07,0.25-0.07h1.69
		c0.07,0,0.13,0.02,0.18,0.07c0.05,0.05,0.08,0.11,0.08,0.18c-0.02,0.61-0.19,1.13-0.51,1.58c-0.33,0.45-0.77,0.79-1.33,1.02
		C54.42,64.98,53.78,65.1,53.08,65.1L53.08,65.1z"/>
	<rect x="17.53" y="74.47" class="st0" width="39.29" height="1.72"/>
	<text transform="matrix(1 0 0 1 16.6495 94.3789)"><tspan x="0" y="0" class="st0 st32 st33">Escuel</tspan><tspan x="38.04" y="0" class="st0 st32 st33">a</tspan><tspan x="44.97" y="0" class="st0 st32 st33"> </tspan><tspan x="47.61" y="0" class="st0 st32 st33">d</tspan><tspan x="54.94" y="0" class="st0 st32 st33">e </tspan></text>
	<text transform="matrix(1 0 0 1 17.0157 106.2871)"><tspan x="0" y="0" class="st0 st34 st33">Doctorad</tspan><tspan x="55.87" y="0" class="st0 st34 st33">o</tspan></text>
</g>
</svg>
